<svg xmlns="http://www.w3.org/2000/svg" viewBox="0 0 37.11 25.68">
  <title>camels</title>
  <g id="Layer_2" data-name="Layer 2">
    <g id="Layer_1-2" data-name="Layer 1">
      <g>
        <path id="camello2" d="M18.79,3.59A.85.85,0,0,0,18,3.35a6.11,6.11,0,0,1-1.19.13,2.31,2.31,0,0,0-1,.18c-.17.14-.34.26-.25.81a2.28,2.28,0,0,1-.41,1.43,1.46,1.46,0,0,1-1.35.66,4.08,4.08,0,0,1-2.05-.71,2.55,2.55,0,0,0-1.87,0,.73.73,0,0,1-.6,0,2.21,2.21,0,0,0-2.69.42s-.44.58-.34,1a3.53,3.53,0,0,0-1.51.9,1.69,1.69,0,0,0-.31,1l.07,0S3,11.4,2.92,11.68a1.19,1.19,0,0,0,.16.68,4.3,4.3,0,0,0-.54,1c0,.21.3,1.87.37,2.29s.1.55.34.55.73-.12.5-.33a.2.2,0,0,0-.21,0,10.28,10.28,0,0,1-.29-1.65,4.54,4.54,0,0,1,.51-1.39,3.51,3.51,0,0,1,.79-.85,1.25,1.25,0,0,0,.54-1s.84.5,1,.87.19,1.23.39,1.46,2.19,1.19,2.33,1.38.77,0,1,0,.2-.26-.21-.28a5.6,5.6,0,0,1-2-1.14A5.59,5.59,0,0,1,7,11.55c0-.11.19-.07.12-.55S7,10.28,7,10.28a9.8,9.8,0,0,0,1.22.09,19.17,19.17,0,0,0,2.37-.49s-.12,1.17-.12,1.46.41,2,.47,2.27,0,.7.16.66,1.47-.27,1-.33-.48.09-.52-.06a14.91,14.91,0,0,1-.42-1.74c.05-.09.23-1.27.27-1.43s0-.94.26-1.14.87,0,1.61.5,1.14.52,1.37,1a17.61,17.61,0,0,0,.77,2c.17.09.23.14,1-.08s-.12-.29-.26-.27-.44-.43-.5-.55-.4-1.34-.42-1.38-.08-.59-.56-.72A4.35,4.35,0,0,1,13,8.75a1.63,1.63,0,0,1,.3-.53A3.75,3.75,0,0,1,14.17,8a2.57,2.57,0,0,0,1.81-1c.36-.58,1.24-2.36,1.41-2.43s1.44-.29,1.57-.4S18.86,3.65,18.79,3.59Z" style="fill: #231f20"/>
        <path id="camellosombra2" d="M14.81,22a2.64,2.64,0,0,1-1.1.7,10.16,10.16,0,0,0-1.37.48,3.11,3.11,0,0,1-1.12.32c-.13-.07-.29-.11.06-.77a1.63,1.63,0,0,0,.16-1.37c-.08-.23-.28-.42-1.3,0a14.24,14.24,0,0,0-2.81,1.87,5.2,5.2,0,0,1-2.24.94,1.39,1.39,0,0,0-.74.33c-.45.33-2.42,1.71-3.07,1a1,1,0,0,1,.13-.94s-1.2.2-1.34-.22a1.5,1.5,0,0,1,.19-1l.11-.08a10.06,10.06,0,0,1-.37-2,4,4,0,0,1,.6-.86,1.7,1.7,0,0,1,0-.83c.12-.24,1.5-2.29,1.84-2.82s.45-.68.73-.8.77-.24.37.13c0,0-.16.13-.24.1s-1.37,2-1.35,2a3.42,3.42,0,0,0-.24,1.33c.12.31.22.52.42.56s.3.29.06.84a13.65,13.65,0,0,0,1.66-1.5c.37-.5.93-1.49,1.3-1.86s3.2-2.48,3.46-2.76a2.17,2.17,0,0,1,1.1-.47c.2,0,.08.2-.39.42a23.72,23.72,0,0,0-3,2.33,19,19,0,0,0-1.57,2.18c0,.11.18,0-.17.57s-.55.88-.55.88.89-.48,1.49-.74A22.61,22.61,0,0,1,8,19.3s.48-1.26.63-1.58,1.57-2.52,1.75-2.8.38-.79.53-.83,1.52-.44.9-.11-.49.14-.62.33-1.41,2.1-1.4,2.18S9.43,17.8,9.39,18,8.87,19,9.11,19.1s1-.49,2.13-1.39a12.63,12.63,0,0,0,2.06-1.8c.48-.63,1.6-2.39,1.83-2.58a1.75,1.75,0,0,1,1.06-.4c.73-.13-.27.38-.43.44a4.88,4.88,0,0,0-.82.86c-.12.15-1.1,1.7-1.15,1.75a3.45,3.45,0,0,1-1,1.09,18.32,18.32,0,0,0-2.49,2.24c-.07.17.09.43.09.43a4.27,4.27,0,0,0,.94-.25c.73-.24,1.5-.3,1.66.16s.41,2,.58,2,1.58-.43,1.69-.38S14.91,21.91,14.81,22Z" style="fill: #231f20"/>
        <g id="grupocamellos">
          <path id="Camellosombra1" d="M33.58,16.94a2.47,2.47,0,0,1-1,.65,9.62,9.62,0,0,0-1.28.45,2.89,2.89,0,0,1-1,.3c-.13-.07-.27-.1.06-.72a1.52,1.52,0,0,0,.15-1.28c-.07-.21-.27-.39-1.21,0a13.29,13.29,0,0,0-2.62,1.75,4.85,4.85,0,0,1-2.1.88,1.3,1.3,0,0,0-.69.31c-.42.31-2.26,1.6-2.86.9a.89.89,0,0,1,.12-.88s-1.12.19-1.25-.21a1.4,1.4,0,0,1,.18-.91l.1-.07a9.4,9.4,0,0,1-.35-1.88,3.71,3.71,0,0,1,.56-.8,1.59,1.59,0,0,1,0-.78c.11-.22,1.4-2.14,1.72-2.63s.42-.63.68-.75.72-.22.35.12c0,0-.15.12-.22.09s-1.28,1.82-1.27,1.91a3.19,3.19,0,0,0-.23,1.24c.12.29.21.48.39.53s.28.27.06.78a12.74,12.74,0,0,0,1.55-1.4c.35-.46.87-1.39,1.21-1.74s3-2.31,3.23-2.58a2,2,0,0,1,1-.43c.19,0,.08.18-.36.39a22.08,22.08,0,0,0-2.76,2.18,17.71,17.71,0,0,0-1.47,2c0,.1.17,0-.16.53s-.51.82-.51.82.83-.45,1.39-.69a21.1,21.1,0,0,1,2.35-.63s.44-1.17.59-1.48,1.46-2.35,1.63-2.61.36-.74.5-.77,1.42-.41.84-.1-.46.13-.58.31-1.32,2-1.31,2-.37,1.22-.41,1.37-.49,1-.26,1.06,1-.46,2-1.3a11.78,11.78,0,0,0,1.93-1.68c.45-.59,1.49-2.23,1.71-2.41a1.64,1.64,0,0,1,1-.38c.68-.12-.26.36-.4.41a4.6,4.6,0,0,0-.77.8c-.11.14-1,1.58-1.07,1.64a3.23,3.23,0,0,1-.93,1,17.15,17.15,0,0,0-2.32,2.09c-.07.16.08.41.08.41a4,4,0,0,0,.88-.23c.68-.23,1.4-.28,1.55.15s.38,1.84.54,1.82,1.48-.4,1.58-.35S33.67,16.85,33.58,16.94Z" style="fill: #231f20"/>
          <path id="Camello1" d="M36.94.23A.76.76,0,0,0,36.2,0a5.43,5.43,0,0,1-1.06.11,2.06,2.06,0,0,0-.89.17c-.15.13-.3.23-.22.72a2,2,0,0,1-.37,1.27,1.3,1.3,0,0,1-1.2.58,3.64,3.64,0,0,1-1.83-.64,2.27,2.27,0,0,0-1.67,0,.65.65,0,0,1-.54,0,2,2,0,0,0-2.4.37s-.39.51-.3.88a3.14,3.14,0,0,0-1.35.81,1.5,1.5,0,0,0-.28.89l.07,0S22.86,7.19,22.8,7.44a1.06,1.06,0,0,0,.14.6,3.82,3.82,0,0,0-.48.87c0,.19.27,1.66.33,2s.09.49.3.49.65-.1.45-.3a.18.18,0,0,0-.19,0,9.17,9.17,0,0,1-.26-1.47,4,4,0,0,1,.46-1.24,3.12,3.12,0,0,1,.7-.76,1.11,1.11,0,0,0,.48-.87s.75.44.87.78a6.5,6.5,0,0,0,.35,1.3c.18.21,2,1.06,2.07,1.23s.68,0,.88,0,.18-.23-.18-.25a5,5,0,0,1-1.8-1,5,5,0,0,1-.48-1.5c0-.1.17-.06.11-.49s-.11-.64-.11-.64a8.71,8.71,0,0,0,1.09.08,17.12,17.12,0,0,0,2.11-.44s-.11,1-.11,1.3.37,1.82.42,2,0,.62.14.59,1.31-.24.85-.3-.43.08-.46-.06a13.22,13.22,0,0,1-.37-1.55c0-.08.2-1.13.24-1.27s0-.84.23-1,.77,0,1.44.45,1,.46,1.22.87a15.78,15.78,0,0,0,.68,1.74c.15.08.21.13.87-.07s-.11-.26-.24-.24-.39-.39-.44-.49-.35-1.19-.38-1.23-.08-.52-.5-.64a3.9,3.9,0,0,1-1.43-1.12A1.46,1.46,0,0,1,32,4.36a3.38,3.38,0,0,1,.78-.16,2.29,2.29,0,0,0,1.61-.87c.32-.51,1.11-2.1,1.25-2.16S37,.91,37.08.81,37,.29,36.94.23Z" style="fill: #231f20"/>
        </g>
      </g>
    </g>
  </g>
</svg>
