<svg xmlns="http://www.w3.org/2000/svg" xmlns:xlink="http://www.w3.org/1999/xlink" viewBox="0 0 393.79 93.53">
  <defs>
    <linearGradient id="linear-gradient" x1="245.26" y1="69.37" x2="393.79" y2="69.37" gradientUnits="userSpaceOnUse">
      <stop offset="0" stop-color="#f9fbf8"/>
      <stop offset="0.81" stop-color="#b7d2ef"/>
    </linearGradient>
    <linearGradient id="linear-gradient-2" x1="85.07" y1="9.52" x2="283.23" y2="9.52" xlink:href="#linear-gradient"/>
    <linearGradient id="linear-gradient-3" x1="0" y1="80.51" x2="123.08" y2="80.51" xlink:href="#linear-gradient"/>
  </defs>
  <title>clouds</title>
  <g id="Layer_2" data-name="Layer 2">
    <g id="Layer_1-2" data-name="Layer 1">
      <g id="clouds" style="opacity: 0.8300000000000001">
        <path id="cloud3" d="M381.43,70.32c-18.41-1.77-32-2.77-20.07-3.21s30.64-2.66,18.27-3-26.72,1.22-36.67.66,2-1-10.72-1.22-19.46-.22-13.88-1.1-1.06-1.22-5.13-1.34c-5.88-.16-8.61-.11-20.38,0S277.46,63,283.2,63.67s7.09,1.22-10.26,2.1-34.11,1.66-25.2,2.67,9.2.77,8.45,1.44,1.2.77,5.58.67,12.68.77,19.16.89,13.28,1.22,9.21,1.78-13.28,1.88-4.07,2.55,12.37,1.44,20.83,1.89,29-1,20.07-2.11-17.81-2.22-5-2.88,14.34-1.11,10.25-1.66,4.38-.22,10.72-.11,17.05,1.22,11.77,1.66-6.64,2.11-2,2.66-2.26,1.66,7.09,1.44,19,0,26.71-.88S399.85,72.09,381.43,70.32ZM297,69.77c-5.35,0-1.88-.22-5.81-.67s3.7-1,4.83-.93C300.1,68.33,302.36,69.77,297,69.77Zm5.66.95c-2.79-.12-.83-.72.45-.67C307,70.21,305.45,70.82,302.66,70.71Zm60.66,2.83c-2.78-.06-.67-1.41,3-1.22C370.72,72.54,366.12,73.6,363.32,73.54Zm9-.34c-1.44.06-1.51-.53-.38-.5C374.27,72.76,373.75,73.15,372.31,73.2Z" style="opacity: 0.30000000000000004;fill: url(#linear-gradient)"/>
        <path id="cloud2" d="M278.48,8.48c-13.41-.84-18.7-.35-29.78-1s-30.95-.85-39.88-.85.67-1.82-13.73-1.82-.82-1.1,2.31-1.47,23.67-4-9.75-3.29c-16.56.36-38.72,1.7-28.13,2.68S178,4,174.07,5.45s-2.64,1.94,3.64,2.19,12.24,1-3.64,1.21-6.54-1.64-22.67-.72S136.18,9.46,138,10.19s3.14,1.34-7.12,1.47-36.72,0-35.39,1-3.48.85-6.95,1.09-7.45,2,5.12,2.33,25-1.35,28.63,0,2.48,2.31,11.58,1.93,23.83-.73,29.12.13,11.09,1.71,23-.24,21.85-4.75,34.09-5.11,28.46.85,41.2-.12S291.87,9.34,278.48,8.48ZM162.82,12.86c-5-.49-5.46-1.94-1.48-1.94s4.14.22,11.09.49C182,11.77,167.78,13.34,162.82,12.86Z" style="opacity: 0.30000000000000004;fill: url(#linear-gradient-2)"/>
        <path id="cloud1" d="M119.9,76.44c-8.59-.66-23.25-.26-40.43-.66s-26.12.79-32.2-1.18S38.51,73.42,34,72.75s-2.5-.92-.89-1.57-3.22-1.32-13.41-1.71-10.92-1.31-16.29-2-2.86,26-2.86,26c10.2,0,11.09-.79,13.6-.93s20.21-.65,16.64-1.7-.18-1.45,2.68-1.58,6.09.79,9.84,1S67,87.61,62.48,85.77s3.22-1.44,7.16-1.44S94.5,83.27,90,82.23s-2-1.32,6.26-1.85,9.48-1.32,15.39-1.18S128.49,77.1,119.9,76.44ZM14.18,87.61c-2.15.26-3.2-.51-.72-.79C15.79,86.56,16.33,87.35,14.18,87.61ZM19.36,77c-2.51.65-2.68.26-8,.39s-9.66-.92-8.05-2,7-.76,11.27-.92C22.05,74.2,21.87,76.3,19.36,77Zm12.35,3.41c-2.86.53-3.81-1.37-1.08-1.44C35.29,78.8,34.57,79.85,31.71,80.38ZM43,83.8c-5.72-.53,1.63-1.59,4.48-1.31C56.94,83.4,48.71,84.33,43,83.8Z" style="opacity: 0.30000000000000004;fill: url(#linear-gradient-3)"/>
      </g>
    </g>
  </g>
</svg>
