<svg xmlns="http://www.w3.org/2000/svg" xmlns:xlink="http://www.w3.org/1999/xlink" viewBox="0 0 403.95 145.34">
  <defs>
    <linearGradient id="linear-gradient" x1="54.94" y1="46.93" x2="97.45" y2="47.76" gradientUnits="userSpaceOnUse">
      <stop offset="0" stop-color="#fde7c1"/>
      <stop offset="1" stop-color="#e2a968"/>
    </linearGradient>
    <linearGradient id="linear-gradient-2" x1="55.45" y1="20.94" x2="97.96" y2="21.78" xlink:href="#linear-gradient"/>
    <linearGradient id="linear-gradient-3" x1="55.23" y1="31.9" x2="97.75" y2="32.73" gradientUnits="userSpaceOnUse">
      <stop offset="0" stop-color="#fff"/>
      <stop offset="1" stop-color="#e2a968"/>
    </linearGradient>
    <linearGradient id="linear-gradient-4" x1="54.53" y1="67.62" x2="97.05" y2="68.46" xlink:href="#linear-gradient-3"/>
    <linearGradient id="linear-gradient-5" x1="53.77" y1="106.36" x2="96.29" y2="107.19" gradientUnits="userSpaceOnUse">
      <stop offset="0" stop-color="#fde7c1"/>
      <stop offset="1" stop-color="#e2a968"/>
    </linearGradient>
    <linearGradient id="linear-gradient-6" x1="54.3" y1="79.34" x2="96.82" y2="80.17" xlink:href="#linear-gradient"/>
    <linearGradient id="linear-gradient-7" x1="53.95" y1="97.13" x2="96.47" y2="97.97" xlink:href="#linear-gradient-3"/>
    <linearGradient id="linear-gradient-8" x1="53.48" y1="121.34" x2="95.99" y2="122.17" xlink:href="#linear-gradient"/>
  </defs>
  <title>dunes</title>
  <g style="isolation: isolate">
    <g id="Layer_2" data-name="Layer 2">
      <g id="Layer_1-2" data-name="Layer 1">
        <g>
          <path d="M373.48,40.62c-12.77-2-25.61-3.87-38.24-6.67-12.2-2.71-23.59-5.06-35.47-12.17-5.51-3.3-21-14-27.92-21.37C268.14-3.54,210,22.5,196.73,27.62c-25.43,9.82-51.63,17.86-78.52,22.57-31.4,5.5-63.6,8.81-94.71.14C21.35,49.72,0,44.52,0,42.23V97H403.95V46.06C393.9,43.72,383.68,42.21,373.48,40.62Z" style="fill: url(#linear-gradient)"/>
          <path d="M135.93,46.95c15-1.32,30-3.46,44.37-7.76,13.6-4.06,26.59-10,39.32-16.24C235.33,15.3,250.9,7.06,267.08.43c-14.91,3.16-59,22.81-70.34,27.18a442.3,442.3,0,0,1-63.18,19.51Z" style="mix-blend-mode: screen;fill: url(#linear-gradient-2)"/>
          <path d="M271,3.85a15.18,15.18,0,0,1-4.25,5.71,52.38,52.38,0,0,1-9.81,6.74c-7.16,3.81-14.79,7-21.22,12.06-3,2.33-6.14,5.29-7.05,9.1-1.09,4.58,1.57,9.2,5.09,12,4.11,3.24,9.34,4.9,14.44,5.81,7.27,1.29,14.77,1.55,22.14,1.8,15.36.53,30.66,1.16,45.93,2.94a349.85,349.85,0,0,1,45.11,8.15c14.12,3.56,28.11,4.83,42.61,6.61V46.06c-10-2.34-20.27-3.85-30.47-5.44-12.77-2-25.61-3.87-38.24-6.67-12.2-2.71-23.59-5.06-35.47-12.17-5.51-3.3-21-14-27.92-21.37a1.12,1.12,0,0,0-.51-.28A7.53,7.53,0,0,1,271,3.85Z" style="mix-blend-mode: multiply;fill: url(#linear-gradient-3)"/>
          <path d="M13.52,61.84C22.75,67.69,31.81,74,41.88,78.36a86.18,86.18,0,0,0,44,7c14.94-1.67,29.17-7.22,42.49-14,11.6-5.88,22.5-12.94,33.76-19.39a373.47,373.47,0,0,1-44,10.62c-31.4,5.5-63.6,8.81-94.71.14C22,62.32,12.79,60.05,6.31,57.87A71.3,71.3,0,0,1,13.52,61.84Z" style="mix-blend-mode: multiply;fill: url(#linear-gradient-4)"/>
          <path d="M222.91,71c-22.24,1.52-44.22,5.25-66.06,9.56a208.28,208.28,0,0,1-51.58,3.75,409.83,409.83,0,0,1-40.9-4.52C43.46,76.51,21.27,71.68,0,74.19v71.14H403.95V74.75C398.71,75,259.78,68.43,222.91,71Z" style="fill: url(#linear-gradient-5)"/>
          <path d="M62.12,80.71a451.24,451.24,0,0,0,45.43,7c14,1.39,27.94,0,41.7-2.78,14.3-2.94,28.4-7.18,42.64-10.54-11.73,1.72-23.41,3.85-35,6.15a208.28,208.28,0,0,1-51.58,3.75,409.83,409.83,0,0,1-40.9-4.52C56.68,78.56,48.82,77.15,40.89,76,48,77.59,55,79.27,62.12,80.71Z" style="mix-blend-mode: screen;fill: url(#linear-gradient-6)"/>
          <path d="M234.3,70.5c-13.28,11.35-31.66,15-48,20.17a112.07,112.07,0,0,0-15.7,6.06c-4.73,2.34-9.8,5.42-13,9.75a10.28,10.28,0,0,0-2.32,7.11,11.14,11.14,0,0,0,4.22,7.22c.77.3,1.55.57,2.31.8,8.7,2.67,18.19,2.91,27.22,2.66a408.53,408.53,0,0,0,42.72-3.64c18.37-2.45,36.73-5.31,55.3-5.59a292.07,292.07,0,0,1,52.05,4.21,518.46,518.46,0,0,1,64.83,15.54v-60C399.15,75,282.31,69.49,234.3,70.5Z" style="mix-blend-mode: multiply;fill: url(#linear-gradient-7)"/>
          <path d="M167.46,134.56c25.11,0,95.54-16.35,106.79-19.38l2.06-.54-2.8.38c-13.81,2-27.52,4.67-41.21,7.34-27,5.28-54.31,10.68-82,10.67-12.13,0-24.24-.72-36.34-1.75A483.49,483.49,0,0,0,167.46,134.56Z" style="mix-blend-mode: screen;fill: url(#linear-gradient-8)"/>
        </g>
      </g>
    </g>
  </g>
</svg>
