<svg xmlns="http://www.w3.org/2000/svg" xmlns:xlink="http://www.w3.org/1999/xlink" viewBox="0 0 52.8 42.48">
  <defs>
    <radialGradient id="radial-gradient" cx="535.59" cy="393.92" r="19.05" gradientTransform="translate(-457.51 9.62) scale(0.89 0.08)" gradientUnits="userSpaceOnUse">
      <stop offset="0" stop-color="#a28242"/>
      <stop offset="0.13" stop-color="#a38342" stop-opacity="0.97"/>
      <stop offset="0.29" stop-color="#a68544" stop-opacity="0.87"/>
      <stop offset="0.47" stop-color="#aa8846" stop-opacity="0.71"/>
      <stop offset="0.67" stop-color="#b08d49" stop-opacity="0.49"/>
      <stop offset="0.87" stop-color="#b8934c" stop-opacity="0.21"/>
      <stop offset="1" stop-color="#be984f" stop-opacity="0"/>
    </radialGradient>
    <radialGradient id="radial-gradient-2" cx="451.43" cy="393.92" r="19.05" gradientTransform="translate(-445.39 9.62) scale(1.06 0.08)" xlink:href="#radial-gradient"/>
  </defs>
  <title>food</title>
  <g style="isolation: isolate">
    <g id="Layer_2" data-name="Layer 2">
      <g id="Layer_1-2" data-name="Layer 1">
        <g id="food">
          <ellipse cx="16.88" cy="40.97" rx="16.88" ry="1.52" style="mix-blend-mode: multiply;fill: url(#radial-gradient)"/>
          <ellipse cx="32.62" cy="40.97" rx="20.17" ry="1.52" style="mix-blend-mode: multiply;fill: url(#radial-gradient-2)"/>
          <g>
            <path d="M22.2,28.22l-.26,3.64s-2.45,0-3.56-1.59a3.15,3.15,0,0,1-.53-1.68c-.21-4.55,2.87-9,3.64-11.23.84-2.47,1.43-4.43-.24-5.85a3,3,0,0,0-3.52-.23.34.34,0,0,1-.31.06c-.15-.07.16-.41.08-.54s-1.09.14-1.25,0,.18-.37.18-.37,3.57-1.74,6,.54c2.65,2.53-.36,8.84-2,12.31a5.59,5.59,0,0,0-.69,3.26C19.94,27.67,20.89,28.18,22.2,28.22Z" style="fill: #f7941e"/>
            <path d="M22.2,28.22l-.26,3.64s-2.45,0-3.56-1.59a6.28,6.28,0,0,1,1.34-3.74C19.94,27.67,20.89,28.18,22.2,28.22Z" style="fill: #f7941e;mix-blend-mode: multiply"/>
            <path d="M22.2,28.22l-.26,3.64s-2.45,0-3.56-1.59a6.28,6.28,0,0,1,1.34-3.74C19.94,27.67,20.89,28.18,22.2,28.22Z" style="fill: #f7941e;mix-blend-mode: multiply"/>
            <path d="M45.26,15a10.61,10.61,0,0,1-1,3.35c-.49,1-1,2-1.55,2.91s-1,1.81-1.37,2.67A12.27,12.27,0,0,0,40.57,26c0,.13-.06.25-.08.37a9.14,9.14,0,0,0-.14,1.13c0,.09,0,.18,0,.27s0,.18,0,.26v.25l0,.25a8,8,0,0,0,.12.9c0,.14.06.27.08.4l0,.09,0,.08,0,.15a4.36,4.36,0,0,0,.24.55l.11.2.11.18.13.24,0,.09v0a.37.37,0,0,1-.25.48.42.42,0,0,1-.35-.05l-.09-.08-.1-.1-.13-.15a4.19,4.19,0,0,1-.28-.45,5.43,5.43,0,0,1-.3-.65l-.07-.21,0-.1,0-.1c0-.14-.07-.28-.1-.43a9,9,0,0,1-.15-1l0-.27V28.1c0-.1,0-.19,0-.29s0-.2,0-.3a9.91,9.91,0,0,1,.13-1.26A11.64,11.64,0,0,1,40,24.43c.1-.29.21-.58.33-.87.38-.92.86-1.84,1.36-2.78s1-1.89,1.47-2.87l.09-.19.08-.18.08-.18.07-.19.07-.19.07-.19c0-.13.08-.25.12-.38a8.16,8.16,0,0,0,.32-1.54,5.5,5.5,0,0,0,0-1.52l0-.18A1.39,1.39,0,0,0,44,13l-.05-.18,0-.09,0-.08a3.25,3.25,0,0,0-.14-.34l-.09-.19v0h0l0,0,0-.08a4.13,4.13,0,0,0-.93-1.11,4.63,4.63,0,0,0-1.23-.74L41,10,40.88,10l-.17,0-.16,0-.16,0-.2,0H40a4.33,4.33,0,0,0-1.32.12,5.31,5.31,0,0,0-1.19.48l-.14.08-.14.08-.07,0-.06,0-.14.08-.13.08-.13.09-.25.18a9.3,9.3,0,0,0-.89.73c-.13.13-.26.25-.37.37s-.22.25-.33.37-.23.28-.32.42a7.07,7.07,0,0,0-.58.94l-.14.29-.11.26c0,.08-.05.15-.08.21l-.06.18-.11.39c-.14.47-.22,1.26-.33,1.9a7.85,7.85,0,0,1-.44-3.86,8.44,8.44,0,0,1,1.06-1.56c.12-.14.25-.29.39-.43s.29-.28.44-.43l.27-.23c.24-.2.49-.41.76-.6l.29-.2.15-.1.15-.09.15-.09.08,0,.08,0,.16-.09.17-.09a6.69,6.69,0,0,1,1.51-.59,5.59,5.59,0,0,1,1.75-.14h.23l.2,0,.24,0,.23.05.22.06.22.07c.15,0,.29.1.43.16l.21.09.21.1c.14.08.27.14.4.23a5.78,5.78,0,0,1,.75.55,5.35,5.35,0,0,1,1.18,1.45l.06.1,0,.05v0h0v0l.08.19a4.32,4.32,0,0,1,.17.44l0,.12,0,.11.06.23a2.17,2.17,0,0,1,0,.23l0,.23A6.62,6.62,0,0,1,45.26,15Z" style="fill: #f7941e"/>
            <path d="M41,30.95a3.21,3.21,0,0,1-.51.79l-.13-.15a4.19,4.19,0,0,1-.28-.45,5.43,5.43,0,0,1-.3-.65l-.07-.21,0-.1,0-.1c0-.14-.07-.28-.1-.43a9,9,0,0,1-.15-1l0-.27V28.1c0-.1,0-.19,0-.29s0-.2,0-.3a9.91,9.91,0,0,1,.13-1.26A11.64,11.64,0,0,1,40,24.43c.17.44.37,1,.56,1.61,0,.13-.06.25-.08.37a9.14,9.14,0,0,0-.14,1.13c0,.09,0,.18,0,.27s0,.18,0,.26v.25l0,.25a8,8,0,0,0,.12.9c0,.14.06.27.08.4l0,.09,0,.08,0,.15a4.36,4.36,0,0,0,.24.55Z" style="fill: #f7941e;mix-blend-mode: multiply"/>
            <path d="M34.87,10.65A10.75,10.75,0,0,0,34.54,13a7.07,7.07,0,0,0-.58.94l-.14.29-.11.26c0,.08-.05.15-.08.21l-.06.18-.11.39c-.14.47-.22,1.26-.33,1.9a7.85,7.85,0,0,1-.44-3.86,8.44,8.44,0,0,1,1.06-1.56c.12-.14.25-.29.39-.43s.29-.28.44-.43Z" style="fill: #f7941e;mix-blend-mode: multiply"/>
            <path d="M41,30.95a3.21,3.21,0,0,1-.51.79l-.13-.15a4.19,4.19,0,0,1-.28-.45,5.43,5.43,0,0,1-.3-.65l-.07-.21,0-.1,0-.1c0-.14-.07-.28-.1-.43a9,9,0,0,1-.15-1l0-.27V28.1c0-.1,0-.19,0-.29s0-.2,0-.3a9.91,9.91,0,0,1,.13-1.26A11.64,11.64,0,0,1,40,24.43c.17.44.37,1,.56,1.61,0,.13-.06.25-.08.37a9.14,9.14,0,0,0-.14,1.13c0,.09,0,.18,0,.27s0,.18,0,.26v.25l0,.25a8,8,0,0,0,.12.9c0,.14.06.27.08.4l0,.09,0,.08,0,.15a4.36,4.36,0,0,0,.24.55Z" style="fill: #f7941e;mix-blend-mode: multiply"/>
            <path d="M34.87,10.65A10.75,10.75,0,0,0,34.54,13a7.07,7.07,0,0,0-.58.94l-.14.29-.11.26c0,.08-.05.15-.08.21l-.06.18-.11.39c-.14.47-.22,1.26-.33,1.9a7.85,7.85,0,0,1-.44-3.86,8.44,8.44,0,0,1,1.06-1.56c.12-.14.25-.29.39-.43s.29-.28.44-.43Z" style="fill: #f7941e;mix-blend-mode: multiply"/>
            <ellipse cx="30.11" cy="6.33" rx="1.14" ry="1.09" style="fill: #f7941e"/>
            <ellipse cx="30.11" cy="6.33" rx="1.14" ry="1.09" style="fill: #f7941e;mix-blend-mode: multiply"/>
            <ellipse cx="30.11" cy="6.33" rx="1.14" ry="1.09" style="fill: #f7941e;mix-blend-mode: multiply"/>
            <path d="M35.18,38.45a4.91,4.91,0,0,0-5.07-4.38A4.91,4.91,0,0,0,25,38.45Z" style="fill: #f7941e"/>
            <path d="M35.18,38.45a4.91,4.91,0,0,0-5.07-4.38A4.91,4.91,0,0,0,25,38.45Z" style="fill: #f7941e;mix-blend-mode: multiply"/>
            <path d="M35.18,38.45a4.91,4.91,0,0,0-5.07-4.38A4.91,4.91,0,0,0,25,38.45Z" style="fill: #f7941e;mix-blend-mode: multiply"/>
            <path d="M35.18,38.45a4.91,4.91,0,0,0-5.07-4.38A4.91,4.91,0,0,0,25,38.45Z" style="fill: #f7941e;mix-blend-mode: multiply"/>
            <path d="M39.8,29.81c.05,5.09-4.69,5.9-8.12,6H29c-3.45,0-8.67-.63-8.61-6,0-.19,0-.38,0-.58a9.36,9.36,0,0,1,.32-1.68c.05-.19.11-.38.18-.57s.18-.5.28-.76c1.24-3.06,3.61-6,4.9-8.65a11.87,11.87,0,0,0,.49-1.13c0-.13.09-.27.13-.4s.08-.27.11-.4A5.29,5.29,0,0,0,27,15a8.71,8.71,0,0,0-.11-3.11A5.84,5.84,0,0,0,25.37,9h9.48a5.84,5.84,0,0,0-1.5,2.91A8.83,8.83,0,0,0,33.23,15a5.3,5.3,0,0,0,.12.63c0,.13.07.26.11.4s.09.26.13.4c.14.37.3.75.49,1.13,1.3,2.63,3.67,5.59,4.9,8.65.1.25.2.5.28.76s.12.38.18.57a9.14,9.14,0,0,1,.32,1.68C39.79,29.42,39.8,29.61,39.8,29.81Z" style="fill: #f7941e"/>
            <path d="M39.8,29.81c.05,5.09-4.69,5.9-8.12,6H29c-3.45,0-8.67-.63-8.61-6,0-.19,0-.38,0-.58a9.36,9.36,0,0,1,.32-1.68c.05-.19.11-.38.18-.57s.18-.5.28-.76c1.24-3.06,3.61-6,4.9-8.65a11.87,11.87,0,0,0,.49-1.13c0-.13.09-.27.13-.4s.08-.27.11-.4A5.29,5.29,0,0,0,27,15a8.71,8.71,0,0,0-.11-3.11A5.84,5.84,0,0,0,25.37,9h9.48a5.84,5.84,0,0,0-1.5,2.91A8.83,8.83,0,0,0,33.23,15a5.3,5.3,0,0,0,.12.63c0,.13.07.26.11.4s.09.26.13.4c.14.37.3.75.49,1.13,1.3,2.63,3.67,5.59,4.9,8.65.1.25.2.5.28.76s.12.38.18.57a9.14,9.14,0,0,1,.32,1.68C39.79,29.42,39.8,29.61,39.8,29.81Z" style="fill: #f7941e;mix-blend-mode: multiply"/>
            <path d="M39.8,29.81c.05,5.09-4.69,5.9-8.12,6H29c-3.45,0-8.67-.63-8.61-6,0-.19,0-.38,0-.58a9.36,9.36,0,0,1,.32-1.68c.05-.19.11-.38.18-.57s.18-.5.28-.76c1.24-3.06,3.61-6,4.9-8.65a11.87,11.87,0,0,0,.49-1.13c0-.13.09-.27.13-.4s.08-.27.11-.4A5.29,5.29,0,0,0,27,15a8.71,8.71,0,0,0-.11-3.11A5.84,5.84,0,0,0,25.37,9h9.48a5.84,5.84,0,0,0-1.5,2.91A8.83,8.83,0,0,0,33.23,15a5.3,5.3,0,0,0,.12.63c0,.13.07.26.11.4s.09.26.13.4c.14.37.3.75.49,1.13,1.3,2.63,3.67,5.59,4.9,8.65.1.25.2.5.28.76s.12.38.18.57a9.14,9.14,0,0,1,.32,1.68C39.79,29.42,39.8,29.61,39.8,29.81Z" style="fill: #f7941e;mix-blend-mode: multiply"/>
            <path d="M34.84,9a5.84,5.84,0,0,0-1.5,2.91H26.87A5.84,5.84,0,0,0,25.37,9Z" style="fill: #f7941e;mix-blend-mode: multiply"/>
            <path d="M35.39,8.8c-.16-1.36-2.47-2.44-5.28-2.44S25,7.44,24.82,8.8Z" style="fill: #f7941e"/>
            <path d="M35.39,8.8c-.16-1.36-2.47-2.44-5.28-2.44S25,7.44,24.82,8.8Z" style="fill: #f7941e;mix-blend-mode: multiply"/>
            <path d="M35.12,38h-10c-1.66.58-2.76,1.44-2.89,2.41H38C37.88,39.46,36.78,38.6,35.12,38Z" style="fill: #f7941e"/>
            <path d="M35.12,38h-10c-1.66.58-2.76,1.44-2.89,2.41H38C37.88,39.46,36.78,38.6,35.12,38Z" style="fill: #f7941e;mix-blend-mode: multiply"/>
            <rect x="24.57" y="8.68" width="11.07" height="0.53" rx="0.27" ry="0.27" style="fill: #f7941e"/>
            <path d="M37.91,41H22.3a.35.35,0,0,1-.36-.34h0a.35.35,0,0,1,.36-.34H37.91a.35.35,0,0,1,.36.34h0A.35.35,0,0,1,37.91,41Z" style="fill: #f7941e"/>
            <path d="M30.11,0h0a.21.21,0,0,0-.21.2C29.84,2.73,27.84,3.1,28,4.33s1.5,1.24,1.5,1.24h1.31s1.39,0,1.5-1.24S30.37,2.73,30.32.2A.21.21,0,0,0,30.11,0Z" style="fill: #f7941e"/>
            <path d="M30.11,0h0a.21.21,0,0,0-.21.2C29.84,2.73,27.84,3.1,28,4.33s1.5,1.24,1.5,1.24h1.31s1.39,0,1.5-1.24S30.37,2.73,30.32.2A.21.21,0,0,0,30.11,0Z" style="fill: #f7941e;mix-blend-mode: multiply"/>
            <path d="M27.86,8.22c-.84.16-1.59,0-1.67-.39s.54-.82,1.38-1,1.59,0,1.67.39S28.7,8.05,27.86,8.22Z" style="fill: #f7941e;mix-blend-mode: screen"/>
            <path d="M30,3.48c-.42.54-1,.82-1.25.63s-.14-.78.29-1.32,1-.82,1.25-.63S30.39,2.94,30,3.48Z" style="fill: #f7941e;mix-blend-mode: screen"/>
            <path d="M28.77,26.63c-1.9,4.33-4.72,7.33-6.29,6.7s-1.31-4.65.59-9,4.72-7.33,6.29-6.7S30.67,22.3,28.77,26.63Z" style="fill: #f7941e;mix-blend-mode: screen"/>
          </g>
          <g>
            <g>
              <g>
                <path d="M11.18,27.53c0-.12,0-.24,0-.36,0-.65.9-1.16,1.45-1.32a5.52,5.52,0,0,1,.63-.14,10.36,10.36,0,0,1,1.4-.18,11.89,11.89,0,0,1,1.37.11,1.77,1.77,0,0,1,.63.14.91.91,0,0,1,.49,1,1.32,1.32,0,0,1-.78.79,9.33,9.33,0,0,1-1.12.35c-.45.14-.87.34-1.31.5a3.56,3.56,0,0,1-1.37.27,1.65,1.65,0,0,1-1.23-.56.65.65,0,0,1-.16-.37C11.16,27.69,11.18,27.61,11.18,27.53Z" style="fill: #ef4136"/>
                <path d="M11.18,27.53c0-.12,0-.24,0-.36,0-.65.9-1.16,1.45-1.32a5.52,5.52,0,0,1,.63-.14,10.36,10.36,0,0,1,1.4-.18,11.89,11.89,0,0,1,1.37.11,1.77,1.77,0,0,1,.63.14.91.91,0,0,1,.49,1,1.32,1.32,0,0,1-.78.79,9.33,9.33,0,0,1-1.12.35c-.45.14-.87.34-1.31.5a3.56,3.56,0,0,1-1.37.27,1.65,1.65,0,0,1-1.23-.56.65.65,0,0,1-.16-.37C11.16,27.69,11.18,27.61,11.18,27.53Z" style="fill: #ef4136;mix-blend-mode: multiply"/>
                <path d="M17.14,26.52a.8.8,0,0,1,0,.26,1.32,1.32,0,0,1-.77.79,9.34,9.34,0,0,1-1.12.35c-.45.14-.87.34-1.31.5a3.55,3.55,0,0,1-1.37.27,1.65,1.65,0,0,1-1.23-.56.65.65,0,0,1-.16-.37.62.62,0,0,1,0-.09c0-.05,0-.1,0-.15s0-.24,0-.36c0-.65.9-1.16,1.45-1.32a5.43,5.43,0,0,1,.63-.14,10.39,10.39,0,0,1,1.4-.18,11.87,11.87,0,0,1,1.37.11,1.76,1.76,0,0,1,.63.14A.92.92,0,0,1,17.14,26.52Z" style="fill: #ef4136;mix-blend-mode: multiply"/>
                <path d="M17.14,26.52a.8.8,0,0,1,0,.26,1.32,1.32,0,0,1-.77.79,9.34,9.34,0,0,1-1.12.35c-.45.14-.87.34-1.31.5a3.55,3.55,0,0,1-1.37.27,1.65,1.65,0,0,1-1.23-.56.65.65,0,0,1-.16-.37.62.62,0,0,1,0-.09c0-.05,0-.1,0-.15s0-.24,0-.36c0-.65.9-1.16,1.45-1.32a5.43,5.43,0,0,1,.63-.14,10.39,10.39,0,0,1,1.4-.18,11.87,11.87,0,0,1,1.37.11,1.76,1.76,0,0,1,.63.14A.92.92,0,0,1,17.14,26.52Z" style="fill: #ef4136;mix-blend-mode: multiply"/>
                <path d="M17.14,26.52a.8.8,0,0,1,0,.26,1.32,1.32,0,0,1-.77.79,9.34,9.34,0,0,1-1.12.35c-.45.14-.87.34-1.31.5a3.55,3.55,0,0,1-1.37.27,1.65,1.65,0,0,1-1.23-.56.65.65,0,0,1-.16-.37.62.62,0,0,1,0-.09c0-.05,0-.1,0-.15s0-.24,0-.36c0-.65.9-1.16,1.45-1.32a5.43,5.43,0,0,1,.63-.14,10.39,10.39,0,0,1,1.4-.18,11.87,11.87,0,0,1,1.37.11,1.76,1.76,0,0,1,.63.14A.92.92,0,0,1,17.14,26.52Z" style="fill: #ef4136;mix-blend-mode: multiply"/>
                <path d="M17.14,26.52a.8.8,0,0,1,0,.26,1.32,1.32,0,0,1-.77.79,9.34,9.34,0,0,1-1.12.35c-.45.14-.87.34-1.31.5a3.55,3.55,0,0,1-1.37.27,1.65,1.65,0,0,1-1.23-.56.65.65,0,0,1-.16-.37.62.62,0,0,1,0-.09c0-.05,0-.1,0-.15s0-.24,0-.36c0-.65.9-1.16,1.45-1.32a5.43,5.43,0,0,1,.63-.14,10.39,10.39,0,0,1,1.4-.18,11.87,11.87,0,0,1,1.37.11,1.76,1.76,0,0,1,.63.14A.92.92,0,0,1,17.14,26.52Z" style="fill: #ef4136;mix-blend-mode: multiply"/>
                <path d="M17.14,26.52a.8.8,0,0,1,0,.26,1.32,1.32,0,0,1-.77.79,9.34,9.34,0,0,1-1.12.35c-.45.14-.87.34-1.31.5a3.55,3.55,0,0,1-1.37.27,1.65,1.65,0,0,1-1.23-.56.65.65,0,0,1-.16-.37.62.62,0,0,1,0-.09c0-.05,0-.1,0-.15s0-.24,0-.36c0-.65.9-1.16,1.45-1.32a5.43,5.43,0,0,1,.63-.14,10.39,10.39,0,0,1,1.4-.18,11.87,11.87,0,0,1,1.37.11,1.76,1.76,0,0,1,.63.14A.92.92,0,0,1,17.14,26.52Z" style="fill: #ef4136;mix-blend-mode: multiply"/>
                <path d="M17.14,26.52a.8.8,0,0,1,0,.26,1.32,1.32,0,0,1-.77.79,9.34,9.34,0,0,1-1.12.35c-.45.14-.87.34-1.31.5a3.55,3.55,0,0,1-1.37.27,1.65,1.65,0,0,1-1.23-.56.65.65,0,0,1-.16-.37.62.62,0,0,1,0-.09c0-.05,0-.1,0-.15s0-.24,0-.36c0-.65.9-1.16,1.45-1.32a5.43,5.43,0,0,1,.63-.14,10.39,10.39,0,0,1,1.4-.18,11.87,11.87,0,0,1,1.37.11,1.76,1.76,0,0,1,.63.14A.92.92,0,0,1,17.14,26.52Z" style="fill: #ef4136;mix-blend-mode: multiply"/>
                <path d="M17.14,26.52a.8.8,0,0,1,0,.26,1.32,1.32,0,0,1-.77.79,9.34,9.34,0,0,1-1.12.35c-.45.14-.87.34-1.31.5a3.55,3.55,0,0,1-1.37.27,1.13,1.13,0,0,1-.72-.29c-.11-.1-.28-.24-.3-.39a.47.47,0,0,1,.17-.39,4.81,4.81,0,0,0,.43-.36.53.53,0,0,1,.14-.15.72.72,0,0,1,.28,0c.29,0,.49-.29.78-.26a2.6,2.6,0,0,0,1-.15,1,1,0,0,1,.56-.07,6.81,6.81,0,0,1-1.46.54,3.42,3.42,0,0,0-.83.6c-.05,0-.1.13,0,.16a2,2,0,0,1,1.66-.62,2.32,2.32,0,0,0,.6,0,2.11,2.11,0,0,0,.62-.29,2.28,2.28,0,0,1,.82-.25c0,.12-.15.18-.26.23l-.74.31a1.85,1.85,0,0,1-.49.15c-.33,0-.7-.09-1,.09,0,.09.12.13.21.15a2.5,2.5,0,0,0,1.85-.44,2.07,2.07,0,0,1,.69-.43l.25-.05A.69.69,0,0,0,17.14,26.52Z" style="fill: #ef4136;opacity: 0.30000000000000004;mix-blend-mode: screen"/>
                <path d="M11.35,27.46a.47.47,0,0,1,0-.26.42.42,0,0,1,.11-.11,1.48,1.48,0,0,1,.36-.19.67.67,0,0,1,.26,0h0s0,.08,0,.11a2.29,2.29,0,0,0-.31.28c-.05.07-.08.15-.13.23a.32.32,0,0,1-.21.16h-.08C11.36,27.6,11.35,27.52,11.35,27.46Z" style="fill: #ef4136;opacity: 0.5;mix-blend-mode: screen"/>
                <path d="M15.38,26.65l.26-.14a.12.12,0,0,0,.06-.06.12.12,0,0,0,0-.09l-.14-.24,0,0a.06.06,0,0,0-.06,0,.19.19,0,0,0,0,.06c0,.07-.08.14-.12.21a.35.35,0,0,0-.05.23.09.09,0,0,0,.06.08A.13.13,0,0,0,15.38,26.65Z" style="fill: #ef4136;opacity: 0.5;mix-blend-mode: screen"/>
                <path d="M16,26.7a.14.14,0,0,0,.15.06l.17,0c.13,0,.25.09.38.08a.28.28,0,0,0,.23-.24.53.53,0,0,0-.09-.34.54.54,0,0,0-.19-.2c-.33-.19-.6.35-.66.58A.15.15,0,0,0,16,26.7Z" style="fill: #ef4136;opacity: 0.5;mix-blend-mode: screen"/>
                <path d="M15.9,26.92s-.06.06-.1.08l-.09.05a.56.56,0,0,1-.18.05l-.17,0h-.14l-.09,0L15,27a.16.16,0,0,1,.15-.09.69.69,0,0,0,.19,0c.08,0,.13-.1.21-.11a.88.88,0,0,1,.16,0h.11S15.9,26.88,15.9,26.92Z" style="fill: #ef4136;opacity: 0.5;mix-blend-mode: screen"/>
                <path d="M14.82,25.88c0,.11,0,.24-.09.29a.29.29,0,0,1-.23-.05,1.7,1.7,0,0,0-.2-.13.76.76,0,0,0-.32,0h-.12c-.06,0-.25.16-.29,0s.1-.13.14-.16a1.28,1.28,0,0,1,.45-.09,3.2,3.2,0,0,1,.46,0,.22.22,0,0,1,.17.06A.18.18,0,0,1,14.82,25.88Z" style="fill: #ef4136;opacity: 0.5;mix-blend-mode: screen"/>
                <path d="M12.46,26.84a.28.28,0,0,1,.19-.14,1.15,1.15,0,0,0,.14,0,.07.07,0,0,1,.05.08.14.14,0,0,1-.05.09.3.3,0,0,1-.26.06C12.46,26.91,12.44,26.87,12.46,26.84Z" style="fill: #ef4136;opacity: 0.5;mix-blend-mode: screen"/>
              </g>
              <g>
                <path d="M16.86,24.95c.07-.1.11-.21.18-.31.36-.56,1.42-.48,2-.32a5.46,5.46,0,0,1,.6.22,10.11,10.11,0,0,1,1.27.6A11.26,11.26,0,0,1,22,26a1.65,1.65,0,0,1,.45.45.89.89,0,0,1-.19,1.1,1.41,1.41,0,0,1-1.11.24A9.36,9.36,0,0,1,20,27.44c-.45-.12-.92-.19-1.38-.29a3.51,3.51,0,0,1-1.29-.51,1.53,1.53,0,0,1-.69-1.12.65.65,0,0,1,.09-.39C16.75,25.07,16.81,25,16.86,24.95Z" style="fill: #ef4136"/>
                <path d="M16.86,24.95c.07-.1.11-.21.18-.31.36-.56,1.42-.48,2-.32a5.46,5.46,0,0,1,.6.22,10.11,10.11,0,0,1,1.27.6A11.26,11.26,0,0,1,22,26a1.65,1.65,0,0,1,.45.45.89.89,0,0,1-.19,1.1,1.41,1.41,0,0,1-1.11.24A9.36,9.36,0,0,1,20,27.44c-.45-.12-.92-.19-1.38-.29a3.51,3.51,0,0,1-1.29-.51,1.53,1.53,0,0,1-.69-1.12.65.65,0,0,1,.09-.39C16.75,25.07,16.81,25,16.86,24.95Z" style="fill: #ef4136;mix-blend-mode: multiply"/>
                <path d="M22.39,27.3a.85.85,0,0,1-.17.21,1.41,1.41,0,0,1-1.11.24A9.37,9.37,0,0,1,20,27.44c-.45-.13-.92-.19-1.38-.29a3.5,3.5,0,0,1-1.29-.51,1.53,1.53,0,0,1-.69-1.12.64.64,0,0,1,.09-.39l.05-.07.1-.12c.07-.1.11-.21.18-.32.36-.56,1.42-.48,2-.32a5.39,5.39,0,0,1,.6.22,10.14,10.14,0,0,1,1.27.6A11.24,11.24,0,0,1,22,26a1.65,1.65,0,0,1,.45.45A.89.89,0,0,1,22.39,27.3Z" style="fill: #ef4136;mix-blend-mode: multiply"/>
                <path d="M22.39,27.3a.85.85,0,0,1-.17.21,1.41,1.41,0,0,1-1.11.24A9.37,9.37,0,0,1,20,27.44c-.45-.13-.92-.19-1.38-.29a3.5,3.5,0,0,1-1.29-.51,1.53,1.53,0,0,1-.69-1.12.64.64,0,0,1,.09-.39l.05-.07.1-.12c.07-.1.11-.21.18-.32.36-.56,1.42-.48,2-.32a5.39,5.39,0,0,1,.6.22,10.14,10.14,0,0,1,1.27.6A11.24,11.24,0,0,1,22,26a1.65,1.65,0,0,1,.45.45A.89.89,0,0,1,22.39,27.3Z" style="fill: #ef4136;mix-blend-mode: multiply"/>
                <path d="M22.39,27.3a.85.85,0,0,1-.17.21,1.41,1.41,0,0,1-1.11.24A9.37,9.37,0,0,1,20,27.44c-.45-.13-.92-.19-1.38-.29a3.5,3.5,0,0,1-1.29-.51,1.53,1.53,0,0,1-.69-1.12.64.64,0,0,1,.09-.39l.05-.07.1-.12c.07-.1.11-.21.18-.32.36-.56,1.42-.48,2-.32a5.39,5.39,0,0,1,.6.22,10.14,10.14,0,0,1,1.27.6A11.24,11.24,0,0,1,22,26a1.65,1.65,0,0,1,.45.45A.89.89,0,0,1,22.39,27.3Z" style="fill: #ef4136;mix-blend-mode: multiply"/>
                <path d="M22.39,27.3a.85.85,0,0,1-.17.21,1.41,1.41,0,0,1-1.11.24A9.37,9.37,0,0,1,20,27.44c-.45-.13-.92-.19-1.38-.29a3.5,3.5,0,0,1-1.29-.51,1.53,1.53,0,0,1-.69-1.12.64.64,0,0,1,.09-.39l.05-.07.1-.12c.07-.1.11-.21.18-.32.36-.56,1.42-.48,2-.32a5.39,5.39,0,0,1,.6.22,10.14,10.14,0,0,1,1.27.6A11.24,11.24,0,0,1,22,26a1.65,1.65,0,0,1,.45.45A.89.89,0,0,1,22.39,27.3Z" style="fill: #ef4136;mix-blend-mode: multiply"/>
                <path d="M22.39,27.3a.85.85,0,0,1-.17.21,1.41,1.41,0,0,1-1.11.24A9.37,9.37,0,0,1,20,27.44c-.45-.13-.92-.19-1.38-.29a3.5,3.5,0,0,1-1.29-.51,1.53,1.53,0,0,1-.69-1.12.64.64,0,0,1,.09-.39l.05-.07.1-.12c.07-.1.11-.21.18-.32.36-.56,1.42-.48,2-.32a5.39,5.39,0,0,1,.6.22,10.14,10.14,0,0,1,1.27.6A11.24,11.24,0,0,1,22,26a1.65,1.65,0,0,1,.45.45A.89.89,0,0,1,22.39,27.3Z" style="fill: #ef4136;mix-blend-mode: multiply"/>
                <path d="M22.39,27.3a.85.85,0,0,1-.17.21,1.41,1.41,0,0,1-1.11.24A9.37,9.37,0,0,1,20,27.44c-.45-.13-.92-.19-1.38-.29a3.5,3.5,0,0,1-1.29-.51,1.53,1.53,0,0,1-.69-1.12.64.64,0,0,1,.09-.39l.05-.07.1-.12c.07-.1.11-.21.18-.32.36-.56,1.42-.48,2-.32a5.39,5.39,0,0,1,.6.22,10.14,10.14,0,0,1,1.27.6A11.24,11.24,0,0,1,22,26a1.65,1.65,0,0,1,.45.45A.89.89,0,0,1,22.39,27.3Z" style="fill: #ef4136;mix-blend-mode: multiply"/>
                <path d="M22.39,27.3a.85.85,0,0,1-.17.21,1.41,1.41,0,0,1-1.11.24A9.37,9.37,0,0,1,20,27.44c-.45-.13-.92-.19-1.38-.29a3.5,3.5,0,0,1-1.29-.51,1,1,0,0,1-.43-.62.79.79,0,0,1,0-.48.51.51,0,0,1,.37-.23,5.09,5.09,0,0,0,.57-.07.57.57,0,0,1,.21,0,.7.7,0,0,1,.25.13c.25.13.58,0,.8.2a2.54,2.54,0,0,0,.91.41.93.93,0,0,1,.5.24,6.89,6.89,0,0,1-1.52-.33,3.6,3.6,0,0,0-1,.05c-.07,0-.16.06-.13.12a2.06,2.06,0,0,1,1.74.38,2.2,2.2,0,0,0,.47.35,2.16,2.16,0,0,0,.69.1,2.28,2.28,0,0,1,.83.23.4.4,0,0,1-.35,0l-.8-.14a1.86,1.86,0,0,1-.5-.13c-.29-.14-.53-.45-.86-.44,0,.08,0,.17.09.23a2.48,2.48,0,0,0,1.79.63,2.16,2.16,0,0,1,.83,0c.08,0,.16.07.24.09A.73.73,0,0,0,22.39,27.3Z" style="fill: #ef4136;opacity: 0.30000000000000004;mix-blend-mode: screen"/>
                <path d="M17,25a.5.5,0,0,1,.19-.19.45.45,0,0,1,.16,0,1.53,1.53,0,0,1,.41,0,.66.66,0,0,1,.24.1.08.08,0,0,1,0,0S18,25,18,25a2.45,2.45,0,0,0-.42.06c-.09,0-.16.08-.24.12a.34.34,0,0,1-.26,0,.13.13,0,0,1-.06,0C17,25.1,17,25,17,25Z" style="fill: #ef4136;opacity: 0.5;mix-blend-mode: screen"/>
                <path d="M20.85,26.47l.3,0a.13.13,0,0,0,.09,0,.12.12,0,0,0,0-.09l0-.27a.07.07,0,0,0,0,0,.06.06,0,0,0-.06,0l-.06,0-.22.11a.37.37,0,0,0-.18.16.09.09,0,0,0,0,.1A.13.13,0,0,0,20.85,26.47Z" style="fill: #ef4136;opacity: 0.5;mix-blend-mode: screen"/>
                <path d="M21.3,26.82c0,.05,0,.11.09.13l.16.06c.11.06.15.21.26.27a.29.29,0,0,0,.33-.07.54.54,0,0,0,.12-.32.51.51,0,0,0,0-.27c-.16-.33-.7,0-.88.13A.16.16,0,0,0,21.3,26.82Z" style="fill: #ef4136;opacity: 0.5;mix-blend-mode: screen"/>
                <path d="M21.12,27S21,27,21,27h-.1a.56.56,0,0,1-.18-.05l-.15-.07a.42.42,0,0,1-.12-.07l-.06-.08-.07-.14a.16.16,0,0,1,.18,0,.67.67,0,0,0,.16.09c.08,0,.17,0,.24,0s.08.07.12.1l.09.06A.07.07,0,0,1,21.12,27Z" style="fill: #ef4136;opacity: 0.5;mix-blend-mode: screen"/>
                <path d="M20.84,25.54c0,.1-.14.21-.25.19a.27.27,0,0,1-.16-.17,1.58,1.58,0,0,0-.09-.22.71.71,0,0,0-.24-.21l-.1-.05c-.06,0-.3,0-.26-.12s.16-.06.21-.05a1.26,1.26,0,0,1,.42.17,3.06,3.06,0,0,1,.38.25s.1.08.1.14A.18.18,0,0,1,20.84,25.54Z" style="fill: #ef4136;opacity: 0.5;mix-blend-mode: screen"/>
                <path d="M18.32,25.06a.29.29,0,0,1,.24,0,1.09,1.09,0,0,0,.12.08.07.07,0,0,1,0,.09.15.15,0,0,1-.1,0,.3.3,0,0,1-.25-.09S18.29,25.08,18.32,25.06Z" style="fill: #ef4136;opacity: 0.5;mix-blend-mode: screen"/>
              </g>
              <g>
                <path d="M8.49,28.62A2.92,2.92,0,0,0,8,29a2.27,2.27,0,0,0-.64.95A1.27,1.27,0,0,0,7.47,31a1.49,1.49,0,0,0,.86.55,1.4,1.4,0,0,0,.63,0,3.73,3.73,0,0,0,1.16-.71,5.58,5.58,0,0,1,1.29-.5,2.56,2.56,0,0,0,1.19-.67,1.93,1.93,0,0,0,.38-.79,1.58,1.58,0,0,0,.05-.63,1.32,1.32,0,0,0-1-1,2.05,2.05,0,0,0-1.46.19c-.31.16-.58.38-.89.55S8.87,28.39,8.49,28.62Z" style="fill: #ef4136"/>
                <path d="M8.49,28.62A2.92,2.92,0,0,0,8,29a2.27,2.27,0,0,0-.64.95A1.27,1.27,0,0,0,7.47,31a1.49,1.49,0,0,0,.86.55,1.4,1.4,0,0,0,.63,0,3.73,3.73,0,0,0,1.16-.71,5.58,5.58,0,0,1,1.29-.5,2.56,2.56,0,0,0,1.19-.67,1.93,1.93,0,0,0,.38-.79,1.58,1.58,0,0,0,.05-.63,1.32,1.32,0,0,0-1-1,2.05,2.05,0,0,0-1.46.19c-.31.16-.58.38-.89.55S8.87,28.39,8.49,28.62Z" style="fill: #ef4136;mix-blend-mode: multiply"/>
                <path d="M8.49,28.62A2.92,2.92,0,0,0,8,29a2.27,2.27,0,0,0-.64.95A1.27,1.27,0,0,0,7.47,31a1.49,1.49,0,0,0,.86.55,1.4,1.4,0,0,0,.63,0,3.73,3.73,0,0,0,1.16-.71,5.58,5.58,0,0,1,1.29-.5,2.56,2.56,0,0,0,1.19-.67,1.93,1.93,0,0,0,.38-.79,1.58,1.58,0,0,0,.05-.63,1.32,1.32,0,0,0-1-1,2.05,2.05,0,0,0-1.46.19c-.31.16-.58.38-.89.55S8.87,28.39,8.49,28.62Z" style="fill: #ef4136;mix-blend-mode: multiply"/>
                <path d="M8.49,28.62A2.92,2.92,0,0,0,8,29a2.27,2.27,0,0,0-.64.95A1.27,1.27,0,0,0,7.47,31a1.49,1.49,0,0,0,.86.55,1.4,1.4,0,0,0,.63,0,3.73,3.73,0,0,0,1.16-.71,5.58,5.58,0,0,1,1.29-.5,2.56,2.56,0,0,0,1.19-.67,1.93,1.93,0,0,0,.38-.79,1.58,1.58,0,0,0,.05-.63,1.32,1.32,0,0,0-1-1,2.05,2.05,0,0,0-1.46.19c-.31.16-.58.38-.89.55S8.87,28.39,8.49,28.62Z" style="fill: #ef4136;mix-blend-mode: multiply"/>
                <path d="M8.49,28.62A2.92,2.92,0,0,0,8,29a2.27,2.27,0,0,0-.64.95A1.27,1.27,0,0,0,7.47,31a1.49,1.49,0,0,0,.86.55,1.4,1.4,0,0,0,.63,0,3.73,3.73,0,0,0,1.16-.71,5.58,5.58,0,0,1,1.29-.5,2.56,2.56,0,0,0,1.19-.67,1.93,1.93,0,0,0,.38-.79,1.58,1.58,0,0,0,.05-.63,1.32,1.32,0,0,0-1-1,2.05,2.05,0,0,0-1.46.19c-.31.16-.58.38-.89.55S8.87,28.39,8.49,28.62Z" style="fill: #ef4136;mix-blend-mode: multiply"/>
                <path d="M8.49,28.62A2.92,2.92,0,0,0,8,29a2.27,2.27,0,0,0-.64.95A1.27,1.27,0,0,0,7.47,31a1.49,1.49,0,0,0,.86.55,1.4,1.4,0,0,0,.63,0,3.73,3.73,0,0,0,1.16-.71,5.58,5.58,0,0,1,1.29-.5,2.56,2.56,0,0,0,1.19-.67,1.93,1.93,0,0,0,.38-.79,1.58,1.58,0,0,0,.05-.63,1.32,1.32,0,0,0-1-1,2.05,2.05,0,0,0-1.46.19c-.31.16-.58.38-.89.55S8.87,28.39,8.49,28.62Z" style="fill: #ef4136;mix-blend-mode: multiply"/>
                <path d="M7.89,29.42a1.16,1.16,0,0,0-.19.29.53.53,0,0,0,.36-.19,2.88,2.88,0,0,1,.54-.38A1.73,1.73,0,0,0,9,28.91c.11-.1.18-.24.3-.34s.41-.19.47-.39l-.91.42a2.79,2.79,0,0,0-.31.16A2.68,2.68,0,0,0,7.89,29.42Z" style="fill: #ef4136;opacity: 0.5;mix-blend-mode: screen"/>
                <path d="M9.43,29.61l0,0a.31.31,0,0,0,.24-.11,2.28,2.28,0,0,0,.35-.39.87.87,0,0,0,.16-.49c0-.12-.07-.27-.2-.29H9.91a.84.84,0,0,0-.48.34.14.14,0,0,0,0,.07c0,.08.12.11.19.16a.26.26,0,0,1,0,.32,2,2,0,0,0-.18.31A.05.05,0,0,0,9.43,29.61Z" style="fill: #ef4136;opacity: 0.5;mix-blend-mode: screen"/>
                <path d="M10.8,29.66a.12.12,0,0,1,0,.07s-.1,0-.15,0a.31.31,0,0,0-.26.06c-.07.05-.13.12-.2.18a.87.87,0,0,1-.55.21.66.66,0,0,0-.2,0,.14.14,0,0,0-.1.15.19.19,0,0,0,0,.07l.14.15,0,0a.11.11,0,0,0,.12,0,1,1,0,0,0,.07-.11.66.66,0,0,1,.42-.2,1.83,1.83,0,0,0,.64-.28,1.06,1.06,0,0,0,.41-.54c.05,0,.06.09.1.13a.15.15,0,0,0,.19,0,.41.41,0,0,0,.11-.17l.11-.25a.89.89,0,0,0,.08-.25.3.3,0,0,0-.07-.25.34.34,0,0,0-.44,0,.91.91,0,0,0-.24.4Z" style="fill: #ef4136;opacity: 0.5;mix-blend-mode: screen"/>
                <path d="M9.46,30.72c-.08,0-.16-.07-.24-.1a.41.41,0,0,0-.26,0,.18.18,0,0,0-.14.18c0,.09.12.14.21.17a1.16,1.16,0,0,0,.84-.09c.14-.08.27-.18.41-.26.31-.17.7-.17,1-.32a.64.64,0,0,0,.21-.14,1.27,1.27,0,0,0,.12-.17,1.18,1.18,0,0,1,.23-.25.09.09,0,0,1,.06,0c.05,0,0,.08,0,.13l-.11.23a.83.83,0,0,0,.65-.79.31.31,0,0,0-.11-.26.27.27,0,0,0-.25,0,.52.52,0,0,0-.2.17c-.12.16-.2.35-.31.51a1.46,1.46,0,0,1-.64.53,4.58,4.58,0,0,0-.87.33c-.07,0-.13.1-.2.15A.57.57,0,0,1,9.46,30.72Z" style="fill: #ef4136;opacity: 0.5;mix-blend-mode: screen"/>
                <path d="M10.77,29a.15.15,0,0,0-.09,0c-.13.08-.18.28-.21.41a0,0,0,0,0,0,0h0a.13.13,0,0,0,.12,0,.17.17,0,0,0,.07-.05.65.65,0,0,0,.19-.29C10.87,29.11,10.83,29,10.77,29Z" style="fill: #ef4136;opacity: 0.5;mix-blend-mode: screen"/>
                <path d="M11.9,28.66s0,.08,0,.11a.07.07,0,0,0,.07,0l.05-.05a3.42,3.42,0,0,0,.27-.43.22.22,0,0,0,0-.2.22.22,0,0,0-.11-.09l-.09,0A.29.29,0,0,0,12,28a.35.35,0,0,0-.18.2C11.76,28.38,11.92,28.52,11.9,28.66Z" style="fill: #ef4136;opacity: 0.5;mix-blend-mode: screen"/>
                <path d="M10.79,28.54a.11.11,0,0,0,.11,0,.29.29,0,0,0,.07-.09l0-.06a.11.11,0,0,0,0-.06s-.06-.07-.1-.06a.22.22,0,0,0-.11.08.25.25,0,0,0-.06.11A.1.1,0,0,0,10.79,28.54Z" style="fill: #ef4136;opacity: 0.5;mix-blend-mode: screen"/>
              </g>
              <g>
                <path d="M23.89,29.23a2.9,2.9,0,0,0-.65.28,7.36,7.36,0,0,0-1.29.89,2.72,2.72,0,0,0-.69.82,1.17,1.17,0,0,0,0,1,1.43,1.43,0,0,0,.51.53,1,1,0,0,0,.32.16,1.3,1.3,0,0,0,.53,0c.7-.12,1.39-.26,2.08-.4a3.3,3.3,0,0,0,.64-.17,2.06,2.06,0,0,0,.52-.33,2,2,0,0,0,.74-1.26A1.35,1.35,0,0,0,26,29.45a2.27,2.27,0,0,0-1.07-.27A3.18,3.18,0,0,0,23.89,29.23Z" style="fill: #ef4136"/>
                <path d="M23.89,29.23a2.9,2.9,0,0,0-.65.28,7.36,7.36,0,0,0-1.29.89,2.72,2.72,0,0,0-.69.82,1.17,1.17,0,0,0,0,1,1.43,1.43,0,0,0,.51.53,1,1,0,0,0,.32.16,1.3,1.3,0,0,0,.53,0c.7-.12,1.39-.26,2.08-.4a3.3,3.3,0,0,0,.64-.17,2.06,2.06,0,0,0,.52-.33,2,2,0,0,0,.74-1.26A1.35,1.35,0,0,0,26,29.45a2.27,2.27,0,0,0-1.07-.27A3.18,3.18,0,0,0,23.89,29.23Z" style="fill: #ef4136;mix-blend-mode: multiply"/>
                <path d="M23.89,29.23a2.9,2.9,0,0,0-.65.28,7.36,7.36,0,0,0-1.29.89,2.72,2.72,0,0,0-.69.82,1.17,1.17,0,0,0,0,1,1.43,1.43,0,0,0,.51.53,1,1,0,0,0,.32.16,1.3,1.3,0,0,0,.53,0c.7-.12,1.39-.26,2.08-.4a3.3,3.3,0,0,0,.64-.17,2.06,2.06,0,0,0,.52-.33,2,2,0,0,0,.74-1.26A1.35,1.35,0,0,0,26,29.45a2.27,2.27,0,0,0-1.07-.27A3.18,3.18,0,0,0,23.89,29.23Z" style="fill: #ef4136;mix-blend-mode: multiply"/>
                <path d="M23.89,29.23a2.9,2.9,0,0,0-.65.28,7.36,7.36,0,0,0-1.29.89,2.72,2.72,0,0,0-.69.82,1.17,1.17,0,0,0,0,1,1.43,1.43,0,0,0,.51.53,1,1,0,0,0,.32.16,1.3,1.3,0,0,0,.53,0c.7-.12,1.39-.26,2.08-.4a3.3,3.3,0,0,0,.64-.17,2.06,2.06,0,0,0,.52-.33,2,2,0,0,0,.74-1.26A1.35,1.35,0,0,0,26,29.45a2.27,2.27,0,0,0-1.07-.27A3.18,3.18,0,0,0,23.89,29.23Z" style="fill: #ef4136;mix-blend-mode: multiply"/>
                <path d="M23.89,29.23a2.9,2.9,0,0,0-.65.28,7.36,7.36,0,0,0-1.29.89,2.72,2.72,0,0,0-.69.82,1.17,1.17,0,0,0,0,1,1.43,1.43,0,0,0,.51.53,1,1,0,0,0,.32.16,1.3,1.3,0,0,0,.53,0c.7-.12,1.39-.26,2.08-.4a3.3,3.3,0,0,0,.64-.17,2.06,2.06,0,0,0,.52-.33,2,2,0,0,0,.74-1.26A1.35,1.35,0,0,0,26,29.45a2.27,2.27,0,0,0-1.07-.27A3.18,3.18,0,0,0,23.89,29.23Z" style="fill: #ef4136;mix-blend-mode: multiply"/>
                <path d="M23.89,29.23a2.9,2.9,0,0,0-.65.28,7.36,7.36,0,0,0-1.29.89,2.72,2.72,0,0,0-.69.82,1.17,1.17,0,0,0,0,1,1.43,1.43,0,0,0,.51.53,1,1,0,0,0,.32.16,1.3,1.3,0,0,0,.53,0c.7-.12,1.39-.26,2.08-.4a3.3,3.3,0,0,0,.64-.17,2.06,2.06,0,0,0,.52-.33,2,2,0,0,0,.74-1.26A1.35,1.35,0,0,0,26,29.45a2.27,2.27,0,0,0-1.07-.27A3.18,3.18,0,0,0,23.89,29.23Z" style="fill: #ef4136;mix-blend-mode: multiply"/>
                <path d="M23.89,29.23a2.9,2.9,0,0,0-.65.28,7.36,7.36,0,0,0-1.29.89,2.72,2.72,0,0,0-.69.82,1.17,1.17,0,0,0,0,1,1.43,1.43,0,0,0,.51.53,1,1,0,0,0,.32.16,1.3,1.3,0,0,0,.53,0c.7-.12,1.39-.26,2.08-.4a3.3,3.3,0,0,0,.64-.17,2.06,2.06,0,0,0,.52-.33,2,2,0,0,0,.74-1.26A1.35,1.35,0,0,0,26,29.45a2.27,2.27,0,0,0-1.07-.27A3.18,3.18,0,0,0,23.89,29.23Z" style="fill: #ef4136;mix-blend-mode: multiply"/>
                <path d="M22.76,31.6c0,.1-.14.17-.16.28a.2.2,0,0,0,.1.19.38.38,0,0,0,.23,0,.42.42,0,0,1,.15,0s.09.07.07.11-.1,0-.16,0a.37.37,0,0,0-.27.13c.06,0,.15,0,.22,0,.29-.07.61,0,.89-.1a1.16,1.16,0,0,0,.41-.27.73.73,0,0,0,.24-.38.31.31,0,0,0-.2-.36.38.38,0,0,0-.35.13.3.3,0,0,1,.09.25.17.17,0,0,1-.22.12.49.49,0,0,1,0-.18.16.16,0,0,0,0-.17.15.15,0,0,0-.17,0,.51.51,0,0,0-.12.13.59.59,0,0,1-.48.28c-.08,0-.16,0-.16-.12a.16.16,0,0,1,0-.08.51.51,0,0,1,.29-.24c.15-.05.34,0,.43-.17a.18.18,0,0,0-.13-.05,1.8,1.8,0,0,0-.47,0,.59.59,0,0,0-.4.21A.17.17,0,0,1,22.76,31.6Z" style="fill: #ef4136;opacity: 0.5;mix-blend-mode: screen"/>
                <path d="M23.94,31.22a.2.2,0,0,0,.15-.09s.05-.06,0-.1S24.05,31,24,31a.32.32,0,0,0-.26.09.24.24,0,0,0,.12.12Z" style="fill: #ef4136;opacity: 0.5;mix-blend-mode: screen"/>
                <path d="M24.25,29.92a2.06,2.06,0,0,0-.33,0c-.12,0-.21.11-.33.15s-.36,0-.47.16-.05.34,0,.5a.17.17,0,0,0,.07.09c.07,0,.15,0,.2-.08a1.74,1.74,0,0,1,.28-.3,1.33,1.33,0,0,1,.27-.13,3.56,3.56,0,0,0,.62-.32.51.51,0,0,0,.27-.33A1.71,1.71,0,0,1,24.25,29.92Z" style="fill: #ef4136;opacity: 0.5;mix-blend-mode: screen"/>
                <path d="M23.52,29.88c-.33,0-.63.31-1,.23a1,1,0,0,1,.31-.26,4.39,4.39,0,0,1,.58-.33,2.66,2.66,0,0,1,1.13-.21,1.05,1.05,0,0,1-.43.2c-.18,0-.39,0-.5.18l.32.05a.22.22,0,0,1-.19.14C23.68,29.89,23.6,29.88,23.52,29.88Z" style="fill: #ef4136;opacity: 0.5;mix-blend-mode: screen"/>
                <path d="M22.83,30.28a.42.42,0,0,1-.32.09.6.6,0,0,0-.33,0c-.16.1-.17.33-.32.44a1.43,1.43,0,0,1-.18.09.19.19,0,0,0-.12.14.15.15,0,0,0,.1.14.28.28,0,0,0,.18,0,.42.42,0,0,0,.21-.13s.07-.08.12-.09.1,0,.15.08a.36.36,0,0,0,.34,0,.63.63,0,0,0,.23-.18.14.14,0,0,0,0-.09c0-.1-.17-.12-.19-.21s0-.12.08-.17S22.88,30.32,22.83,30.28Z" style="fill: #ef4136;opacity: 0.5;mix-blend-mode: screen"/>
                <path d="M22.41,32.33h0a.06.06,0,0,0,.05-.06.16.16,0,0,0,0-.08l-.07-.11a.19.19,0,0,1,0-.25s.06-.16,0-.19-.22.15-.24.2a.29.29,0,0,0,0,.29A.5.5,0,0,0,22.41,32.33Z" style="fill: #ef4136;opacity: 0.5;mix-blend-mode: screen"/>
                <path d="M25.72,29.52s0,.11.05.14l.14.13,0,0A.35.35,0,0,1,26,30c0,.07,0,.13,0,.2a1.12,1.12,0,0,1,0,.3.07.07,0,0,0,0,0s.08,0,.11,0a.92.92,0,0,0,.22-.22.19.19,0,0,0,0-.08.2.2,0,0,0,0-.06,2.35,2.35,0,0,0-.07-.27.91.91,0,0,0,0-.12.61.61,0,0,0-.37-.31S25.75,29.48,25.72,29.52Z" style="fill: #ef4136;opacity: 0.5;mix-blend-mode: screen"/>
                <path d="M25.33,29.76a.39.39,0,0,0,.15.07l.08,0s.07.06.11,0a.07.07,0,0,0,0-.06c0-.08-.05-.15-.12-.19l-.17-.06h0l0,0-.06.07,0,0S25.31,29.75,25.33,29.76Z" style="fill: #ef4136;opacity: 0.5;mix-blend-mode: screen"/>
              </g>
              <g>
                <path d="M20.35,30.52a2.93,2.93,0,0,0,.67.21,7.71,7.71,0,0,0,1.59.17,3,3,0,0,0,1.09-.16,1.25,1.25,0,0,0,.76-.72,1.34,1.34,0,0,0,0-.71,1,1,0,0,0-.13-.32,1.22,1.22,0,0,0-.41-.33c-.6-.36-1.21-.7-1.82-1a3.24,3.24,0,0,0-.59-.28,2.14,2.14,0,0,0-.61-.09,2.22,2.22,0,0,0-1.44.45A1.34,1.34,0,0,0,19,29a2.08,2.08,0,0,0,.6.89A3,3,0,0,0,20.35,30.52Z" style="fill: #ef4136"/>
                <path d="M20.35,30.52a2.93,2.93,0,0,0,.67.21,7.71,7.71,0,0,0,1.59.17,3,3,0,0,0,1.09-.16,1.25,1.25,0,0,0,.76-.72,1.34,1.34,0,0,0,0-.71,1,1,0,0,0-.13-.32,1.22,1.22,0,0,0-.41-.33c-.6-.36-1.21-.7-1.82-1a3.24,3.24,0,0,0-.59-.28,2.14,2.14,0,0,0-.61-.09,2.22,2.22,0,0,0-1.44.45A1.34,1.34,0,0,0,19,29a2.08,2.08,0,0,0,.6.89A3,3,0,0,0,20.35,30.52Z" style="fill: #ef4136;mix-blend-mode: multiply"/>
                <path d="M20.35,30.52a2.93,2.93,0,0,0,.67.21,7.71,7.71,0,0,0,1.59.17,3,3,0,0,0,1.09-.16,1.25,1.25,0,0,0,.76-.72,1.34,1.34,0,0,0,0-.71,1,1,0,0,0-.13-.32,1.22,1.22,0,0,0-.41-.33c-.6-.36-1.21-.7-1.82-1a3.24,3.24,0,0,0-.59-.28,2.14,2.14,0,0,0-.61-.09,2.22,2.22,0,0,0-1.44.45A1.34,1.34,0,0,0,19,29a2.08,2.08,0,0,0,.6.89A3,3,0,0,0,20.35,30.52Z" style="fill: #ef4136;mix-blend-mode: multiply"/>
                <path d="M20.35,30.52a2.93,2.93,0,0,0,.67.21,7.71,7.71,0,0,0,1.59.17,3,3,0,0,0,1.09-.16,1.25,1.25,0,0,0,.76-.72,1.34,1.34,0,0,0,0-.71,1,1,0,0,0-.13-.32,1.22,1.22,0,0,0-.41-.33c-.6-.36-1.21-.7-1.82-1a3.24,3.24,0,0,0-.59-.28,2.14,2.14,0,0,0-.61-.09,2.22,2.22,0,0,0-1.44.45A1.34,1.34,0,0,0,19,29a2.08,2.08,0,0,0,.6.89A3,3,0,0,0,20.35,30.52Z" style="fill: #ef4136;mix-blend-mode: multiply"/>
                <path d="M20.35,30.52a2.93,2.93,0,0,0,.67.21,7.71,7.71,0,0,0,1.59.17,3,3,0,0,0,1.09-.16,1.25,1.25,0,0,0,.76-.72,1.34,1.34,0,0,0,0-.71,1,1,0,0,0-.13-.32,1.22,1.22,0,0,0-.41-.33c-.6-.36-1.21-.7-1.82-1a3.24,3.24,0,0,0-.59-.28,2.14,2.14,0,0,0-.61-.09,2.22,2.22,0,0,0-1.44.45A1.34,1.34,0,0,0,19,29a2.08,2.08,0,0,0,.6.89A3,3,0,0,0,20.35,30.52Z" style="fill: #ef4136;mix-blend-mode: multiply"/>
                <path d="M20.35,30.52a2.93,2.93,0,0,0,.67.21,7.71,7.71,0,0,0,1.59.17,3,3,0,0,0,1.09-.16,1.25,1.25,0,0,0,.76-.72,1.34,1.34,0,0,0,0-.71,1,1,0,0,0-.13-.32,1.22,1.22,0,0,0-.41-.33c-.6-.36-1.21-.7-1.82-1a3.24,3.24,0,0,0-.59-.28,2.14,2.14,0,0,0-.61-.09,2.22,2.22,0,0,0-1.44.45A1.34,1.34,0,0,0,19,29a2.08,2.08,0,0,0,.6.89A3,3,0,0,0,20.35,30.52Z" style="fill: #ef4136;mix-blend-mode: multiply"/>
                <path d="M20.35,30.52a2.93,2.93,0,0,0,.67.21,7.71,7.71,0,0,0,1.59.17,3,3,0,0,0,1.09-.16,1.25,1.25,0,0,0,.76-.72,1.34,1.34,0,0,0,0-.71,1,1,0,0,0-.13-.32,1.22,1.22,0,0,0-.41-.33c-.6-.36-1.21-.7-1.82-1a3.24,3.24,0,0,0-.59-.28,2.14,2.14,0,0,0-.61-.09,2.22,2.22,0,0,0-1.44.45A1.34,1.34,0,0,0,19,29a2.08,2.08,0,0,0,.6.89A3,3,0,0,0,20.35,30.52Z" style="fill: #ef4136;mix-blend-mode: multiply"/>
                <path d="M22.85,29.5c.09-.06.23,0,.31-.1a.2.2,0,0,0,.06-.21.35.35,0,0,0-.14-.18.4.4,0,0,1-.12-.1.09.09,0,0,1,0-.13c.06,0,.11,0,.16.07a.38.38,0,0,0,.29.08c0-.07-.09-.11-.16-.15-.26-.14-.45-.39-.73-.5a1.21,1.21,0,0,0-.49-.07.8.8,0,0,0-.45.12.31.31,0,0,0-.1.4.38.38,0,0,0,.35.13.3.3,0,0,1,.11-.25.17.17,0,0,1,.25.05.54.54,0,0,1-.16.1c-.05,0-.11.08-.1.14a.14.14,0,0,0,.13.1.55.55,0,0,0,.18,0,.6.6,0,0,1,.55.11c.05.05.08.14,0,.19a.17.17,0,0,1-.07,0,.55.55,0,0,1-.39,0c-.15-.06-.28-.18-.44-.15a.16.16,0,0,0,.06.12,1.68,1.68,0,0,0,.33.31.6.6,0,0,0,.44.1A.17.17,0,0,1,22.85,29.5Z" style="fill: #ef4136;opacity: 0.5;mix-blend-mode: screen"/>
                <path d="M21.72,29a.21.21,0,0,0-.17,0s-.08,0-.1,0,0,.09.05.12a.32.32,0,0,0,.26.11.23.23,0,0,0,0-.16A.17.17,0,0,0,21.72,29Z" style="fill: #ef4136;opacity: 0.5;mix-blend-mode: screen"/>
                <path d="M20.57,29.78a2,2,0,0,0,.27.19c.11.05.24.06.35.1s.3.2.46.18.28-.21.34-.38a.17.17,0,0,0,0-.11c0-.07-.12-.08-.2-.07a1.88,1.88,0,0,1-.42,0,1.35,1.35,0,0,1-.29-.08,3.63,3.63,0,0,0-.68-.16.55.55,0,0,0-.44.07A1.71,1.71,0,0,1,20.57,29.78Z" style="fill: #ef4136;opacity: 0.5;mix-blend-mode: screen"/>
                <path d="M21.08,30.28c.26.2.69.18.87.45a1.1,1.1,0,0,1-.42,0,4.53,4.53,0,0,1-.66-.13,2.57,2.57,0,0,1-1-.57,1.07,1.07,0,0,1,.46.13c.16.09.32.22.5.19l-.2-.24a.23.23,0,0,1,.23,0A2.4,2.4,0,0,1,21.08,30.28Z" style="fill: #ef4136;opacity: 0.5;mix-blend-mode: screen"/>
                <path d="M21.87,30.43a.41.41,0,0,1,.3.14.58.58,0,0,0,.28.18c.19,0,.36-.14.55-.12a1.45,1.45,0,0,1,.19,0,.21.21,0,0,0,.19,0,.14.14,0,0,0,0-.16.26.26,0,0,0-.13-.12.43.43,0,0,0-.24,0,.21.21,0,0,1-.15,0s0-.1-.05-.16a.34.34,0,0,0-.25-.22.66.66,0,0,0-.3,0,.15.15,0,0,0-.09,0c-.06.07,0,.19,0,.28s-.11.07-.18.08S21.86,30.37,21.87,30.43Z" style="fill: #ef4136;opacity: 0.5;mix-blend-mode: screen"/>
                <path d="M23.63,29.18l0,0a.06.06,0,0,0-.08,0,.16.16,0,0,0,0,.08l0,.12a.26.26,0,0,1,0,.12.28.28,0,0,1-.12.07s-.16.08-.14.13.27,0,.32,0a.31.31,0,0,0,.19-.23A.46.46,0,0,0,23.63,29.18Z" style="fill: #ef4136;opacity: 0.5;mix-blend-mode: screen"/>
                <path d="M19.2,29.13c.06,0,.07-.08.07-.14v-.18a.35.35,0,0,1,0-.06.36.36,0,0,1,.1-.18l.13-.16a1.22,1.22,0,0,1,.25-.2l0,0s0-.06-.08-.07a1,1,0,0,0-.32,0l-.08,0,0,0a2.41,2.41,0,0,0-.14.25l-.05.12a.56.56,0,0,0,.05.47S19.15,29.14,19.2,29.13Z" style="fill: #ef4136;opacity: 0.5;mix-blend-mode: screen"/>
                <path d="M19.65,29.2a.36.36,0,0,0-.06-.15l0-.06s0-.09-.05-.11a.07.07,0,0,0-.07,0,.2.2,0,0,0,0,.22.52.52,0,0,0,.08.15h.18A.06.06,0,0,0,19.65,29.2Z" style="fill: #ef4136;opacity: 0.5;mix-blend-mode: screen"/>
              </g>
              <g>
                <path d="M18.11,26.12a3,3,0,0,0-.71,0,7.69,7.69,0,0,0-1.57.28,2.88,2.88,0,0,0-1,.46,1.2,1.2,0,0,0-.5.9,1.35,1.35,0,0,0,.22.68,1,1,0,0,0,.22.27,1.27,1.27,0,0,0,.49.2c.68.17,1.37.33,2.06.48a3.32,3.32,0,0,0,.66.1,2.35,2.35,0,0,0,1.85-.92,1.32,1.32,0,0,0,.06-1.4,2.17,2.17,0,0,0-.85-.68A3.12,3.12,0,0,0,18.11,26.12Z" style="fill: #ef4136"/>
                <path d="M18.11,26.12a3,3,0,0,0-.71,0,7.69,7.69,0,0,0-1.57.28,2.88,2.88,0,0,0-1,.46,1.2,1.2,0,0,0-.5.9,1.35,1.35,0,0,0,.22.68,1,1,0,0,0,.22.27,1.27,1.27,0,0,0,.49.2c.68.17,1.37.33,2.06.48a3.32,3.32,0,0,0,.66.1,2.35,2.35,0,0,0,1.85-.92,1.32,1.32,0,0,0,.06-1.4,2.17,2.17,0,0,0-.85-.68A3.12,3.12,0,0,0,18.11,26.12Z" style="fill: #ef4136;mix-blend-mode: multiply"/>
                <path d="M18.11,26.12a3,3,0,0,0-.71,0,7.69,7.69,0,0,0-1.57.28,2.88,2.88,0,0,0-1,.46,1.2,1.2,0,0,0-.5.9,1.35,1.35,0,0,0,.22.68,1,1,0,0,0,.22.27,1.27,1.27,0,0,0,.49.2c.68.17,1.37.33,2.06.48a3.32,3.32,0,0,0,.66.1,2.35,2.35,0,0,0,1.85-.92,1.32,1.32,0,0,0,.06-1.4,2.17,2.17,0,0,0-.85-.68A3.12,3.12,0,0,0,18.11,26.12Z" style="fill: #ef4136;mix-blend-mode: multiply"/>
                <path d="M18.11,26.12a3,3,0,0,0-.71,0,7.69,7.69,0,0,0-1.57.28,2.88,2.88,0,0,0-1,.46,1.2,1.2,0,0,0-.5.9,1.35,1.35,0,0,0,.22.68,1,1,0,0,0,.22.27,1.27,1.27,0,0,0,.49.2c.68.17,1.37.33,2.06.48a3.32,3.32,0,0,0,.66.1,2.35,2.35,0,0,0,1.85-.92,1.32,1.32,0,0,0,.06-1.4,2.17,2.17,0,0,0-.85-.68A3.12,3.12,0,0,0,18.11,26.12Z" style="fill: #ef4136;mix-blend-mode: multiply"/>
                <path d="M18.11,26.12a3,3,0,0,0-.71,0,7.69,7.69,0,0,0-1.57.28,2.88,2.88,0,0,0-1,.46,1.2,1.2,0,0,0-.5.9,1.35,1.35,0,0,0,.22.68,1,1,0,0,0,.22.27,1.27,1.27,0,0,0,.49.2c.68.17,1.37.33,2.06.48a3.32,3.32,0,0,0,.66.1,2.35,2.35,0,0,0,1.85-.92,1.32,1.32,0,0,0,.06-1.4,2.17,2.17,0,0,0-.85-.68A3.12,3.12,0,0,0,18.11,26.12Z" style="fill: #ef4136;mix-blend-mode: multiply"/>
                <path d="M18.11,26.12a3,3,0,0,0-.71,0,7.69,7.69,0,0,0-1.57.28,2.88,2.88,0,0,0-1,.46,1.2,1.2,0,0,0-.5.9,1.35,1.35,0,0,0,.22.68,1,1,0,0,0,.22.27,1.27,1.27,0,0,0,.49.2c.68.17,1.37.33,2.06.48a3.32,3.32,0,0,0,.66.1,2.35,2.35,0,0,0,1.85-.92,1.32,1.32,0,0,0,.06-1.4,2.17,2.17,0,0,0-.85-.68A3.12,3.12,0,0,0,18.11,26.12Z" style="fill: #ef4136;mix-blend-mode: multiply"/>
                <path d="M18.11,26.12a3,3,0,0,0-.71,0,7.69,7.69,0,0,0-1.57.28,2.88,2.88,0,0,0-1,.46,1.2,1.2,0,0,0-.5.9,1.35,1.35,0,0,0,.22.68,1,1,0,0,0,.22.27,1.27,1.27,0,0,0,.49.2c.68.17,1.37.33,2.06.48a3.32,3.32,0,0,0,.66.1,2.35,2.35,0,0,0,1.85-.92,1.32,1.32,0,0,0,.06-1.4,2.17,2.17,0,0,0-.85-.68A3.12,3.12,0,0,0,18.11,26.12Z" style="fill: #ef4136;mix-blend-mode: multiply"/>
                <path d="M16,27.79c-.07.09-.2.1-.27.19a.19.19,0,0,0,0,.22.36.36,0,0,0,.19.13.41.41,0,0,1,.14.06.09.09,0,0,1,0,.13s-.12,0-.17,0a.38.38,0,0,0-.31,0c0,.07.12.08.2.1.29.06.55.25.85.28a1.21,1.21,0,0,0,.49-.08.78.78,0,0,0,.39-.24.3.3,0,0,0,0-.41.39.39,0,0,0-.37,0,.29.29,0,0,1,0,.27.17.17,0,0,1-.25,0,.52.52,0,0,1,.12-.14.16.16,0,0,0,.05-.16.14.14,0,0,0-.15-.06.54.54,0,0,0-.16.07.61.61,0,0,1-.56.05c-.07,0-.12-.11-.1-.17a.16.16,0,0,1,.06-.06.54.54,0,0,1,.37-.1c.16,0,.33.1.46,0s-.05-.08-.09-.1a1.75,1.75,0,0,0-.42-.2.6.6,0,0,0-.45,0A.17.17,0,0,1,16,27.79Z" style="fill: #ef4136;opacity: 0.5;mix-blend-mode: screen"/>
                <path d="M17.26,27.93a.21.21,0,0,0,.17,0s.07,0,.08-.07,0-.08-.09-.1a.32.32,0,0,0-.28,0,.23.23,0,0,0,.05.15A.18.18,0,0,0,17.26,27.93Z" style="fill: #ef4136;opacity: 0.5;mix-blend-mode: screen"/>
                <path d="M18.13,26.89a2,2,0,0,0-.32-.11c-.12,0-.24,0-.36,0s-.35-.11-.5,0-.2.28-.21.46a.17.17,0,0,0,0,.11c0,.06.14,0,.21,0a1.84,1.84,0,0,1,.39-.15,1.36,1.36,0,0,1,.3,0,3.66,3.66,0,0,0,.7,0,.54.54,0,0,0,.4-.19A1.74,1.74,0,0,1,18.13,26.89Z" style="fill: #ef4136;opacity: 0.5;mix-blend-mode: screen"/>
                <path d="M17.48,26.55c-.31-.12-.71,0-1-.18a1.09,1.09,0,0,1,.4-.11,4.55,4.55,0,0,1,.67-.06,2.65,2.65,0,0,1,1.11.27,1.08,1.08,0,0,1-.48,0c-.18,0-.37-.12-.53,0l.26.18a.23.23,0,0,1-.23,0C17.63,26.63,17.56,26.58,17.48,26.55Z" style="fill: #ef4136;opacity: 0.5;mix-blend-mode: screen"/>
                <path d="M16.68,26.63a.42.42,0,0,1-.33-.05.6.6,0,0,0-.32-.09c-.19,0-.3.23-.48.27a1.47,1.47,0,0,1-.2,0,.2.2,0,0,0-.17.08.14.14,0,0,0,0,.16.27.27,0,0,0,.16.08.43.43,0,0,0,.24,0,.21.21,0,0,1,.15,0c.06,0,.07.08.1.13a.35.35,0,0,0,.31.14.66.66,0,0,0,.29-.07.15.15,0,0,0,.07-.06c0-.09-.1-.17-.08-.27s.09-.09.15-.12S16.72,26.69,16.68,26.63Z" style="fill: #ef4136;opacity: 0.5;mix-blend-mode: screen"/>
                <path d="M15.39,28.31l0,0a.06.06,0,0,0,.07,0,.15.15,0,0,0,0-.08v-.12a.25.25,0,0,1,0-.13.27.27,0,0,1,.09-.1s.12-.12.09-.17-.26.05-.31.08a.3.3,0,0,0-.11.27A.47.47,0,0,0,15.39,28.31Z" style="fill: #ef4136;opacity: 0.5;mix-blend-mode: screen"/>
                <path d="M19.64,27.12c-.05,0,0,.1,0,.15l.07.17,0,.06a.35.35,0,0,1,0,.2c0,.06,0,.13-.08.19a1.17,1.17,0,0,1-.18.26.07.07,0,0,0,0,0s.06.05.1,0a1,1,0,0,0,.3-.11.16.16,0,0,0,.09-.11,2.35,2.35,0,0,0,.06-.28.9.9,0,0,0,0-.13.57.57,0,0,0-.2-.44A.12.12,0,0,0,19.64,27.12Z" style="fill: #ef4136;opacity: 0.5;mix-blend-mode: screen"/>
                <path d="M19.18,27.18a.37.37,0,0,0,.11.12l.06,0s0,.08.08.09a.07.07,0,0,0,.06,0,.2.2,0,0,0,0-.22.54.54,0,0,0-.12-.13h0l-.09,0,0,0A.06.06,0,0,0,19.18,27.18Z" style="fill: #ef4136;opacity: 0.5;mix-blend-mode: screen"/>
              </g>
              <g>
                <path d="M16.82,30.27a2.41,2.41,0,0,1-.73.74,5.71,5.71,0,0,1-.7.47,6.24,6.24,0,0,1-1.66.53l-.81.18c-.33.07-.66.14-1,.19l-.51.06a1.09,1.09,0,0,1-.69-.09,1,1,0,0,1-.35-.5,1.26,1.26,0,0,1-.08-.54,2.31,2.31,0,0,1,.31-.94,3.75,3.75,0,0,1,.42-.6,5,5,0,0,1,2.07-1.39,5.79,5.79,0,0,1,.62-.19,3.94,3.94,0,0,1,1.59-.1,2.15,2.15,0,0,1,1.35.75A1.37,1.37,0,0,1,16.82,30.27Z" style="fill: #ef4136"/>
                <path d="M16.82,30.27a2.41,2.41,0,0,1-.73.74,5.71,5.71,0,0,1-.7.47,6.24,6.24,0,0,1-1.66.53l-.81.18c-.33.07-.66.14-1,.19l-.51.06a1.09,1.09,0,0,1-.69-.09,1,1,0,0,1-.35-.5,1.26,1.26,0,0,1-.08-.54,2.31,2.31,0,0,1,.31-.94,3.75,3.75,0,0,1,.42-.6,5,5,0,0,1,2.07-1.39,5.79,5.79,0,0,1,.62-.19,3.94,3.94,0,0,1,1.59-.1,2.15,2.15,0,0,1,1.35.75A1.37,1.37,0,0,1,16.82,30.27Z" style="fill: #ef4136;mix-blend-mode: multiply"/>
                <path d="M16.82,30.27a2.41,2.41,0,0,1-.73.74,5.71,5.71,0,0,1-.7.47,6.24,6.24,0,0,1-1.66.53l-.81.18c-.33.07-.66.14-1,.19l-.51.06a1.09,1.09,0,0,1-.69-.09,1,1,0,0,1-.35-.5,1.26,1.26,0,0,1-.08-.54,2.31,2.31,0,0,1,.31-.94,3.75,3.75,0,0,1,.42-.6,5,5,0,0,1,2.07-1.39,5.79,5.79,0,0,1,.62-.19,3.94,3.94,0,0,1,1.59-.1,2.15,2.15,0,0,1,1.35.75A1.37,1.37,0,0,1,16.82,30.27Z" style="fill: #ef4136;mix-blend-mode: multiply"/>
                <path d="M16.82,30.27a2.41,2.41,0,0,1-.73.74,5.71,5.71,0,0,1-.7.47,6.24,6.24,0,0,1-1.66.53l-.81.18c-.33.07-.66.14-1,.19l-.51.06a1.09,1.09,0,0,1-.69-.09,1,1,0,0,1-.35-.5,1.26,1.26,0,0,1-.08-.54,2.31,2.31,0,0,1,.31-.94,3.75,3.75,0,0,1,.42-.6,5,5,0,0,1,2.07-1.39,5.79,5.79,0,0,1,.62-.19,3.94,3.94,0,0,1,1.59-.1,2.15,2.15,0,0,1,1.35.75A1.37,1.37,0,0,1,16.82,30.27Z" style="fill: #ef4136;mix-blend-mode: multiply"/>
                <path d="M16.82,30.27a2.41,2.41,0,0,1-.73.74,5.71,5.71,0,0,1-.7.47,6.24,6.24,0,0,1-1.66.53l-.81.18c-.33.07-.66.14-1,.19l-.51.06a1.09,1.09,0,0,1-.69-.09,1,1,0,0,1-.35-.5,1.26,1.26,0,0,1-.08-.54,2.31,2.31,0,0,1,.31-.94,3.75,3.75,0,0,1,.42-.6,5,5,0,0,1,2.07-1.39,5.79,5.79,0,0,1,.62-.19,3.94,3.94,0,0,1,1.59-.1,2.15,2.15,0,0,1,1.35.75A1.37,1.37,0,0,1,16.82,30.27Z" style="fill: #ef4136;mix-blend-mode: multiply"/>
                <path d="M16.82,30.27a2.41,2.41,0,0,1-.73.74,5.71,5.71,0,0,1-.7.47,6.24,6.24,0,0,1-1.66.53l-.81.18c-.33.07-.66.14-1,.19l-.51.06a1.09,1.09,0,0,1-.69-.09,1,1,0,0,1-.35-.5,1.26,1.26,0,0,1-.08-.54,2.31,2.31,0,0,1,.31-.94,3.75,3.75,0,0,1,.42-.6,5,5,0,0,1,2.07-1.39,5.79,5.79,0,0,1,.62-.19,3.94,3.94,0,0,1,1.59-.1,2.15,2.15,0,0,1,1.35.75A1.37,1.37,0,0,1,16.82,30.27Z" style="fill: #ef4136;mix-blend-mode: multiply"/>
                <path d="M16.82,30.27a2.41,2.41,0,0,1-.73.74,5.71,5.71,0,0,1-.7.47,6.24,6.24,0,0,1-1.66.53l-.81.18c-.33.07-.66.14-1,.19l-.51.06a1.09,1.09,0,0,1-.69-.09,1,1,0,0,1-.35-.5,1.26,1.26,0,0,1-.08-.54,2.31,2.31,0,0,1,.31-.94,3.75,3.75,0,0,1,.42-.6,5,5,0,0,1,2.07-1.39,5.79,5.79,0,0,1,.62-.19,3.94,3.94,0,0,1,1.59-.1,2.15,2.15,0,0,1,1.35.75A1.37,1.37,0,0,1,16.82,30.27Z" style="fill: #ef4136;mix-blend-mode: multiply"/>
                <path d="M11.34,32.17a.11.11,0,0,1-.06,0,.52.52,0,0,1-.45-.08.71.71,0,0,1-.21-.26.32.32,0,0,1,0-.12.1.1,0,0,1,0-.08s.21.07.26.09l.33.08.07,0a.26.26,0,0,1,.09.21A.13.13,0,0,1,11.34,32.17Z" style="fill: #ef4136;opacity: 0.5;mix-blend-mode: screen"/>
                <path d="M13.1,28.37a7.57,7.57,0,0,0-.77.75,1.85,1.85,0,0,0-.22.29.76.76,0,0,1-.18.25.61.61,0,0,1-.17.08l-.45.14-.09,0a.2.2,0,0,1-.19-.13A5,5,0,0,1,13.1,28.37Z" style="fill: #ef4136;opacity: 0.5;mix-blend-mode: screen"/>
                <path d="M12.06,31a1.41,1.41,0,0,0,.39-.29s.07-.09,0-.13-.18,0-.22-.1,0-.09,0-.12a2.85,2.85,0,0,1,.31-.34.15.15,0,0,0,.05-.07c0-.05,0-.1-.1-.1a.3.3,0,0,0-.16,0,8.72,8.72,0,0,0-.86.5.61.61,0,0,0-.18.15.2.2,0,0,0,0,.22c.06.09.18.1.28.15s.18.14.29.14A.32.32,0,0,0,12.06,31Z" style="fill: #ef4136;opacity: 0.5;mix-blend-mode: screen"/>
                <path d="M13.47,28.94l.17-.1.24-.1a.24.24,0,0,0,.14-.2.09.09,0,0,0,0-.06.13.13,0,0,0-.08,0,.72.72,0,0,0-.59.32.14.14,0,0,0,0,.16C13.33,29,13.41,29,13.47,28.94Z" style="fill: #ef4136;opacity: 0.5;mix-blend-mode: screen"/>
                <path d="M14.11,29a.15.15,0,0,0,.08,0,.65.65,0,0,0,.34-.1,2.3,2.3,0,0,1,.67-.2,1.43,1.43,0,0,0,.53-.12.13.13,0,0,0,.07-.09c0-.06-.06-.11-.13-.13a1.67,1.67,0,0,0-1.32.19.65.65,0,0,0-.26.24A.15.15,0,0,0,14.11,29Z" style="fill: #ef4136;opacity: 0.5;mix-blend-mode: screen"/>
                <path d="M13.17,29.88a.72.72,0,0,1,.3,0,.49.49,0,0,1,.19,0l.1.06.18.13s.06,0,.06.08-.06.07-.1.07a2.34,2.34,0,0,1-.29-.05.61.61,0,0,0-.25,0,.56.56,0,0,1-.16,0,.13.13,0,0,1-.16-.13.18.18,0,0,1,.13-.19S13.16,29.88,13.17,29.88Z" style="fill: #ef4136;opacity: 0.5;mix-blend-mode: screen"/>
                <path d="M11.31,30.23a.28.28,0,0,0-.36-.08l-.18.21a.73.73,0,0,0-.18.5.15.15,0,0,0,.15,0,.57.57,0,0,0,.13-.1,3.86,3.86,0,0,1,.33-.24c.08-.06.15-.13.14-.22A.18.18,0,0,0,11.31,30.23Z" style="fill: #ef4136;opacity: 0.5;mix-blend-mode: screen"/>
                <path d="M13.41,30.75a2.92,2.92,0,0,1-.49-.1.28.28,0,0,0-.19,0,.12.12,0,0,0,0,.16l.06.06c0,.06,0,.13-.06.18a.94.94,0,0,1-.8.24.89.89,0,0,0-.19,0,.18.18,0,0,0-.16.09.15.15,0,0,0,0,.16.31.31,0,0,0,.16.08,5,5,0,0,1,.55.06c.08,0,.16.08.24.11a.73.73,0,0,0,.44-.05,1.39,1.39,0,0,0,.51-.29c.2-.2.31-.51.59-.61.06,0,.13,0,.15-.09s-.08-.16-.17-.16S13.63,30.74,13.41,30.75Z" style="fill: #ef4136;opacity: 0.5;mix-blend-mode: screen"/>
                <path d="M14.64,30.68a.59.59,0,0,0,.21-.1L15,30.5a.29.29,0,0,0,.13-.14.27.27,0,0,0,0-.09.2.2,0,0,0,0-.08.18.18,0,0,0-.07-.07.75.75,0,0,0-.37-.12.35.35,0,0,0-.15,0,.16.16,0,0,0-.1.11.15.15,0,0,0,.11.16c.05,0,.13,0,.14.07a.1.1,0,0,1,0,.08.37.37,0,0,1-.1.09l0,0a.07.07,0,0,0,0,.1A.16.16,0,0,0,14.64,30.68Z" style="fill: #ef4136;opacity: 0.5;mix-blend-mode: screen"/>
              </g>
              <g>
                <path d="M15.61,29.22c.09-.11.14-.25.22-.37.43-.64,1.68-.53,2.33-.33a6.4,6.4,0,0,1,.7.27,11.84,11.84,0,0,1,1.48.73,13.19,13.19,0,0,1,1.24,1,1.93,1.93,0,0,1,.51.54,1,1,0,0,1-.25,1.29,1.66,1.66,0,0,1-1.31.26,11,11,0,0,1-1.32-.39c-.53-.16-1.08-.24-1.61-.36a4.11,4.11,0,0,1-1.51-.63,1.79,1.79,0,0,1-.78-1.33.76.76,0,0,1,.11-.45C15.48,29.36,15.55,29.29,15.61,29.22Z" style="fill: #ef4136"/>
                <path d="M15.61,29.22c.09-.11.14-.25.22-.37.43-.64,1.68-.53,2.33-.33a6.4,6.4,0,0,1,.7.27,11.84,11.84,0,0,1,1.48.73,13.19,13.19,0,0,1,1.24,1,1.93,1.93,0,0,1,.51.54,1,1,0,0,1-.25,1.29,1.66,1.66,0,0,1-1.31.26,11,11,0,0,1-1.32-.39c-.53-.16-1.08-.24-1.61-.36a4.11,4.11,0,0,1-1.51-.63,1.79,1.79,0,0,1-.78-1.33.76.76,0,0,1,.11-.45C15.48,29.36,15.55,29.29,15.61,29.22Z" style="fill: #ef4136;mix-blend-mode: multiply"/>
                <path d="M22.05,32.1a1,1,0,0,1-.21.24,1.66,1.66,0,0,1-1.31.26,11,11,0,0,1-1.32-.39c-.53-.16-1.08-.24-1.61-.36a4.1,4.1,0,0,1-1.51-.63,1.79,1.79,0,0,1-.78-1.33.76.76,0,0,1,.11-.45l.06-.08.12-.14c.09-.11.14-.25.22-.37.43-.64,1.68-.53,2.33-.33a6.31,6.31,0,0,1,.7.27,11.89,11.89,0,0,1,1.48.73,13.17,13.17,0,0,1,1.24,1,1.93,1.93,0,0,1,.51.54A1,1,0,0,1,22.05,32.1Z" style="fill: #ef4136;mix-blend-mode: multiply"/>
                <path d="M22.05,32.1a1,1,0,0,1-.21.24,1.66,1.66,0,0,1-1.31.26,11,11,0,0,1-1.32-.39c-.53-.16-1.08-.24-1.61-.36a4.1,4.1,0,0,1-1.51-.63,1.79,1.79,0,0,1-.78-1.33.76.76,0,0,1,.11-.45l.06-.08.12-.14c.09-.11.14-.25.22-.37.43-.64,1.68-.53,2.33-.33a6.31,6.31,0,0,1,.7.27,11.89,11.89,0,0,1,1.48.73,13.17,13.17,0,0,1,1.24,1,1.93,1.93,0,0,1,.51.54A1,1,0,0,1,22.05,32.1Z" style="fill: #ef4136;mix-blend-mode: multiply"/>
                <path d="M22.05,32.1a1,1,0,0,1-.21.24,1.66,1.66,0,0,1-1.31.26,11,11,0,0,1-1.32-.39c-.53-.16-1.08-.24-1.61-.36a4.1,4.1,0,0,1-1.51-.63,1.79,1.79,0,0,1-.78-1.33.76.76,0,0,1,.11-.45l.06-.08.12-.14c.09-.11.14-.25.22-.37.43-.64,1.68-.53,2.33-.33a6.31,6.31,0,0,1,.7.27,11.89,11.89,0,0,1,1.48.73,13.17,13.17,0,0,1,1.24,1,1.93,1.93,0,0,1,.51.54A1,1,0,0,1,22.05,32.1Z" style="fill: #ef4136;mix-blend-mode: multiply"/>
                <path d="M22.05,32.1a1,1,0,0,1-.21.24,1.66,1.66,0,0,1-1.31.26,11,11,0,0,1-1.32-.39c-.53-.16-1.08-.24-1.61-.36a4.1,4.1,0,0,1-1.51-.63,1.79,1.79,0,0,1-.78-1.33.76.76,0,0,1,.11-.45l.06-.08.12-.14c.09-.11.14-.25.22-.37.43-.64,1.68-.53,2.33-.33a6.31,6.31,0,0,1,.7.27,11.89,11.89,0,0,1,1.48.73,13.17,13.17,0,0,1,1.24,1,1.93,1.93,0,0,1,.51.54A1,1,0,0,1,22.05,32.1Z" style="fill: #ef4136;mix-blend-mode: multiply"/>
                <path d="M22.05,32.1a1,1,0,0,1-.21.24,1.66,1.66,0,0,1-1.31.26,11,11,0,0,1-1.32-.39c-.53-.16-1.08-.24-1.61-.36a4.1,4.1,0,0,1-1.51-.63,1.79,1.79,0,0,1-.78-1.33.76.76,0,0,1,.11-.45l.06-.08.12-.14c.09-.11.14-.25.22-.37.43-.64,1.68-.53,2.33-.33a6.31,6.31,0,0,1,.7.27,11.89,11.89,0,0,1,1.48.73,13.17,13.17,0,0,1,1.24,1,1.93,1.93,0,0,1,.51.54A1,1,0,0,1,22.05,32.1Z" style="fill: #ef4136;mix-blend-mode: multiply"/>
                <path d="M22.05,32.1a1,1,0,0,1-.21.24,1.66,1.66,0,0,1-1.31.26,11,11,0,0,1-1.32-.39c-.53-.16-1.08-.24-1.61-.36a4.1,4.1,0,0,1-1.51-.63,1.79,1.79,0,0,1-.78-1.33.76.76,0,0,1,.11-.45l.06-.08.12-.14c.09-.11.14-.25.22-.37.43-.64,1.68-.53,2.33-.33a6.31,6.31,0,0,1,.7.27,11.89,11.89,0,0,1,1.48.73,13.17,13.17,0,0,1,1.24,1,1.93,1.93,0,0,1,.51.54A1,1,0,0,1,22.05,32.1Z" style="fill: #ef4136;mix-blend-mode: multiply"/>
                <path d="M22.05,32.1a1,1,0,0,1-.21.24,1.66,1.66,0,0,1-1.31.26,11,11,0,0,1-1.32-.39c-.53-.16-1.08-.24-1.61-.36a4.1,4.1,0,0,1-1.51-.63,1.23,1.23,0,0,1-.48-.74.93.93,0,0,1,0-.57.6.6,0,0,1,.44-.26,6,6,0,0,0,.67-.07.67.67,0,0,1,.24,0,.82.82,0,0,1,.3.15c.29.16.68,0,.93.25a3,3,0,0,0,1.06.5,1.09,1.09,0,0,1,.59.29A8.08,8.08,0,0,1,18,30.31a4.23,4.23,0,0,0-1.22,0c-.08,0-.19.06-.15.13a2.42,2.42,0,0,1,2,.48,2.58,2.58,0,0,0,.55.42,2.53,2.53,0,0,0,.8.13,2.68,2.68,0,0,1,1,.29.47.47,0,0,1-.41,0l-.93-.18a2.18,2.18,0,0,1-.58-.17c-.34-.17-.61-.54-1-.54-.06.09,0,.2.1.28a2.9,2.9,0,0,0,2.09.77,2.54,2.54,0,0,1,1,0c.09,0,.18.09.28.11A.86.86,0,0,0,22.05,32.1Z" style="fill: #ef4136;opacity: 0.30000000000000004;mix-blend-mode: screen"/>
                <path d="M15.83,29.26a.59.59,0,0,1,.23-.22.53.53,0,0,1,.19,0,1.8,1.8,0,0,1,.48,0,.78.78,0,0,1,.28.12.09.09,0,0,1,0,0s-.05.08-.11.09a2.87,2.87,0,0,0-.5.07c-.1,0-.19.09-.29.13a.39.39,0,0,1-.31,0,.15.15,0,0,1-.07-.06C15.74,29.4,15.78,29.32,15.83,29.26Z" style="fill: #ef4136;opacity: 0.5;mix-blend-mode: screen"/>
                <path d="M20.27,31.09l.35,0a.15.15,0,0,0,.11,0,.14.14,0,0,0,0-.1l0-.32a.09.09,0,0,0,0-.05.07.07,0,0,0-.07,0l-.07,0-.26.12a.44.44,0,0,0-.21.18.11.11,0,0,0,0,.11A.15.15,0,0,0,20.27,31.09Z" style="fill: #ef4136;opacity: 0.5;mix-blend-mode: screen"/>
                <path d="M20.79,31.5c0,.06,0,.12.1.16s.13,0,.19.08.17.25.3.32a.34.34,0,0,0,.39-.08.63.63,0,0,0,.15-.38.6.6,0,0,0,0-.31c-.18-.4-.83-.06-1,.13A.19.19,0,0,0,20.79,31.5Z" style="fill: #ef4136;opacity: 0.5;mix-blend-mode: screen"/>
                <path d="M20.58,31.68s-.1,0-.16,0H20.3a.65.65,0,0,1-.21-.07l-.18-.08a.49.49,0,0,1-.14-.08.38.38,0,0,1-.07-.09,1.05,1.05,0,0,1-.08-.16.19.19,0,0,1,.21,0,.78.78,0,0,0,.19.11c.09,0,.2,0,.28,0s.09.09.14.12l.11.08A.09.09,0,0,1,20.58,31.68Z" style="fill: #ef4136;opacity: 0.5;mix-blend-mode: screen"/>
                <path d="M20.28,30c-.06.12-.16.24-.3.22a.32.32,0,0,1-.18-.2,1.84,1.84,0,0,0-.1-.26.84.84,0,0,0-.27-.25.46.46,0,0,0-.12-.06c-.07,0-.35,0-.31-.14s.19-.07.25-.06a1.47,1.47,0,0,1,.49.2,3.59,3.59,0,0,1,.44.3c.06,0,.12.1.11.17A.21.21,0,0,1,20.28,30Z" style="fill: #ef4136;opacity: 0.5;mix-blend-mode: screen"/>
                <path d="M17.33,29.38a.34.34,0,0,1,.28,0,1.29,1.29,0,0,0,.14.09.08.08,0,0,1,0,.11.18.18,0,0,1-.11,0,.35.35,0,0,1-.29-.11C17.28,29.45,17.29,29.41,17.33,29.38Z" style="fill: #ef4136;opacity: 0.5;mix-blend-mode: screen"/>
              </g>
              <g>
                <path d="M16.11,33.93a2.88,2.88,0,0,0,.63.32,7.64,7.64,0,0,0,1.53.43,3,3,0,0,0,1.1,0,1.28,1.28,0,0,0,.88-.59,1.34,1.34,0,0,0,.13-.7.94.94,0,0,0-.07-.34,1.19,1.19,0,0,0-.34-.39c-.52-.45-1.06-.89-1.6-1.33a3.17,3.17,0,0,0-.53-.38,2.12,2.12,0,0,0-.59-.19,2.24,2.24,0,0,0-1.5.2A1.36,1.36,0,0,0,15,32.22a2,2,0,0,0,.43,1A2.93,2.93,0,0,0,16.11,33.93Z" style="fill: #ef4136"/>
                <path d="M16.11,33.93a2.88,2.88,0,0,0,.63.32,7.64,7.64,0,0,0,1.53.43,3,3,0,0,0,1.1,0,1.28,1.28,0,0,0,.88-.59,1.34,1.34,0,0,0,.13-.7.94.94,0,0,0-.07-.34,1.19,1.19,0,0,0-.34-.39c-.52-.45-1.06-.89-1.6-1.33a3.17,3.17,0,0,0-.53-.38,2.12,2.12,0,0,0-.59-.19,2.24,2.24,0,0,0-1.5.2A1.36,1.36,0,0,0,15,32.22a2,2,0,0,0,.43,1A2.93,2.93,0,0,0,16.11,33.93Z" style="fill: #ef4136;mix-blend-mode: multiply"/>
                <path d="M16.11,33.93a2.88,2.88,0,0,0,.63.32,7.64,7.64,0,0,0,1.53.43,3,3,0,0,0,1.1,0,1.28,1.28,0,0,0,.88-.59,1.34,1.34,0,0,0,.13-.7.94.94,0,0,0-.07-.34,1.19,1.19,0,0,0-.34-.39c-.52-.45-1.06-.89-1.6-1.33a3.17,3.17,0,0,0-.53-.38,2.12,2.12,0,0,0-.59-.19,2.24,2.24,0,0,0-1.5.2A1.36,1.36,0,0,0,15,32.22a2,2,0,0,0,.43,1A2.93,2.93,0,0,0,16.11,33.93Z" style="fill: #ef4136;mix-blend-mode: multiply"/>
                <path d="M16.11,33.93a2.88,2.88,0,0,0,.63.32,7.64,7.64,0,0,0,1.53.43,3,3,0,0,0,1.1,0,1.28,1.28,0,0,0,.88-.59,1.34,1.34,0,0,0,.13-.7.94.94,0,0,0-.07-.34,1.19,1.19,0,0,0-.34-.39c-.52-.45-1.06-.89-1.6-1.33a3.17,3.17,0,0,0-.53-.38,2.12,2.12,0,0,0-.59-.19,2.24,2.24,0,0,0-1.5.2A1.36,1.36,0,0,0,15,32.22a2,2,0,0,0,.43,1A2.93,2.93,0,0,0,16.11,33.93Z" style="fill: #ef4136;mix-blend-mode: multiply"/>
                <path d="M16.11,33.93a2.88,2.88,0,0,0,.63.32,7.64,7.64,0,0,0,1.53.43,3,3,0,0,0,1.1,0,1.28,1.28,0,0,0,.88-.59,1.34,1.34,0,0,0,.13-.7.94.94,0,0,0-.07-.34,1.19,1.19,0,0,0-.34-.39c-.52-.45-1.06-.89-1.6-1.33a3.17,3.17,0,0,0-.53-.38,2.12,2.12,0,0,0-.59-.19,2.24,2.24,0,0,0-1.5.2A1.36,1.36,0,0,0,15,32.22a2,2,0,0,0,.43,1A2.93,2.93,0,0,0,16.11,33.93Z" style="fill: #ef4136;mix-blend-mode: multiply"/>
                <path d="M16.11,33.93a2.88,2.88,0,0,0,.63.32,7.64,7.64,0,0,0,1.53.43,3,3,0,0,0,1.1,0,1.28,1.28,0,0,0,.88-.59,1.34,1.34,0,0,0,.13-.7.94.94,0,0,0-.07-.34,1.19,1.19,0,0,0-.34-.39c-.52-.45-1.06-.89-1.6-1.33a3.17,3.17,0,0,0-.53-.38,2.12,2.12,0,0,0-.59-.19,2.24,2.24,0,0,0-1.5.2A1.36,1.36,0,0,0,15,32.22a2,2,0,0,0,.43,1A2.93,2.93,0,0,0,16.11,33.93Z" style="fill: #ef4136;mix-blend-mode: multiply"/>
                <path d="M16.11,33.93a2.88,2.88,0,0,0,.63.32,7.64,7.64,0,0,0,1.53.43,3,3,0,0,0,1.1,0,1.28,1.28,0,0,0,.88-.59,1.34,1.34,0,0,0,.13-.7.94.94,0,0,0-.07-.34,1.19,1.19,0,0,0-.34-.39c-.52-.45-1.06-.89-1.6-1.33a3.17,3.17,0,0,0-.53-.38,2.12,2.12,0,0,0-.59-.19,2.24,2.24,0,0,0-1.5.2A1.36,1.36,0,0,0,15,32.22a2,2,0,0,0,.43,1A2.93,2.93,0,0,0,16.11,33.93Z" style="fill: #ef4136;mix-blend-mode: multiply"/>
                <path d="M18.76,33.34c.1,0,.23,0,.33,0a.2.2,0,0,0,.1-.19.34.34,0,0,0-.11-.2.39.39,0,0,1-.1-.12.09.09,0,0,1,.05-.12c.06,0,.1,0,.14.09a.37.37,0,0,0,.27.13c0-.07-.07-.13-.13-.17-.24-.18-.37-.46-.62-.62a1.2,1.2,0,0,0-.47-.14.81.81,0,0,0-.46,0,.31.31,0,0,0-.18.37.37.37,0,0,0,.32.18.31.31,0,0,1,.15-.23.17.17,0,0,1,.23.09.55.55,0,0,1-.17.07c-.06,0-.12.06-.12.12a.14.14,0,0,0,.11.12.55.55,0,0,0,.18,0,.6.6,0,0,1,.53.2.15.15,0,0,1,0,.2l-.08,0a.54.54,0,0,1-.38-.07c-.13-.08-.25-.23-.4-.22A.16.16,0,0,0,18,33a1.64,1.64,0,0,0,.27.36.59.59,0,0,0,.42.17A.17.17,0,0,1,18.76,33.34Z" style="fill: #ef4136;opacity: 0.5;mix-blend-mode: screen"/>
                <path d="M17.73,32.68a.2.2,0,0,0-.16-.06.12.12,0,0,0-.1,0s0,.09,0,.12a.31.31,0,0,0,.23.15.23.23,0,0,0,0-.16A.17.17,0,0,0,17.73,32.68Z" style="fill: #ef4136;opacity: 0.5;mix-blend-mode: screen"/>
                <path d="M16.46,33.24a1.92,1.92,0,0,0,.23.23c.1.07.22.1.32.16s.25.25.42.26.31-.16.4-.32a.17.17,0,0,0,0-.1c0-.07-.11-.1-.18-.1a1.88,1.88,0,0,1-.42,0A1.33,1.33,0,0,1,17,33.2a3.58,3.58,0,0,0-.64-.27.56.56,0,0,0-.44,0A1.68,1.68,0,0,1,16.46,33.24Z" style="fill: #ef4136;opacity: 0.5;mix-blend-mode: screen"/>
                <path d="M16.87,33.82c.22.24.65.29.78.58a1.1,1.1,0,0,1-.41-.08,4.48,4.48,0,0,1-.63-.24,2.52,2.52,0,0,1-.86-.72,1.05,1.05,0,0,1,.43.21c.14.11.27.27.45.27l-.15-.27a.23.23,0,0,1,.23.06A2.35,2.35,0,0,1,16.87,33.82Z" style="fill: #ef4136;opacity: 0.5;mix-blend-mode: screen"/>
                <path d="M17.62,34.09a.41.41,0,0,1,.27.19.56.56,0,0,0,.24.22c.18.06.38-.08.56,0a1.43,1.43,0,0,1,.18.08.21.21,0,0,0,.19,0,.14.14,0,0,0,.05-.15.25.25,0,0,0-.1-.14.43.43,0,0,0-.23-.08c-.05,0-.11,0-.15,0s0-.11,0-.16a.33.33,0,0,0-.21-.26.66.66,0,0,0-.29-.06.15.15,0,0,0-.09,0c-.08.06,0,.2-.05.27s-.12,0-.19,0S17.62,34,17.62,34.09Z" style="fill: #ef4136;opacity: 0.5;mix-blend-mode: screen"/>
                <path d="M19.58,33.16v0a.06.06,0,0,0-.08,0,.16.16,0,0,0,0,.07l0,.12a.26.26,0,0,1-.07.11.29.29,0,0,1-.13,0s-.17.05-.16.11.26.07.31.06a.31.31,0,0,0,.23-.19A.46.46,0,0,0,19.58,33.16Z" style="fill: #ef4136;opacity: 0.5;mix-blend-mode: screen"/>
                <path d="M15.23,32.38c.06,0,.08-.07.09-.13l0-.18a.35.35,0,0,1,0-.06.37.37,0,0,1,.13-.16l.16-.13a1.25,1.25,0,0,1,.28-.15l0,0s0-.07-.07-.08a1,1,0,0,0-.32,0l-.09,0,0,0-.19.22-.07.11a.56.56,0,0,0,0,.47S15.18,32.38,15.23,32.38Z" style="fill: #ef4136;opacity: 0.5;mix-blend-mode: screen"/>
                <path d="M15.66,32.52a.35.35,0,0,0,0-.16.3.3,0,0,1,0-.07s0-.09,0-.11a.07.07,0,0,0-.07,0,.2.2,0,0,0-.08.21.51.51,0,0,0,0,.16v0h.17A.06.06,0,0,0,15.66,32.52Z" style="fill: #ef4136;opacity: 0.5;mix-blend-mode: screen"/>
              </g>
              <g>
                <path d="M14,34.81a2.88,2.88,0,0,0,.63.32,7.64,7.64,0,0,0,1.53.43,3,3,0,0,0,1.1,0,1.28,1.28,0,0,0,.88-.59,1.34,1.34,0,0,0,.13-.7.94.94,0,0,0-.07-.34,1.19,1.19,0,0,0-.34-.39c-.52-.45-1.06-.89-1.6-1.33a3.17,3.17,0,0,0-.53-.38,2.11,2.11,0,0,0-.59-.19,2.24,2.24,0,0,0-1.5.2,1.36,1.36,0,0,0-.73,1.22,2,2,0,0,0,.43,1A2.93,2.93,0,0,0,14,34.81Z" style="fill: #ef4136"/>
                <path d="M14,34.81a2.88,2.88,0,0,0,.63.32,7.64,7.64,0,0,0,1.53.43,3,3,0,0,0,1.1,0,1.28,1.28,0,0,0,.88-.59,1.34,1.34,0,0,0,.13-.7.94.94,0,0,0-.07-.34,1.19,1.19,0,0,0-.34-.39c-.52-.45-1.06-.89-1.6-1.33a3.17,3.17,0,0,0-.53-.38,2.11,2.11,0,0,0-.59-.19,2.24,2.24,0,0,0-1.5.2,1.36,1.36,0,0,0-.73,1.22,2,2,0,0,0,.43,1A2.93,2.93,0,0,0,14,34.81Z" style="fill: #ef4136;mix-blend-mode: multiply"/>
                <path d="M14,34.81a2.88,2.88,0,0,0,.63.32,7.64,7.64,0,0,0,1.53.43,3,3,0,0,0,1.1,0,1.28,1.28,0,0,0,.88-.59,1.34,1.34,0,0,0,.13-.7.94.94,0,0,0-.07-.34,1.19,1.19,0,0,0-.34-.39c-.52-.45-1.06-.89-1.6-1.33a3.17,3.17,0,0,0-.53-.38,2.11,2.11,0,0,0-.59-.19,2.24,2.24,0,0,0-1.5.2,1.36,1.36,0,0,0-.73,1.22,2,2,0,0,0,.43,1A2.93,2.93,0,0,0,14,34.81Z" style="fill: #ef4136;mix-blend-mode: multiply"/>
                <path d="M14,34.81a2.88,2.88,0,0,0,.63.32,7.64,7.64,0,0,0,1.53.43,3,3,0,0,0,1.1,0,1.28,1.28,0,0,0,.88-.59,1.34,1.34,0,0,0,.13-.7.94.94,0,0,0-.07-.34,1.19,1.19,0,0,0-.34-.39c-.52-.45-1.06-.89-1.6-1.33a3.17,3.17,0,0,0-.53-.38,2.11,2.11,0,0,0-.59-.19,2.24,2.24,0,0,0-1.5.2,1.36,1.36,0,0,0-.73,1.22,2,2,0,0,0,.43,1A2.93,2.93,0,0,0,14,34.81Z" style="fill: #ef4136;mix-blend-mode: multiply"/>
                <path d="M14,34.81a2.88,2.88,0,0,0,.63.32,7.64,7.64,0,0,0,1.53.43,3,3,0,0,0,1.1,0,1.28,1.28,0,0,0,.88-.59,1.34,1.34,0,0,0,.13-.7.94.94,0,0,0-.07-.34,1.19,1.19,0,0,0-.34-.39c-.52-.45-1.06-.89-1.6-1.33a3.17,3.17,0,0,0-.53-.38,2.11,2.11,0,0,0-.59-.19,2.24,2.24,0,0,0-1.5.2,1.36,1.36,0,0,0-.73,1.22,2,2,0,0,0,.43,1A2.93,2.93,0,0,0,14,34.81Z" style="fill: #ef4136;mix-blend-mode: multiply"/>
                <path d="M14,34.81a2.88,2.88,0,0,0,.63.32,7.64,7.64,0,0,0,1.53.43,3,3,0,0,0,1.1,0,1.28,1.28,0,0,0,.88-.59,1.34,1.34,0,0,0,.13-.7.94.94,0,0,0-.07-.34,1.19,1.19,0,0,0-.34-.39c-.52-.45-1.06-.89-1.6-1.33a3.17,3.17,0,0,0-.53-.38,2.11,2.11,0,0,0-.59-.19,2.24,2.24,0,0,0-1.5.2,1.36,1.36,0,0,0-.73,1.22,2,2,0,0,0,.43,1A2.93,2.93,0,0,0,14,34.81Z" style="fill: #ef4136;mix-blend-mode: multiply"/>
                <path d="M14,34.81a2.88,2.88,0,0,0,.63.32,7.64,7.64,0,0,0,1.53.43,3,3,0,0,0,1.1,0,1.28,1.28,0,0,0,.88-.59,1.34,1.34,0,0,0,.13-.7.94.94,0,0,0-.07-.34,1.19,1.19,0,0,0-.34-.39c-.52-.45-1.06-.89-1.6-1.33a3.17,3.17,0,0,0-.53-.38,2.11,2.11,0,0,0-.59-.19,2.24,2.24,0,0,0-1.5.2,1.36,1.36,0,0,0-.73,1.22,2,2,0,0,0,.43,1A2.93,2.93,0,0,0,14,34.81Z" style="fill: #ef4136;mix-blend-mode: multiply"/>
                <path d="M16.64,34.22c.1,0,.23,0,.33,0a.2.2,0,0,0,.1-.19.34.34,0,0,0-.11-.2.39.39,0,0,1-.1-.12.09.09,0,0,1,.05-.12c.06,0,.1,0,.14.09a.37.37,0,0,0,.27.13c0-.07-.07-.13-.13-.17-.24-.18-.37-.46-.62-.62a1.2,1.2,0,0,0-.47-.14.81.81,0,0,0-.46,0,.31.31,0,0,0-.18.37.37.37,0,0,0,.32.18.31.31,0,0,1,.15-.23.17.17,0,0,1,.23.09.55.55,0,0,1-.17.07c-.06,0-.12.06-.12.12a.14.14,0,0,0,.11.12.55.55,0,0,0,.18,0,.6.6,0,0,1,.53.2.15.15,0,0,1,0,.2l-.08,0a.54.54,0,0,1-.38-.07c-.13-.08-.25-.23-.4-.22a.16.16,0,0,0,0,.13,1.64,1.64,0,0,0,.27.36.59.59,0,0,0,.42.17A.17.17,0,0,1,16.64,34.22Z" style="fill: #ef4136;opacity: 0.5;mix-blend-mode: screen"/>
                <path d="M15.61,33.56a.2.2,0,0,0-.16-.06.12.12,0,0,0-.1,0s0,.09,0,.12a.31.31,0,0,0,.23.15.23.23,0,0,0,0-.16A.17.17,0,0,0,15.61,33.56Z" style="fill: #ef4136;opacity: 0.5;mix-blend-mode: screen"/>
                <path d="M14.34,34.12a1.92,1.92,0,0,0,.23.23c.1.07.22.1.32.16s.25.25.42.26.31-.16.4-.32a.17.17,0,0,0,0-.1c0-.07-.11-.1-.18-.1a1.88,1.88,0,0,1-.42,0,1.33,1.33,0,0,1-.27-.13,3.58,3.58,0,0,0-.64-.27.56.56,0,0,0-.44,0A1.68,1.68,0,0,1,14.34,34.12Z" style="fill: #ef4136;opacity: 0.5;mix-blend-mode: screen"/>
                <path d="M14.76,34.7c.22.24.65.29.78.58a1.1,1.1,0,0,1-.41-.08A4.47,4.47,0,0,1,14.5,35a2.52,2.52,0,0,1-.86-.72,1.05,1.05,0,0,1,.43.21c.14.11.27.27.45.27l-.15-.27a.23.23,0,0,1,.23.06A2.34,2.34,0,0,1,14.76,34.7Z" style="fill: #ef4136;opacity: 0.5;mix-blend-mode: screen"/>
                <path d="M15.5,35a.41.41,0,0,1,.27.19.56.56,0,0,0,.24.22c.18.06.38-.08.56,0a1.43,1.43,0,0,1,.18.08.21.21,0,0,0,.19,0,.14.14,0,0,0,.05-.15.25.25,0,0,0-.1-.14.43.43,0,0,0-.23-.08c-.05,0-.11,0-.15,0s0-.11,0-.16a.33.33,0,0,0-.21-.26.66.66,0,0,0-.29-.06.15.15,0,0,0-.09,0c-.08.06,0,.2-.05.27s-.12,0-.19,0S15.5,34.91,15.5,35Z" style="fill: #ef4136;opacity: 0.5;mix-blend-mode: screen"/>
                <path d="M17.47,34v0a.06.06,0,0,0-.08,0,.16.16,0,0,0,0,.07l0,.12a.26.26,0,0,1-.07.11.29.29,0,0,1-.13,0s-.17.05-.16.11.26.07.31.06a.31.31,0,0,0,.23-.19A.46.46,0,0,0,17.47,34Z" style="fill: #ef4136;opacity: 0.5;mix-blend-mode: screen"/>
                <path d="M13.11,33.25c.06,0,.08-.07.09-.13l0-.18a.35.35,0,0,1,0-.06.37.37,0,0,1,.13-.16l.16-.13a1.25,1.25,0,0,1,.28-.15l0,0s0-.07-.07-.08a1,1,0,0,0-.32,0l-.09,0,0,0-.19.22-.07.11a.56.56,0,0,0,0,.47S13.06,33.25,13.11,33.25Z" style="fill: #ef4136;opacity: 0.5;mix-blend-mode: screen"/>
                <path d="M13.55,33.4a.35.35,0,0,0,0-.16.3.3,0,0,1,0-.07s0-.09,0-.11a.07.07,0,0,0-.07,0,.2.2,0,0,0-.08.21.51.51,0,0,0,0,.16v0h.17A.06.06,0,0,0,13.55,33.4Z" style="fill: #ef4136;opacity: 0.5;mix-blend-mode: screen"/>
              </g>
              <g>
                <path d="M10.25,33.57a3,3,0,0,1-.71,0A7.67,7.67,0,0,1,8,33.24a2.87,2.87,0,0,1-1-.48,1.2,1.2,0,0,1-.47-.92,1.36,1.36,0,0,1,.24-.68A1,1,0,0,1,7,30.89a1.27,1.27,0,0,1,.5-.19c.69-.15,1.38-.29,2.07-.43a3.33,3.33,0,0,1,.66-.08,2.34,2.34,0,0,1,1.82,1,1.32,1.32,0,0,1,0,1.4,2.17,2.17,0,0,1-.87.66A3.12,3.12,0,0,1,10.25,33.57Z" style="fill: #ef4136"/>
                <path d="M10.25,33.57a3,3,0,0,1-.71,0A7.67,7.67,0,0,1,8,33.24a2.87,2.87,0,0,1-1-.48,1.2,1.2,0,0,1-.47-.92,1.36,1.36,0,0,1,.24-.68A1,1,0,0,1,7,30.89a1.27,1.27,0,0,1,.5-.19c.69-.15,1.38-.29,2.07-.43a3.33,3.33,0,0,1,.66-.08,2.34,2.34,0,0,1,1.82,1,1.32,1.32,0,0,1,0,1.4,2.17,2.17,0,0,1-.87.66A3.12,3.12,0,0,1,10.25,33.57Z" style="fill: #ef4136;mix-blend-mode: multiply"/>
                <path d="M10.25,33.57a3,3,0,0,1-.71,0A7.67,7.67,0,0,1,8,33.24a2.87,2.87,0,0,1-1-.48,1.2,1.2,0,0,1-.47-.92,1.36,1.36,0,0,1,.24-.68A1,1,0,0,1,7,30.89a1.27,1.27,0,0,1,.5-.19c.69-.15,1.38-.29,2.07-.43a3.33,3.33,0,0,1,.66-.08,2.34,2.34,0,0,1,1.82,1,1.32,1.32,0,0,1,0,1.4,2.17,2.17,0,0,1-.87.66A3.12,3.12,0,0,1,10.25,33.57Z" style="fill: #ef4136;mix-blend-mode: multiply"/>
                <path d="M10.25,33.57a3,3,0,0,1-.71,0A7.67,7.67,0,0,1,8,33.24a2.87,2.87,0,0,1-1-.48,1.2,1.2,0,0,1-.47-.92,1.36,1.36,0,0,1,.24-.68A1,1,0,0,1,7,30.89a1.27,1.27,0,0,1,.5-.19c.69-.15,1.38-.29,2.07-.43a3.33,3.33,0,0,1,.66-.08,2.34,2.34,0,0,1,1.82,1,1.32,1.32,0,0,1,0,1.4,2.17,2.17,0,0,1-.87.66A3.12,3.12,0,0,1,10.25,33.57Z" style="fill: #ef4136;mix-blend-mode: multiply"/>
                <path d="M10.25,33.57a3,3,0,0,1-.71,0A7.67,7.67,0,0,1,8,33.24a2.87,2.87,0,0,1-1-.48,1.2,1.2,0,0,1-.47-.92,1.36,1.36,0,0,1,.24-.68A1,1,0,0,1,7,30.89a1.27,1.27,0,0,1,.5-.19c.69-.15,1.38-.29,2.07-.43a3.33,3.33,0,0,1,.66-.08,2.34,2.34,0,0,1,1.82,1,1.32,1.32,0,0,1,0,1.4,2.17,2.17,0,0,1-.87.66A3.12,3.12,0,0,1,10.25,33.57Z" style="fill: #ef4136;mix-blend-mode: multiply"/>
                <path d="M10.25,33.57a3,3,0,0,1-.71,0A7.67,7.67,0,0,1,8,33.24a2.87,2.87,0,0,1-1-.48,1.2,1.2,0,0,1-.47-.92,1.36,1.36,0,0,1,.24-.68A1,1,0,0,1,7,30.89a1.27,1.27,0,0,1,.5-.19c.69-.15,1.38-.29,2.07-.43a3.33,3.33,0,0,1,.66-.08,2.34,2.34,0,0,1,1.82,1,1.32,1.32,0,0,1,0,1.4,2.17,2.17,0,0,1-.87.66A3.12,3.12,0,0,1,10.25,33.57Z" style="fill: #ef4136;mix-blend-mode: multiply"/>
                <path d="M10.25,33.57a3,3,0,0,1-.71,0A7.67,7.67,0,0,1,8,33.24a2.87,2.87,0,0,1-1-.48,1.2,1.2,0,0,1-.47-.92,1.36,1.36,0,0,1,.24-.68A1,1,0,0,1,7,30.89a1.27,1.27,0,0,1,.5-.19c.69-.15,1.38-.29,2.07-.43a3.33,3.33,0,0,1,.66-.08,2.34,2.34,0,0,1,1.82,1,1.32,1.32,0,0,1,0,1.4,2.17,2.17,0,0,1-.87.66A3.12,3.12,0,0,1,10.25,33.57Z" style="fill: #ef4136;mix-blend-mode: multiply"/>
                <path d="M8.23,31.84c-.06-.09-.2-.1-.26-.19a.19.19,0,0,1,0-.22.37.37,0,0,1,.19-.13.41.41,0,0,0,.14-.06.09.09,0,0,0,0-.13s-.11,0-.17,0a.38.38,0,0,1-.31,0c0-.07.13-.08.2-.09.3,0,.56-.23.86-.25a1.21,1.21,0,0,1,.49.09.77.77,0,0,1,.38.25.3.3,0,0,1,0,.41.39.39,0,0,1-.37,0,.29.29,0,0,0,0-.27.17.17,0,0,0-.25,0,.52.52,0,0,0,.11.14.16.16,0,0,1,0,.17.14.14,0,0,1-.16.06.54.54,0,0,1-.16-.08.6.6,0,0,0-.56-.07c-.07,0-.13.1-.1.17a.16.16,0,0,0,.05.07.54.54,0,0,0,.37.11c.16,0,.33-.09.46,0s-.05.08-.1.1a1.75,1.75,0,0,1-.42.19.6.6,0,0,1-.45,0A.17.17,0,0,0,8.23,31.84Z" style="fill: #ef4136;opacity: 0.5;mix-blend-mode: screen"/>
                <path d="M9.46,31.73a.21.21,0,0,1,.17,0s.07,0,.08.07,0,.08-.09.09a.32.32,0,0,1-.28,0,.23.23,0,0,1,.06-.15A.18.18,0,0,1,9.46,31.73Z" style="fill: #ef4136;opacity: 0.5;mix-blend-mode: screen"/>
                <path d="M10.29,32.8a2,2,0,0,1-.32.1c-.12,0-.24,0-.36,0s-.35.1-.5,0-.19-.29-.19-.46a.17.17,0,0,1,0-.11c0-.06.14,0,.21,0a1.84,1.84,0,0,0,.38.16,1.36,1.36,0,0,0,.3,0,3.66,3.66,0,0,1,.7.05.54.54,0,0,1,.39.2A1.74,1.74,0,0,0,10.29,32.8Z" style="fill: #ef4136;opacity: 0.5;mix-blend-mode: screen"/>
                <path d="M9.64,33.12c-.31.11-.71,0-1,.16a1.09,1.09,0,0,0,.4.12,4.55,4.55,0,0,0,.67.08,2.66,2.66,0,0,0,1.12-.24,1.08,1.08,0,0,0-.48,0c-.18,0-.37.11-.53,0l.27-.17A.23.23,0,0,0,9.87,33C9.79,33,9.72,33.09,9.64,33.12Z" style="fill: #ef4136;opacity: 0.5;mix-blend-mode: screen"/>
                <path d="M8.84,33a.42.42,0,0,0-.33,0,.6.6,0,0,1-.33.08c-.19,0-.29-.24-.48-.29a1.47,1.47,0,0,0-.2,0,.2.2,0,0,1-.17-.09.14.14,0,0,1,0-.16.27.27,0,0,1,.16-.07.43.43,0,0,1,.24,0,.21.21,0,0,0,.15,0c.06,0,.07-.08.1-.13a.35.35,0,0,1,.32-.13.66.66,0,0,1,.29.08.14.14,0,0,1,.07.06c0,.09-.1.17-.09.26s.08.1.14.13S8.88,33,8.84,33Z" style="fill: #ef4136;opacity: 0.5;mix-blend-mode: screen"/>
                <path d="M7.6,31.29l0,0a.06.06,0,0,1,.07,0,.15.15,0,0,1,0,.08l0,.12a.25.25,0,0,0,0,.13.27.27,0,0,0,.09.1s.12.12.09.17-.26-.06-.31-.09a.29.29,0,0,1-.1-.27A.47.47,0,0,1,7.6,31.29Z" style="fill: #ef4136;opacity: 0.5;mix-blend-mode: screen"/>
                <path d="M11.81,32.61c-.05,0,0-.1,0-.15l.07-.17,0-.06a.35.35,0,0,0,0-.2c0-.06,0-.13-.07-.19a1.16,1.16,0,0,0-.17-.26.07.07,0,0,1,0,0s.06,0,.1,0a1,1,0,0,1,.29.12.15.15,0,0,1,.09.12,2.35,2.35,0,0,1,.05.28.89.89,0,0,1,0,.13.57.57,0,0,1-.21.43A.12.12,0,0,1,11.81,32.61Z" style="fill: #ef4136;opacity: 0.5;mix-blend-mode: screen"/>
                <path d="M11.35,32.53a.37.37,0,0,1,.11-.12l.06,0s0-.08.08-.09a.07.07,0,0,1,.06,0,.2.2,0,0,1,0,.22.55.55,0,0,1-.12.12h0l-.09,0,0,0A.06.06,0,0,1,11.35,32.53Z" style="fill: #ef4136;opacity: 0.5;mix-blend-mode: screen"/>
              </g>
              <g>
                <path d="M25.16,30.75a3,3,0,0,0-.71,0,7.66,7.66,0,0,0-1.55.35,2.87,2.87,0,0,0-1,.5,1.19,1.19,0,0,0-.45.93,1.36,1.36,0,0,0,.26.67,1,1,0,0,0,.23.26,1.28,1.28,0,0,0,.5.18c.69.14,1.39.26,2.08.39a3.33,3.33,0,0,0,.66.07,2.34,2.34,0,0,0,1.8-1,1.32,1.32,0,0,0,0-1.4,2.18,2.18,0,0,0-.88-.64A3.13,3.13,0,0,0,25.16,30.75Z" style="fill: #ef4136"/>
                <path d="M25.16,30.75a3,3,0,0,0-.71,0,7.66,7.66,0,0,0-1.55.35,2.87,2.87,0,0,0-1,.5,1.19,1.19,0,0,0-.45.93,1.36,1.36,0,0,0,.26.67,1,1,0,0,0,.23.26,1.28,1.28,0,0,0,.5.18c.69.14,1.39.26,2.08.39a3.33,3.33,0,0,0,.66.07,2.34,2.34,0,0,0,1.8-1,1.32,1.32,0,0,0,0-1.4,2.18,2.18,0,0,0-.88-.64A3.13,3.13,0,0,0,25.16,30.75Z" style="fill: #ef4136;mix-blend-mode: multiply"/>
                <path d="M25.16,30.75a3,3,0,0,0-.71,0,7.66,7.66,0,0,0-1.55.35,2.87,2.87,0,0,0-1,.5,1.19,1.19,0,0,0-.45.93,1.36,1.36,0,0,0,.26.67,1,1,0,0,0,.23.26,1.28,1.28,0,0,0,.5.18c.69.14,1.39.26,2.08.39a3.33,3.33,0,0,0,.66.07,2.34,2.34,0,0,0,1.8-1,1.32,1.32,0,0,0,0-1.4,2.18,2.18,0,0,0-.88-.64A3.13,3.13,0,0,0,25.16,30.75Z" style="fill: #ef4136;mix-blend-mode: multiply"/>
                <path d="M25.16,30.75a3,3,0,0,0-.71,0,7.66,7.66,0,0,0-1.55.35,2.87,2.87,0,0,0-1,.5,1.19,1.19,0,0,0-.45.93,1.36,1.36,0,0,0,.26.67,1,1,0,0,0,.23.26,1.28,1.28,0,0,0,.5.18c.69.14,1.39.26,2.08.39a3.33,3.33,0,0,0,.66.07,2.34,2.34,0,0,0,1.8-1,1.32,1.32,0,0,0,0-1.4,2.18,2.18,0,0,0-.88-.64A3.13,3.13,0,0,0,25.16,30.75Z" style="fill: #ef4136;mix-blend-mode: multiply"/>
                <path d="M25.16,30.75a3,3,0,0,0-.71,0,7.66,7.66,0,0,0-1.55.35,2.87,2.87,0,0,0-1,.5,1.19,1.19,0,0,0-.45.93,1.36,1.36,0,0,0,.26.67,1,1,0,0,0,.23.26,1.28,1.28,0,0,0,.5.18c.69.14,1.39.26,2.08.39a3.33,3.33,0,0,0,.66.07,2.34,2.34,0,0,0,1.8-1,1.32,1.32,0,0,0,0-1.4,2.18,2.18,0,0,0-.88-.64A3.13,3.13,0,0,0,25.16,30.75Z" style="fill: #ef4136;mix-blend-mode: multiply"/>
                <path d="M25.16,30.75a3,3,0,0,0-.71,0,7.66,7.66,0,0,0-1.55.35,2.87,2.87,0,0,0-1,.5,1.19,1.19,0,0,0-.45.93,1.36,1.36,0,0,0,.26.67,1,1,0,0,0,.23.26,1.28,1.28,0,0,0,.5.18c.69.14,1.39.26,2.08.39a3.33,3.33,0,0,0,.66.07,2.34,2.34,0,0,0,1.8-1,1.32,1.32,0,0,0,0-1.4,2.18,2.18,0,0,0-.88-.64A3.13,3.13,0,0,0,25.16,30.75Z" style="fill: #ef4136;mix-blend-mode: multiply"/>
                <path d="M25.16,30.75a3,3,0,0,0-.71,0,7.66,7.66,0,0,0-1.55.35,2.87,2.87,0,0,0-1,.5,1.19,1.19,0,0,0-.45.93,1.36,1.36,0,0,0,.26.67,1,1,0,0,0,.23.26,1.28,1.28,0,0,0,.5.18c.69.14,1.39.26,2.08.39a3.33,3.33,0,0,0,.66.07,2.34,2.34,0,0,0,1.8-1,1.32,1.32,0,0,0,0-1.4,2.18,2.18,0,0,0-.88-.64A3.13,3.13,0,0,0,25.16,30.75Z" style="fill: #ef4136;mix-blend-mode: multiply"/>
                <path d="M23.17,32.52c-.06.09-.2.11-.26.2a.19.19,0,0,0,0,.22.37.37,0,0,0,.2.12.41.41,0,0,1,.14.05.09.09,0,0,1,0,.13s-.11,0-.17,0a.38.38,0,0,0-.3,0c0,.07.13.08.2.09.3,0,.56.22.86.24a1.21,1.21,0,0,0,.48-.1.77.77,0,0,0,.38-.26.3.3,0,0,0,0-.41.39.39,0,0,0-.37,0,.29.29,0,0,1,0,.27.17.17,0,0,1-.25,0,.52.52,0,0,1,.11-.15.16.16,0,0,0,0-.17.14.14,0,0,0-.16-.06.54.54,0,0,0-.16.08.6.6,0,0,1-.56.08c-.07,0-.13-.1-.1-.17a.16.16,0,0,1,.05-.07.54.54,0,0,1,.37-.12c.16,0,.33.08.46,0s-.06-.07-.1-.1a1.76,1.76,0,0,0-.43-.18.6.6,0,0,0-.45.05A.17.17,0,0,1,23.17,32.52Z" style="fill: #ef4136;opacity: 0.5;mix-blend-mode: screen"/>
                <path d="M24.41,32.61a.21.21,0,0,0,.17,0s.07,0,.08-.07,0-.08-.09-.09a.32.32,0,0,0-.28,0,.23.23,0,0,0,.06.15A.18.18,0,0,0,24.41,32.61Z" style="fill: #ef4136;opacity: 0.5;mix-blend-mode: screen"/>
                <path d="M25.22,31.52a2,2,0,0,0-.32-.09c-.12,0-.24,0-.36,0s-.35-.1-.5,0-.18.29-.18.47a.17.17,0,0,0,0,.11c0,.06.14,0,.21,0a1.84,1.84,0,0,1,.38-.17,1.36,1.36,0,0,1,.3,0,3.66,3.66,0,0,0,.7-.07.54.54,0,0,0,.39-.21A1.74,1.74,0,0,1,25.22,31.52Z" style="fill: #ef4136;opacity: 0.5;mix-blend-mode: screen"/>
                <path d="M24.55,31.22c-.32-.1-.71.05-1-.14A1.09,1.09,0,0,1,24,31a4.54,4.54,0,0,1,.67-.09,2.66,2.66,0,0,1,1.13.22,1.08,1.08,0,0,1-.48,0c-.18,0-.38-.11-.54,0l.27.16a.22.22,0,0,1-.23.06C24.71,31.28,24.63,31.24,24.55,31.22Z" style="fill: #ef4136;opacity: 0.5;mix-blend-mode: screen"/>
                <path d="M23.76,31.33a.42.42,0,0,1-.33,0,.6.6,0,0,0-.33-.08c-.19,0-.29.25-.47.29a1.47,1.47,0,0,1-.2,0,.2.2,0,0,0-.16.09.14.14,0,0,0,0,.16.27.27,0,0,0,.16.07.43.43,0,0,0,.24,0,.21.21,0,0,1,.14,0c.06,0,.08.08.11.13a.36.36,0,0,0,.32.13.65.65,0,0,0,.29-.08.14.14,0,0,0,.07-.07c0-.09-.11-.17-.1-.26s.08-.1.14-.13S23.8,31.39,23.76,31.33Z" style="fill: #ef4136;opacity: 0.5;mix-blend-mode: screen"/>
                <path d="M22.55,33.07l0,0a.06.06,0,0,0,.07,0,.15.15,0,0,0,0-.08l0-.12a.25.25,0,0,1,0-.13.27.27,0,0,1,.09-.11s.12-.12.08-.17-.26.06-.3.1a.29.29,0,0,0-.1.27A.47.47,0,0,0,22.55,33.07Z" style="fill: #ef4136;opacity: 0.5;mix-blend-mode: screen"/>
                <path d="M26.74,31.68c-.05,0,0,.1,0,.15l.07.17,0,.06a.35.35,0,0,1,0,.2c0,.06,0,.13-.07.19a1.16,1.16,0,0,1-.16.27.07.07,0,0,0,0,0s.06,0,.1,0a1,1,0,0,0,.29-.12.15.15,0,0,0,.09-.12,2.35,2.35,0,0,0,0-.28.89.89,0,0,0,0-.13.58.58,0,0,0-.22-.43A.12.12,0,0,0,26.74,31.68Z" style="fill: #ef4136;opacity: 0.5;mix-blend-mode: screen"/>
                <path d="M26.28,31.76a.37.37,0,0,0,.11.12l.06,0s0,.08.09.08a.07.07,0,0,0,.06,0,.2.2,0,0,0,0-.22.55.55,0,0,0-.13-.12h0l-.09,0,0,0A.06.06,0,0,0,26.28,31.76Z" style="fill: #ef4136;opacity: 0.5;mix-blend-mode: screen"/>
              </g>
              <g>
                <path d="M20.95,30.77a2.9,2.9,0,0,0-.65.28,7.36,7.36,0,0,0-1.29.89,2.72,2.72,0,0,0-.69.82,1.17,1.17,0,0,0,0,1,1.43,1.43,0,0,0,.51.53,1,1,0,0,0,.32.16,1.3,1.3,0,0,0,.53,0c.7-.12,1.39-.26,2.08-.4a3.3,3.3,0,0,0,.64-.17,2.06,2.06,0,0,0,.52-.33,2,2,0,0,0,.74-1.26A1.35,1.35,0,0,0,23,31,2.27,2.27,0,0,0,22,30.72,3.17,3.17,0,0,0,20.95,30.77Z" style="fill: #ef4136"/>
                <path d="M20.95,30.77a2.9,2.9,0,0,0-.65.28,7.36,7.36,0,0,0-1.29.89,2.72,2.72,0,0,0-.69.82,1.17,1.17,0,0,0,0,1,1.43,1.43,0,0,0,.51.53,1,1,0,0,0,.32.16,1.3,1.3,0,0,0,.53,0c.7-.12,1.39-.26,2.08-.4a3.3,3.3,0,0,0,.64-.17,2.06,2.06,0,0,0,.52-.33,2,2,0,0,0,.74-1.26A1.35,1.35,0,0,0,23,31,2.27,2.27,0,0,0,22,30.72,3.17,3.17,0,0,0,20.95,30.77Z" style="fill: #ef4136;mix-blend-mode: multiply"/>
                <path d="M20.95,30.77a2.9,2.9,0,0,0-.65.28,7.36,7.36,0,0,0-1.29.89,2.72,2.72,0,0,0-.69.82,1.17,1.17,0,0,0,0,1,1.43,1.43,0,0,0,.51.53,1,1,0,0,0,.32.16,1.3,1.3,0,0,0,.53,0c.7-.12,1.39-.26,2.08-.4a3.3,3.3,0,0,0,.64-.17,2.06,2.06,0,0,0,.52-.33,2,2,0,0,0,.74-1.26A1.35,1.35,0,0,0,23,31,2.27,2.27,0,0,0,22,30.72,3.17,3.17,0,0,0,20.95,30.77Z" style="fill: #ef4136;mix-blend-mode: multiply"/>
                <path d="M20.95,30.77a2.9,2.9,0,0,0-.65.28,7.36,7.36,0,0,0-1.29.89,2.72,2.72,0,0,0-.69.82,1.17,1.17,0,0,0,0,1,1.43,1.43,0,0,0,.51.53,1,1,0,0,0,.32.16,1.3,1.3,0,0,0,.53,0c.7-.12,1.39-.26,2.08-.4a3.3,3.3,0,0,0,.64-.17,2.06,2.06,0,0,0,.52-.33,2,2,0,0,0,.74-1.26A1.35,1.35,0,0,0,23,31,2.27,2.27,0,0,0,22,30.72,3.17,3.17,0,0,0,20.95,30.77Z" style="fill: #ef4136;mix-blend-mode: multiply"/>
                <path d="M20.95,30.77a2.9,2.9,0,0,0-.65.28,7.36,7.36,0,0,0-1.29.89,2.72,2.72,0,0,0-.69.82,1.17,1.17,0,0,0,0,1,1.43,1.43,0,0,0,.51.53,1,1,0,0,0,.32.16,1.3,1.3,0,0,0,.53,0c.7-.12,1.39-.26,2.08-.4a3.3,3.3,0,0,0,.64-.17,2.06,2.06,0,0,0,.52-.33,2,2,0,0,0,.74-1.26A1.35,1.35,0,0,0,23,31,2.27,2.27,0,0,0,22,30.72,3.17,3.17,0,0,0,20.95,30.77Z" style="fill: #ef4136;mix-blend-mode: multiply"/>
                <path d="M20.95,30.77a2.9,2.9,0,0,0-.65.28,7.36,7.36,0,0,0-1.29.89,2.72,2.72,0,0,0-.69.82,1.17,1.17,0,0,0,0,1,1.43,1.43,0,0,0,.51.53,1,1,0,0,0,.32.16,1.3,1.3,0,0,0,.53,0c.7-.12,1.39-.26,2.08-.4a3.3,3.3,0,0,0,.64-.17,2.06,2.06,0,0,0,.52-.33,2,2,0,0,0,.74-1.26A1.35,1.35,0,0,0,23,31,2.27,2.27,0,0,0,22,30.72,3.17,3.17,0,0,0,20.95,30.77Z" style="fill: #ef4136;mix-blend-mode: multiply"/>
                <path d="M20.95,30.77a2.9,2.9,0,0,0-.65.28,7.36,7.36,0,0,0-1.29.89,2.72,2.72,0,0,0-.69.82,1.17,1.17,0,0,0,0,1,1.43,1.43,0,0,0,.51.53,1,1,0,0,0,.32.16,1.3,1.3,0,0,0,.53,0c.7-.12,1.39-.26,2.08-.4a3.3,3.3,0,0,0,.64-.17,2.06,2.06,0,0,0,.52-.33,2,2,0,0,0,.74-1.26A1.35,1.35,0,0,0,23,31,2.27,2.27,0,0,0,22,30.72,3.17,3.17,0,0,0,20.95,30.77Z" style="fill: #ef4136;mix-blend-mode: multiply"/>
                <path d="M19.82,33.13c0,.1-.14.17-.16.28a.2.2,0,0,0,.1.19.38.38,0,0,0,.23,0,.42.42,0,0,1,.15,0s.09.07.07.11-.1,0-.16,0a.37.37,0,0,0-.27.13c.06,0,.15,0,.22,0,.29-.07.61,0,.89-.1a1.16,1.16,0,0,0,.41-.27.73.73,0,0,0,.24-.38.31.31,0,0,0-.2-.36A.38.38,0,0,0,21,33a.3.3,0,0,1,.09.25.17.17,0,0,1-.22.12.49.49,0,0,1,0-.18.16.16,0,0,0,0-.17.15.15,0,0,0-.17,0,.51.51,0,0,0-.12.13.59.59,0,0,1-.48.28c-.08,0-.16,0-.16-.12a.16.16,0,0,1,0-.08.51.51,0,0,1,.29-.24c.15-.05.34,0,.43-.17a.18.18,0,0,0-.13-.05,1.8,1.8,0,0,0-.47,0,.59.59,0,0,0-.4.21A.17.17,0,0,1,19.82,33.13Z" style="fill: #ef4136;opacity: 0.5;mix-blend-mode: screen"/>
                <path d="M21,32.76a.2.2,0,0,0,.15-.09s.05-.06,0-.1-.07-.05-.12-.05a.32.32,0,0,0-.26.09.24.24,0,0,0,.12.12Z" style="fill: #ef4136;opacity: 0.5;mix-blend-mode: screen"/>
                <path d="M21.31,31.46a2.06,2.06,0,0,0-.33,0c-.12,0-.21.11-.33.15s-.36,0-.47.16-.05.34,0,.5a.17.17,0,0,0,.07.09c.07,0,.15,0,.2-.08a1.74,1.74,0,0,1,.28-.3,1.33,1.33,0,0,1,.27-.13,3.55,3.55,0,0,0,.62-.32.51.51,0,0,0,.27-.33A1.71,1.71,0,0,1,21.31,31.46Z" style="fill: #ef4136;opacity: 0.5;mix-blend-mode: screen"/>
                <path d="M20.57,31.42c-.33,0-.63.31-1,.23a1,1,0,0,1,.31-.26,4.39,4.39,0,0,1,.58-.33,2.66,2.66,0,0,1,1.13-.21,1.06,1.06,0,0,1-.43.2c-.18,0-.39,0-.5.18l.32.05a.22.22,0,0,1-.19.14C20.74,31.43,20.66,31.42,20.57,31.42Z" style="fill: #ef4136;opacity: 0.5;mix-blend-mode: screen"/>
                <path d="M19.89,31.82a.42.42,0,0,1-.32.09.6.6,0,0,0-.33,0c-.16.1-.17.33-.32.44a1.43,1.43,0,0,1-.18.09.19.19,0,0,0-.12.14.15.15,0,0,0,.09.14.28.28,0,0,0,.18,0,.42.42,0,0,0,.21-.13s.07-.08.12-.09.1,0,.15.08a.36.36,0,0,0,.34,0,.63.63,0,0,0,.23-.18.14.14,0,0,0,0-.09c0-.1-.17-.12-.19-.21s0-.12.08-.17S19.94,31.85,19.89,31.82Z" style="fill: #ef4136;opacity: 0.5;mix-blend-mode: screen"/>
                <path d="M19.47,33.87h0a.06.06,0,0,0,.05-.06.16.16,0,0,0,0-.08l-.07-.11a.19.19,0,0,1,0-.25s.06-.16,0-.19-.22.15-.24.2a.29.29,0,0,0,0,.29A.5.5,0,0,0,19.47,33.87Z" style="fill: #ef4136;opacity: 0.5;mix-blend-mode: screen"/>
                <path d="M22.78,31.05s0,.11.05.14l.14.13,0,0a.35.35,0,0,1,.06.19c0,.07,0,.13,0,.2a1.12,1.12,0,0,1,0,.3.07.07,0,0,0,0,0s.08,0,.11,0a.92.92,0,0,0,.22-.22.19.19,0,0,0,0-.08.2.2,0,0,0,0-.06,2.36,2.36,0,0,0-.07-.27.91.91,0,0,0,0-.12A.61.61,0,0,0,22.9,31S22.81,31,22.78,31.05Z" style="fill: #ef4136;opacity: 0.5;mix-blend-mode: screen"/>
                <path d="M22.39,31.3a.39.39,0,0,0,.15.07l.08,0s.07.06.11,0a.07.07,0,0,0,0-.06.21.21,0,0,0-.12-.19l-.17-.06h0l0,0-.06.07,0,0S22.37,31.28,22.39,31.3Z" style="fill: #ef4136;opacity: 0.5;mix-blend-mode: screen"/>
              </g>
              <g>
                <path d="M14.57,33.9a2.88,2.88,0,0,1-.63.32,7.64,7.64,0,0,1-1.53.43,3,3,0,0,1-1.1,0,1.28,1.28,0,0,1-.88-.59,1.34,1.34,0,0,1-.13-.7.94.94,0,0,1,.07-.34,1.19,1.19,0,0,1,.34-.39c.52-.45,1.06-.89,1.6-1.33a3.18,3.18,0,0,1,.53-.38,2.11,2.11,0,0,1,.59-.19,2.24,2.24,0,0,1,1.5.2,1.36,1.36,0,0,1,.73,1.22,2,2,0,0,1-.43,1A2.93,2.93,0,0,1,14.57,33.9Z" style="fill: #ef4136"/>
                <path d="M14.57,33.9a2.88,2.88,0,0,1-.63.32,7.64,7.64,0,0,1-1.53.43,3,3,0,0,1-1.1,0,1.28,1.28,0,0,1-.88-.59,1.34,1.34,0,0,1-.13-.7.94.94,0,0,1,.07-.34,1.19,1.19,0,0,1,.34-.39c.52-.45,1.06-.89,1.6-1.33a3.18,3.18,0,0,1,.53-.38,2.11,2.11,0,0,1,.59-.19,2.24,2.24,0,0,1,1.5.2,1.36,1.36,0,0,1,.73,1.22,2,2,0,0,1-.43,1A2.93,2.93,0,0,1,14.57,33.9Z" style="fill: #ef4136;mix-blend-mode: multiply"/>
                <path d="M14.57,33.9a2.88,2.88,0,0,1-.63.32,7.64,7.64,0,0,1-1.53.43,3,3,0,0,1-1.1,0,1.28,1.28,0,0,1-.88-.59,1.34,1.34,0,0,1-.13-.7.94.94,0,0,1,.07-.34,1.19,1.19,0,0,1,.34-.39c.52-.45,1.06-.89,1.6-1.33a3.18,3.18,0,0,1,.53-.38,2.11,2.11,0,0,1,.59-.19,2.24,2.24,0,0,1,1.5.2,1.36,1.36,0,0,1,.73,1.22,2,2,0,0,1-.43,1A2.93,2.93,0,0,1,14.57,33.9Z" style="fill: #ef4136;mix-blend-mode: multiply"/>
                <path d="M14.57,33.9a2.88,2.88,0,0,1-.63.32,7.64,7.64,0,0,1-1.53.43,3,3,0,0,1-1.1,0,1.28,1.28,0,0,1-.88-.59,1.34,1.34,0,0,1-.13-.7.94.94,0,0,1,.07-.34,1.19,1.19,0,0,1,.34-.39c.52-.45,1.06-.89,1.6-1.33a3.18,3.18,0,0,1,.53-.38,2.11,2.11,0,0,1,.59-.19,2.24,2.24,0,0,1,1.5.2,1.36,1.36,0,0,1,.73,1.22,2,2,0,0,1-.43,1A2.93,2.93,0,0,1,14.57,33.9Z" style="fill: #ef4136;mix-blend-mode: multiply"/>
                <path d="M14.57,33.9a2.88,2.88,0,0,1-.63.32,7.64,7.64,0,0,1-1.53.43,3,3,0,0,1-1.1,0,1.28,1.28,0,0,1-.88-.59,1.34,1.34,0,0,1-.13-.7.94.94,0,0,1,.07-.34,1.19,1.19,0,0,1,.34-.39c.52-.45,1.06-.89,1.6-1.33a3.18,3.18,0,0,1,.53-.38,2.11,2.11,0,0,1,.59-.19,2.24,2.24,0,0,1,1.5.2,1.36,1.36,0,0,1,.73,1.22,2,2,0,0,1-.43,1A2.93,2.93,0,0,1,14.57,33.9Z" style="fill: #ef4136;mix-blend-mode: multiply"/>
                <path d="M14.57,33.9a2.88,2.88,0,0,1-.63.32,7.64,7.64,0,0,1-1.53.43,3,3,0,0,1-1.1,0,1.28,1.28,0,0,1-.88-.59,1.34,1.34,0,0,1-.13-.7.94.94,0,0,1,.07-.34,1.19,1.19,0,0,1,.34-.39c.52-.45,1.06-.89,1.6-1.33a3.18,3.18,0,0,1,.53-.38,2.11,2.11,0,0,1,.59-.19,2.24,2.24,0,0,1,1.5.2,1.36,1.36,0,0,1,.73,1.22,2,2,0,0,1-.43,1A2.93,2.93,0,0,1,14.57,33.9Z" style="fill: #ef4136;mix-blend-mode: multiply"/>
                <path d="M14.57,33.9a2.88,2.88,0,0,1-.63.32,7.64,7.64,0,0,1-1.53.43,3,3,0,0,1-1.1,0,1.28,1.28,0,0,1-.88-.59,1.34,1.34,0,0,1-.13-.7.94.94,0,0,1,.07-.34,1.19,1.19,0,0,1,.34-.39c.52-.45,1.06-.89,1.6-1.33a3.18,3.18,0,0,1,.53-.38,2.11,2.11,0,0,1,.59-.19,2.24,2.24,0,0,1,1.5.2,1.36,1.36,0,0,1,.73,1.22,2,2,0,0,1-.43,1A2.93,2.93,0,0,1,14.57,33.9Z" style="fill: #ef4136;mix-blend-mode: multiply"/>
                <path d="M11.91,33.32c-.1,0-.23,0-.33,0a.2.2,0,0,1-.1-.19.34.34,0,0,1,.11-.2.39.39,0,0,0,.1-.12.09.09,0,0,0,0-.12c-.06,0-.1,0-.14.09a.37.37,0,0,1-.27.13c0-.07.07-.13.13-.17.24-.18.37-.46.62-.62a1.2,1.2,0,0,1,.47-.14.81.81,0,0,1,.46,0,.31.31,0,0,1,.18.37.37.37,0,0,1-.32.18.31.31,0,0,0-.15-.23.17.17,0,0,0-.23.09.55.55,0,0,0,.17.07c.06,0,.12.06.12.12a.14.14,0,0,1-.11.12.55.55,0,0,1-.18,0,.6.6,0,0,0-.53.2.15.15,0,0,0,0,.2l.08,0a.54.54,0,0,0,.38-.07c.13-.08.25-.23.4-.22a.16.16,0,0,1,0,.13,1.64,1.64,0,0,1-.27.36.59.59,0,0,1-.42.17A.17.17,0,0,0,11.91,33.32Z" style="fill: #ef4136;opacity: 0.5;mix-blend-mode: screen"/>
                <path d="M12.94,32.66a.2.2,0,0,1,.16-.06.12.12,0,0,1,.1,0s0,.09,0,.12a.31.31,0,0,1-.23.15.23.23,0,0,1,0-.16A.17.17,0,0,1,12.94,32.66Z" style="fill: #ef4136;opacity: 0.5;mix-blend-mode: screen"/>
                <path d="M14.21,33.21a1.92,1.92,0,0,1-.23.23c-.1.07-.22.1-.32.16s-.25.25-.42.26-.31-.16-.4-.32a.17.17,0,0,1,0-.1c0-.07.11-.1.18-.1a1.88,1.88,0,0,0,.42,0,1.33,1.33,0,0,0,.27-.13,3.58,3.58,0,0,1,.64-.27.56.56,0,0,1,.44,0A1.68,1.68,0,0,0,14.21,33.21Z" style="fill: #ef4136;opacity: 0.5;mix-blend-mode: screen"/>
                <path d="M13.8,33.79c-.22.24-.65.29-.78.58a1.1,1.1,0,0,0,.41-.08,4.47,4.47,0,0,0,.63-.24,2.52,2.52,0,0,0,.86-.72,1.05,1.05,0,0,0-.43.21c-.14.11-.27.27-.45.27l.15-.27a.23.23,0,0,0-.23.06A2.34,2.34,0,0,0,13.8,33.79Z" style="fill: #ef4136;opacity: 0.5;mix-blend-mode: screen"/>
                <path d="M13,34.07a.41.41,0,0,0-.27.19.57.57,0,0,1-.24.22c-.18.06-.38-.08-.56,0a1.43,1.43,0,0,0-.18.08.21.21,0,0,1-.19,0,.14.14,0,0,1-.05-.15.25.25,0,0,1,.1-.14.43.43,0,0,1,.23-.08c.05,0,.11,0,.15,0s0-.11,0-.16a.33.33,0,0,1,.21-.26.66.66,0,0,1,.29-.06.15.15,0,0,1,.09,0c.08.06,0,.2.05.27s.12,0,.19,0S13.05,34,13,34.07Z" style="fill: #ef4136;opacity: 0.5;mix-blend-mode: screen"/>
                <path d="M11.09,33.13v0a.06.06,0,0,1,.08,0,.16.16,0,0,1,0,.07l0,.12a.26.26,0,0,0,.07.11.29.29,0,0,0,.13,0s.17.05.16.11-.26.07-.31.06a.31.31,0,0,1-.23-.19A.46.46,0,0,1,11.09,33.13Z" style="fill: #ef4136;opacity: 0.5;mix-blend-mode: screen"/>
                <path d="M15.45,32.35c-.06,0-.08-.07-.09-.13l0-.18a.35.35,0,0,0,0-.06.37.37,0,0,0-.13-.16L15,31.69a1.25,1.25,0,0,0-.28-.15l0,0s0-.07.07-.08a1,1,0,0,1,.32,0l.09,0,0,0,.19.22.07.11a.56.56,0,0,1,0,.47S15.49,32.35,15.45,32.35Z" style="fill: #ef4136;opacity: 0.5;mix-blend-mode: screen"/>
                <path d="M15,32.49a.35.35,0,0,1,0-.16.3.3,0,0,0,0-.07s0-.09,0-.11a.07.07,0,0,1,.07,0,.2.2,0,0,1,.08.21.51.51,0,0,1,0,.16v0H15A.06.06,0,0,1,15,32.49Z" style="fill: #ef4136;opacity: 0.5;mix-blend-mode: screen"/>
              </g>
            </g>
            <path d="M27.73,32.5a17.43,17.43,0,0,1-.56,2.68C26.46,37.66,24.9,41,21.69,41H12.06c-3.21,0-4.76-3.31-5.48-5.79A17.43,17.43,0,0,1,6,32.5Z" style="fill: #ef4136"/>
            <path d="M27.73,32.5a16.56,16.56,0,0,1-.41,2.14c0,.17-.09.35-.15.54s-.2.65-.32,1l-.06.15A11.65,11.65,0,0,1,26,38.1,5,5,0,0,1,21.69,41H12.06A5,5,0,0,1,7.78,38.1,11.65,11.65,0,0,1,7,36.32l-.06-.15c-.12-.34-.23-.67-.32-1s-.1-.36-.15-.54A16.56,16.56,0,0,1,6,32.5Z" style="fill: #ef4136;mix-blend-mode: multiply"/>
            <path d="M27.73,32.5a17.43,17.43,0,0,1-.56,2.68H6.58A17.43,17.43,0,0,1,6,32.5Z" style="fill: #ef4136;mix-blend-mode: multiply"/>
            <rect x="5.33" y="31.97" width="23.08" height="1.07" rx="0.53" ry="0.53" style="fill: #ef4136"/>
          </g>
          <g>
            <path d="M43,40H39a1.73,1.73,0,0,1,.24-.77,2,2,0,0,1,.76-.71,2.14,2.14,0,0,0,.6-1.48V34.94h.81V37a2.14,2.14,0,0,0,.6,1.48,2,2,0,0,1,.76.71A1.73,1.73,0,0,1,43,40Z" style="fill: #f15a29"/>
            <path d="M43,40H39a1.73,1.73,0,0,1,.24-.77,2,2,0,0,1,.76-.71,2.14,2.14,0,0,0,.6-1.48V34.94h.81V37a2.14,2.14,0,0,0,.6,1.48,2,2,0,0,1,.76.71A1.73,1.73,0,0,1,43,40Z" style="fill: #f15a29;mix-blend-mode: multiply"/>
            <path d="M41.43,34.94v.93h-.81v-.93Z" style="fill: #f15a29;mix-blend-mode: multiply"/>
            <path d="M43,40H39a1.73,1.73,0,0,1,.24-.77h3.54A1.73,1.73,0,0,1,43,40Z" style="fill: #f15a29;mix-blend-mode: multiply"/>
            <path d="M45.26,25H36.78s.05,1.3.22,2.93a20.75,20.75,0,0,0,1,5.18,2.77,2.77,0,0,0,2.62,2h.71a2.77,2.77,0,0,0,2.62-2,20.76,20.76,0,0,0,1-5.18C45.21,26.29,45.26,25,45.26,25Z" style="fill: #f15a29"/>
            <path d="M45.26,25H36.78s.05,1.3.22,2.93a20.75,20.75,0,0,0,1,5.18,2.77,2.77,0,0,0,2.62,2h.71a2.77,2.77,0,0,0,2.62-2,20.76,20.76,0,0,0,1-5.18C45.21,26.29,45.26,25,45.26,25Z" style="fill: #f15a29;mix-blend-mode: multiply"/>
            <path d="M45.26,25s-.05,1.3-.22,2.93H37c-.17-1.63-.22-2.93-.22-2.93Z" style="fill: #f15a29;mix-blend-mode: multiply"/>
            <path d="M45.26,25s0,.22,0,.58H36.81c0-.37,0-.58,0-.58Z" style="fill: #f15a29"/>
            <path d="M43,39.8H39c-.66.23-1.09.57-1.15,1h6.26C44.09,40.37,43.66,40,43,39.8Z" style="fill: #f15a29"/>
            <path d="M43,39.8H39c-.66.23-1.09.57-1.15,1h6.26C44.09,40.37,43.66,40,43,39.8Z" style="fill: #f15a29;mix-blend-mode: multiply"/>
            <path d="M44.11,41H37.93a.14.14,0,0,1-.14-.14h0a.14.14,0,0,1,.14-.14h6.18a.14.14,0,0,1,.14.14h0A.14.14,0,0,1,44.11,41Z" style="fill: #f15a29"/>
          </g>
          <g>
            <path d="M34.76,39.91H30.51a1.83,1.83,0,0,1,.25-.81,2.07,2.07,0,0,1,.81-.76,2.27,2.27,0,0,0,.64-1.57V34.59h.86v2.18a2.27,2.27,0,0,0,.64,1.57,2.07,2.07,0,0,1,.81.76A1.83,1.83,0,0,1,34.76,39.91Z" style="fill: #f15a29;stroke: #f7941e;stroke-miterlimit: 10"/>
            <path d="M34.76,39.91H30.51a1.83,1.83,0,0,1,.25-.81,2.07,2.07,0,0,1,.81-.76,2.27,2.27,0,0,0,.64-1.57V34.59h.86v2.18a2.27,2.27,0,0,0,.64,1.57,2.07,2.07,0,0,1,.81.76A1.83,1.83,0,0,1,34.76,39.91Z" style="fill: #f15a29;stroke: #f7941e;stroke-miterlimit: 10;mix-blend-mode: multiply"/>
            <path d="M33.07,34.59v1h-.86v-1Z" style="fill: #f15a29;stroke: #f7941e;stroke-miterlimit: 10;mix-blend-mode: multiply"/>
            <path d="M34.76,39.91H30.51a1.83,1.83,0,0,1,.25-.81h3.75A1.83,1.83,0,0,1,34.76,39.91Z" style="fill: #f15a29;stroke: #f7941e;stroke-miterlimit: 10;mix-blend-mode: multiply"/>
            <path d="M37.14,24h-9s.05,1.38.23,3.1a22,22,0,0,0,1.11,5.49,2.93,2.93,0,0,0,2.78,2.08H33a2.93,2.93,0,0,0,2.78-2.08,22,22,0,0,0,1.11-5.49C37.08,25.42,37.14,24,37.14,24Z" style="fill: #f15a29;stroke: #f7941e;stroke-miterlimit: 10"/>
            <path d="M37.14,24h-9s.05,1.38.23,3.1a22,22,0,0,0,1.11,5.49,2.93,2.93,0,0,0,2.78,2.08H33a2.93,2.93,0,0,0,2.78-2.08,22,22,0,0,0,1.11-5.49C37.08,25.42,37.14,24,37.14,24Z" style="fill: #f15a29;stroke: #f7941e;stroke-miterlimit: 10;mix-blend-mode: multiply"/>
            <path d="M37.14,24s-.05,1.38-.23,3.1H28.37c-.18-1.72-.23-3.1-.23-3.1Z" style="fill: #f15a29;stroke: #f7941e;stroke-miterlimit: 10;mix-blend-mode: multiply"/>
            <path d="M37.14,24s0,.23,0,.62H28.17c0-.39,0-.62,0-.62Z" style="fill: #f15a29;stroke: #f7941e;stroke-miterlimit: 10"/>
            <path d="M34.74,39.73h-4.2c-.7.24-1.16.6-1.21,1H36C35.89,40.33,35.43,40,34.74,39.73Z" style="fill: #f15a29;stroke: #f7941e;stroke-miterlimit: 10"/>
            <path d="M34.74,39.73h-4.2c-.7.24-1.16.6-1.21,1H36C35.89,40.33,35.43,40,34.74,39.73Z" style="fill: #f15a29;stroke: #f7941e;stroke-miterlimit: 10;mix-blend-mode: multiply"/>
            <path d="M35.91,41H29.36a.15.15,0,0,1-.15-.14h0a.15.15,0,0,1,.15-.14h6.55a.15.15,0,0,1,.15.14h0A.15.15,0,0,1,35.91,41Z" style="fill: #f15a29;stroke: #f7941e;stroke-miterlimit: 10"/>
          </g>
        </g>
      </g>
    </g>
  </g>
</svg>
