<svg xmlns="http://www.w3.org/2000/svg" xmlns:xlink="http://www.w3.org/1999/xlink" viewBox="0 0 139.55 84.34">
  <defs>
    <linearGradient id="linear-gradient" x1="72.44" y1="80.44" x2="73.22" y2="80.44" gradientUnits="userSpaceOnUse">
      <stop offset="0" stop-color="#fff"/>
      <stop offset="0.07" stop-color="#f8fcfe"/>
      <stop offset="0.17" stop-color="#e4f3fd"/>
      <stop offset="0.28" stop-color="#c4e5fa"/>
      <stop offset="0.41" stop-color="#97d1f6"/>
      <stop offset="0.56" stop-color="#5eb7f2"/>
      <stop offset="0.71" stop-color="#1998ec"/>
      <stop offset="0.76" stop-color="#008dea"/>
      <stop offset="0.99" stop-color="#008de9"/>
    </linearGradient>
    <linearGradient id="linear-gradient-2" x1="73.74" y1="80.68" x2="79.58" y2="80.68" gradientUnits="userSpaceOnUse">
      <stop offset="0" stop-color="#fff"/>
      <stop offset="0.06" stop-color="#f8f9fb"/>
      <stop offset="0.14" stop-color="#e4e8f2"/>
      <stop offset="0.24" stop-color="#c4cce1"/>
      <stop offset="0.35" stop-color="#97a4cb"/>
      <stop offset="0.47" stop-color="#5e72ae"/>
      <stop offset="0.6" stop-color="#19368c"/>
      <stop offset="0.64" stop-color="#00207f"/>
      <stop offset="0.99" stop-color="#001f55"/>
    </linearGradient>
    <linearGradient id="linear-gradient-3" x1="76.42" y1="80.22" x2="76.86" y2="80.22" gradientTransform="translate(1.56 -1.46) rotate(1.11)" xlink:href="#linear-gradient-2"/>
    <linearGradient id="linear-gradient-4" x1="76.23" y1="80.71" x2="78.88" y2="80.71" xlink:href="#linear-gradient-2"/>
    <linearGradient id="linear-gradient-5" x1="72.6" y1="79.91" x2="73.16" y2="79.91" xlink:href="#linear-gradient"/>
    <linearGradient id="linear-gradient-6" x1="72.44" y1="80.01" x2="81.68" y2="80.01" xlink:href="#linear-gradient"/>
  </defs>
  <title>mosque</title>
  <g style="isolation: isolate">
    <g id="Layer_2" data-name="Layer 2">
      <g id="Layer_1-2" data-name="Layer 1">
        <g id="mosque">
          <path d="M65.2,67.2c1.63-1.6.11-3.17-2.28-3.12,2.13-1.52.68-2.53.45-4.34-.25-2-.57-2.77-3.27-2.73A4.21,4.21,0,0,0,59,54.71c-1.06-.8-2.24.09-3.44.1a9.17,9.17,0,0,1-2.43-.58c-.48-.14-.41-.36-1.12-.42s-1.33.55-1.84.37c-.12,0-.39-.84-.58-1a13.36,13.36,0,0,0-1.24-.77c-.52-.36-.39-.68-1.18-.91a9.69,9.69,0,0,0-2.79,0,5.24,5.24,0,0,0-4.17,2.83c-.59,1.58.53,2.84,1.43,4-.51.31-.87.84-1.36,1.13-.81.48-1.82.41-2.38,1.32s-.13,2.23-.77,3.32a5.34,5.34,0,0,1-2.36,2.34c-1.22.59-4,1.85-3,3.35l-.45-.13c.36,2.61,6.7,2.38,9.11,2.44,2.06.06,4.13-.67,6.14-.51,1.39.11,2.61.65,4.15.64a62.35,62.35,0,0,0,9.15-1c1.58-.24,4.21.06,5.51-.93S67.39,67.71,65.2,67.2Z" style="fill: #23949c"/>
          <rect x="34.57" y="44.21" width="8.4" height="24.79" style="fill: #23949c"/>
          <polygon points="4.83 69.59 30.17 69.59 30.17 46.48 5.97 51.21 4.83 69.59" style="fill: #23949c"/>
          <rect x="22.05" y="40.47" width="2.85" height="10.92" style="fill: #23949c"/>
          <rect x="129.18" y="79.64" width="10.36" height="0.77" style="fill: #c4a97e"/>
          <rect x="101.06" y="46.19" width="10.72" height="25.68" style="fill: #dbd5c1"/>
          <rect x="86.16" y="46.71" width="11.58" height="25.16" style="fill: #dbd5c1"/>
          <polygon points="86.92 45.3 85.84 46.71 97.73 46.71 96.6 45.3 86.92 45.3" style="fill: #dbd5c1"/>
          <rect x="96.69" y="35.35" width="8.26" height="36.53" style="fill: #dbd5c1"/>
          <polygon points="96.41 35.35 105.39 35.35 106.47 30.38 95.01 30.38 96.41 35.35" style="fill: #a59771"/>
          <rect x="98.87" y="30.38" width="4.24" height="4.97" style="fill: #a59771;opacity: 0.5;mix-blend-mode: multiply"/>
          <rect x="95.01" y="29.89" width="11.77" height="0.49" style="fill: #a59771"/>
          <rect x="96.28" y="35.35" width="9.11" height="0.26" style="fill: #a59771;mix-blend-mode: multiply"/>
          <rect x="97.73" y="18.86" width="6.64" height="11.03" style="fill: #dbd5c1"/>
          <rect x="103.75" y="18.86" width="0.63" height="11.03" style="fill: #a59771"/>
          <rect x="99.03" y="18.86" width="0.57" height="11.03" style="fill: #a59771"/>
          <rect x="97.73" y="18.86" width="0.82" height="11.03" style="fill: #a59771"/>
          <rect x="96.69" y="17.47" width="8.7" height="1.74" style="fill: #a59771"/>
          <rect x="104.38" y="17.85" width="0.57" height="1.01" style="fill: #a59771;opacity: 0.5;mix-blend-mode: multiply"/>
          <rect x="97.45" y="17.85" width="0.57" height="1.01" style="fill: #a59771;opacity: 0.5;mix-blend-mode: multiply"/>
          <rect x="99.32" y="12.62" width="3.8" height="4.85" style="fill: #a59771"/>
          <rect x="102.16" y="13.28" width="0.51" height="4.19" style="fill: #a59771;opacity: 0.5;mix-blend-mode: multiply"/>
          <rect x="101.15" y="13.28" width="0.51" height="4.19" style="fill: #a59771;opacity: 0.5;mix-blend-mode: multiply"/>
          <rect x="99.95" y="13.28" width="0.51" height="4.19" style="fill: #a59771;opacity: 0.5;mix-blend-mode: multiply"/>
          <rect x="98.87" y="12.3" width="4.87" height="0.98" style="fill: #a59771"/>
          <path d="M104.54,11.59H97.86a.36.36,0,1,0,0,.71h6.68a.36.36,0,1,0,0-.71Z" style="fill: #a59771"/>
          <path d="M101.21,8.2a2.83,2.83,0,0,0-2.5,3.07,3.92,3.92,0,0,0,0,.44h4.95a3.78,3.78,0,0,0,0-.44A2.83,2.83,0,0,0,101.21,8.2Z" style="fill: #a59771"/>
          <rect x="100.2" y="7.45" width="1.96" height="1.85" style="fill: #a59771"/>
          <rect x="99.32" y="7.07" width="3.8" height="0.65" style="fill: #a59771"/>
          <ellipse cx="101.15" cy="6.2" rx="1.55" ry="1.52" style="fill: #a59771"/>
          <rect x="98.14" y="47.97" width="5.57" height="21.11" style="fill: #a59771"/>
          <rect x="85.84" y="47.45" width="11.61" height="0.52" style="fill: #a59771"/>
          <rect x="89.19" y="49.22" width="5.82" height="18.11" style="fill: #a59771"/>
          <rect id="ventana2" x="90.9" y="59.03" width="2.91" height="7.43" style="fill: #a59771;mix-blend-mode: multiply"/>
          <ellipse id="ventana2-2" data-name="ventana2" cx="100.99" cy="38.46" rx="1.68" ry="1.39" style="fill: #a59771"/>
          <ellipse id="ventana2-3" data-name="ventana2" cx="101.15" cy="25.24" rx="1.08" ry="1.03" transform="translate(-0.32 1.3) rotate(-0.74)" style="fill: #a59771"/>
          <rect x="89.19" y="41.35" width="5.82" height="3.94" style="fill: #a59771"/>
          <path d="M92.09,36.59A3.39,3.39,0,0,0,89,40.2a4.08,4.08,0,0,0,.06.7h6.13a4.14,4.14,0,0,0,.06-.7A3.39,3.39,0,0,0,92.09,36.59Z" style="fill: #a59771"/>
          <rect x="88.56" y="40.56" width="6.96" height="0.79" style="fill: #a59771"/>
          <rect id="ventana2-4" data-name="ventana2" x="104.95" y="51.22" width="5.69" height="17.85" style="fill: #a59771"/>
          <rect x="107.79" y="76.84" width="23.55" height="2.8" style="fill: #a59771"/>
          <rect x="100.93" y="0.16" width="0.22" height="6.04" style="fill: #a59771"/>
          <path id="ventana2-5" data-name="ventana2" d="M101,50.58c-1.1,0-2,2.14-2,4.77V68.93h4V55.35C103,52.71,102.09,50.58,101,50.58Z" style="fill: #a59771;mix-blend-mode: multiply"/>
          <rect x="96.28" y="40.56" width="9.11" height="0.3" style="fill: #a59771"/>
          <rect x="96.28" y="41.54" width="9.11" height="0.19" style="fill: #a59771"/>
          <rect id="ventana2-6" data-name="ventana2" x="89.76" y="49.97" width="4.84" height="7.15" style="fill: #a59771;mix-blend-mode: multiply"/>
          <rect x="104.66" y="47.21" width="7.11" height="0.5" style="fill: #a59771"/>
          <rect x="38.52" y="46.02" width="10.72" height="25.68" style="fill: #dbd5c1"/>
          <rect x="52.56" y="46.55" width="11.58" height="25.16" style="fill: #dbd5c1"/>
          <rect x="64.13" y="46.55" width="21.7" height="19.6" style="fill: #e8ecee"/>
          <rect x="62.93" y="46.55" width="23.98" height="2.51" style="fill: #dbd5c1"/>
          <polygon points="66.79 43.72 64.45 46.55 84.76 46.55 83.12 43.72 66.79 43.72" style="fill: #a59771"/>
          <rect x="64.13" y="50.42" width="21.7" height="0.22" style="fill: #a59771"/>
          <rect x="64.89" y="51.51" width="19.87" height="0.76" style="fill: #a59771"/>
          <g>
            <path d="M68.18,54.06c-.8,0-2.4,1.62-2.4,2.89,0,0,0,.05,0,.08h0v9.12h4.81V57h0s0-.05,0-.08C70.59,55.68,69.1,54.06,68.18,54.06Z" style="fill: #a59771"/>
            <rect x="66.79" y="61.2" width="2.72" height="4.96" style="fill: #a59771;mix-blend-mode: multiply"/>
            <path d="M70.4,56.17a13.89,13.89,0,0,1-4.62,9v1.1h4.81V57.11h0s0-.05,0-.08A2.28,2.28,0,0,0,70.4,56.17Z" style="fill: #a59771;opacity: 0.5;mix-blend-mode: multiply"/>
          </g>
          <path d="M82.36,54c-.8,0-2.4,1.62-2.4,2.89,0,0,0,.05,0,.08h0v9.12h4.81V57h0v-.08C84.76,55.64,83.28,54,82.36,54Z" style="fill: #a59771"/>
          <rect id="ventana2-7" data-name="ventana2" x="80.97" y="61.16" width="2.72" height="4.96" style="fill: #a59771;mix-blend-mode: multiply"/>
          <path d="M84.57,56.13a13.9,13.9,0,0,1-4.62,9v1.1h4.81V57.07h0V57A2.3,2.3,0,0,0,84.57,56.13Z" style="fill: #a59771;opacity: 0.5;mix-blend-mode: multiply"/>
          <polygon points="63.5 66.12 56.48 71.71 92.99 71.71 86.66 66.12 63.5 66.12" style="fill: #a59771"/>
          <g>
            <path d="M75.56,54c-.8,0-2.4,1.62-2.4,2.89,0,0,0,.05,0,.08h0v9.12H78V57h0s0-.05,0-.08C78,55.64,76.48,54,75.56,54Z" style="fill: #a59771"/>
            <rect id="ventana2-8" data-name="ventana2" x="74.16" y="61.16" width="2.72" height="4.96" style="fill: #a59771;mix-blend-mode: multiply"/>
            <path d="M77.77,56.13a13.9,13.9,0,0,1-4.62,9v1.1H78V57.07h0S78,57,78,57A2.28,2.28,0,0,0,77.77,56.13Z" style="fill: #a59771;opacity: 0.5;mix-blend-mode: multiply"/>
          </g>
          <rect x="71.22" y="60.93" width="0.44" height="5.27" style="fill: #a59771"/>
          <rect x="72.11" y="60.93" width="0.38" height="5.27" style="fill: #a59771"/>
          <rect x="78.44" y="61.16" width="0.38" height="5.03" style="fill: #a59771"/>
          <rect x="79.39" y="61.16" width="0.25" height="4.99" style="fill: #a59771"/>
          <rect x="66.79" y="39.03" width="16.33" height="4.68" style="fill: #dbd5c1"/>
          <path d="M74.84,29.07c-6.66.07-8.2,6-8.29,9.86H83.14C83,35.07,81,29,74.84,29.07Z" style="fill: #dbd5c1"/>
          <rect x="66.55" y="38.93" width="17.13" height="0.76" style="fill: #a59771"/>
          <polygon points="53.7 45.13 52.55 46.55 64.45 46.55 63.38 45.13 53.7 45.13" style="fill: #dbd5c1"/>
          <rect x="45.34" y="35.18" width="8.26" height="36.53" style="fill: #dbd5c1"/>
          <polygon points="44.9 35.18 53.88 35.18 55.28 30.21 43.82 30.21 44.9 35.18" style="fill: #a59771"/>
          <rect x="47.18" y="30.21" width="4.24" height="4.97" style="fill: #a59771;opacity: 0.5;mix-blend-mode: multiply"/>
          <rect x="43.51" y="29.72" width="11.77" height="0.49" style="fill: #a59771"/>
          <rect x="44.9" y="35.18" width="9.11" height="0.26" style="fill: #a59771;mix-blend-mode: multiply"/>
          <rect x="45.91" y="18.7" width="6.64" height="11.03" style="fill: #dbd5c1"/>
          <rect x="44.9" y="17.31" width="8.7" height="1.74" style="fill: #a59771"/>
          <rect x="45.34" y="17.69" width="0.57" height="1.01" style="fill: #a59771;opacity: 0.5;mix-blend-mode: multiply"/>
          <rect x="52.27" y="17.69" width="0.57" height="1.01" style="fill: #a59771;opacity: 0.5;mix-blend-mode: multiply"/>
          <rect x="47.18" y="12.46" width="3.8" height="4.85" style="fill: #a59771"/>
          <rect x="47.62" y="13.11" width="0.51" height="4.19" style="fill: #a59771;opacity: 0.5;mix-blend-mode: multiply"/>
          <rect x="48.63" y="13.11" width="0.51" height="4.19" style="fill: #a59771;opacity: 0.5;mix-blend-mode: multiply"/>
          <rect x="49.83" y="13.11" width="0.51" height="4.19" style="fill: #a59771;opacity: 0.5;mix-blend-mode: multiply"/>
          <rect x="46.54" y="12.13" width="4.87" height="0.98" style="fill: #a59771"/>
          <path d="M52.43,11.43H45.75a.36.36,0,1,0,0,.71h6.68a.36.36,0,1,0,0-.71Z" style="fill: #a59771"/>
          <path d="M49.08,8a2.83,2.83,0,0,0-2.5,3.07,4,4,0,0,0,0,.44h4.95a3.78,3.78,0,0,0,0-.44A2.83,2.83,0,0,0,49.08,8Z" style="fill: #a59771"/>
          <rect x="48.13" y="7.29" width="1.96" height="1.85" style="fill: #a59771"/>
          <rect x="47.18" y="6.91" width="3.8" height="0.65" style="fill: #a59771"/>
          <ellipse cx="49.14" cy="6.04" rx="1.55" ry="1.52" style="fill: #a59771"/>
          <rect x="46.58" y="47.8" width="5.57" height="21.11" style="fill: #a59771"/>
          <rect x="52.84" y="47.28" width="11.61" height="0.52" style="fill: #a59771"/>
          <rect x="55.28" y="49.06" width="5.82" height="18.11" style="fill: #a59771"/>
          <rect x="56.48" y="58.87" width="2.91" height="7.43" style="fill: #a59771;mix-blend-mode: multiply"/>
          <ellipse cx="57.86" cy="51.06" rx="0.65" ry="0.64" style="fill: #a59771"/>
          <ellipse cx="49.3" cy="38.3" rx="1.68" ry="1.39" style="fill: #a59771"/>
          <rect x="55.28" y="41.19" width="5.82" height="3.94" style="fill: #a59771"/>
          <path d="M58.2,36.43A3.39,3.39,0,0,0,55.07,40a4.2,4.2,0,0,0,.06.7h6.13a4.09,4.09,0,0,0,.06-.7A3.39,3.39,0,0,0,58.2,36.43Z" style="fill: #a59771"/>
          <rect x="54.77" y="40.4" width="6.96" height="0.79" style="fill: #a59771"/>
          <rect x="39.65" y="51.06" width="5.7" height="17.85" style="fill: #a59771"/>
          <rect x="51.24" y="76.67" width="23.55" height="2.8" style="fill: #a59771"/>
          <rect x="49.14" width="0.22" height="6.04" style="fill: #a59771"/>
          <path d="M49.3,50.41c-1.1,0-2,2.13-2,4.77V68.77h4V55.18C51.29,52.55,50.4,50.41,49.3,50.41Z" style="fill: #a59771;mix-blend-mode: multiply"/>
          <rect x="44.9" y="40.4" width="9.11" height="0.3" style="fill: #a59771"/>
          <rect x="44.9" y="41.38" width="9.11" height="0.19" style="fill: #a59771"/>
          <rect x="64.45" y="46.55" width="22.46" height="0.99" style="fill: #a59771"/>
          <rect x="55.69" y="49.81" width="4.84" height="7.15" style="fill: #a59771;mix-blend-mode: multiply"/>
          <rect id="ventana2-9" data-name="ventana2" x="68.15" y="40.16" width="1.36" height="3.55" style="fill: #a59771"/>
          <rect id="ventana2-10" data-name="ventana2" x="72.49" y="40.16" width="1.68" height="3.85" style="fill: #a59771"/>
          <rect id="ventana2-11" data-name="ventana2" x="76.89" y="40.16" width="1.55" height="3.55" style="fill: #a59771"/>
          <rect id="ventana2-12" data-name="ventana2" x="80.97" y="40.16" width="1.36" height="3.55" style="fill: #a59771"/>
          <rect x="65.78" y="43.72" width="18.29" height="0.3" style="fill: #a59771;mix-blend-mode: multiply"/>
          <rect x="38.52" y="47.05" width="7.11" height="0.5" style="fill: #a59771"/>
          <path d="M78.7,33.9a12.14,12.14,0,0,1-1.89,1,14.51,14.51,0,0,1-2.05.57,23.34,23.34,0,0,1-7.77.72,14.89,14.89,0,0,0-.29,2.59H83a12.17,12.17,0,0,0-1.94-6.34C80.26,32.88,79.5,33.42,78.7,33.9Z" style="fill: #a59771;opacity: 0.5;mix-blend-mode: multiply"/>
          <ellipse cx="74.83" cy="28.48" rx="1.61" ry="1.08" style="fill: #dbd5c1"/>
          <rect x="77.87" y="74.93" width="26.12" height="0.16" style="fill: #a59771;mix-blend-mode: multiply"/>
          <rect x="76.67" y="76.25" width="28.66" height="0.43" style="fill: #a59771;mix-blend-mode: multiply"/>
          <rect x="75.07" y="77.52" width="31.97" height="0.72" style="fill: #a59771;mix-blend-mode: multiply"/>
          <rect x="72.62" y="78.78" width="35.96" height="0.64" style="fill: #a59771;mix-blend-mode: multiply"/>
          <rect x="50.38" y="79.1" width="81.82" height="1.43" style="fill: #7c652a"/>
          <g>
            <g>
              <rect x="21.13" y="53.15" width="14.25" height="19.47" style="fill: #b6d3c9"/>
              <path d="M30.08,58.17c-1.37,1.74-2.67,3.53-4.1,5.24a38.23,38.23,0,0,1-4.88,5v4.25H35.35V53.15H33A13.89,13.89,0,0,1,30.08,58.17Z" style="fill: #b6d3c9;opacity: 0.6000000000000001;mix-blend-mode: multiply"/>
            </g>
            <rect x="14.51" y="56.99" width="11.11" height="15.51" style="fill: #dab16d"/>
            <rect x="8.74" y="61.66" width="5.77" height="10.84" style="fill: #cc9d58"/>
            <rect x="14.51" y="58.15" width="10.39" height="0.06" style="fill: #dab16d;mix-blend-mode: multiply"/>
            <g>
              <rect x="14.61" y="57.58" width="10.39" height="0.06" style="fill: #dab16d;mix-blend-mode: multiply"/>
              <rect x="14.61" y="71.87" width="10.39" height="0.06" style="fill: #dab16d;mix-blend-mode: multiply"/>
              <rect x="14.61" y="70.75" width="10.39" height="0.05" style="fill: #dab16d;mix-blend-mode: multiply"/>
              <rect x="14.61" y="59.89" width="10.39" height="0.04" style="fill: #dab16d;mix-blend-mode: multiply"/>
              <rect x="14.61" y="69.66" width="10.39" height="0.04" style="fill: #dab16d;mix-blend-mode: multiply"/>
              <rect x="14.61" y="68.62" width="10.39" height="0.06" style="fill: #dab16d;mix-blend-mode: multiply"/>
              <rect x="14.61" y="67.51" width="10.39" height="0.05" style="fill: #dab16d;mix-blend-mode: multiply"/>
              <rect x="14.61" y="66.41" width="10.39" height="0.04" style="fill: #dab16d;mix-blend-mode: multiply"/>
              <rect x="14.61" y="65.1" width="10.39" height="0.06" style="fill: #dab16d;mix-blend-mode: multiply"/>
              <rect x="14.61" y="63.98" width="10.39" height="0.05" style="fill: #dab16d;mix-blend-mode: multiply"/>
              <rect x="14.61" y="62.89" width="10.39" height="0.04" style="fill: #dab16d;mix-blend-mode: multiply"/>
              <rect x="14.61" y="61.85" width="10.39" height="0.06" style="fill: #dab16d;mix-blend-mode: multiply"/>
              <rect x="14.61" y="60.74" width="10.39" height="0.05" style="fill: #dab16d;mix-blend-mode: multiply"/>
              <rect x="14.61" y="59.02" width="10.39" height="0.04" style="fill: #dab16d;mix-blend-mode: multiply"/>
            </g>
            <g>
              <g>
                <rect x="64.59" y="44.73" width="3.76" height="21.11" style="fill: #f0ac52"/>
                <rect x="65.01" y="44.73" width="0.32" height="21.11" style="fill: #d38f3d"/>
                <rect x="66.08" y="44.73" width="0.38" height="21.11" style="fill: #d38f3d"/>
                <rect x="67.28" y="44.73" width="0.38" height="21.11" style="fill: #d38f3d"/>
                <rect x="68.04" y="44.73" width="0.31" height="21.11" style="fill: #d38f3d"/>
                <rect x="63.93" y="65.32" width="5.12" height="2.33" style="fill: #fce2a4"/>
                <path d="M69.43,65H63.49a.16.16,0,1,0,0,.31h5.94a.16.16,0,1,0,0-.31Z" style="fill: #f0ac52"/>
                <path d="M69.43,67.65H63.49a.16.16,0,1,0,0,.31h5.94a.16.16,0,1,0,0-.31Z" style="fill: #f0ac52"/>
                <polygon points="63.93 67.96 63.05 70.4 69.87 70.4 69.05 67.96 63.93 67.96" style="fill: #fce2a4"/>
                <rect x="62.1" y="70.4" width="9.1" height="0.88" style="fill: #f0ac52"/>
                <rect x="61.53" y="71.28" width="10.42" height="1.24" style="fill: #f0ac52"/>
                <rect x="63.93" y="44.52" width="5.12" height="0.21" style="fill: #c89564"/>
                <g>
                  <path d="M68.21,38.6a.52.52,0,0,0,.07-.26.68.68,0,0,0-.74-.61h-2a.68.68,0,0,0-.74.61.51.51,0,0,0,.07.26c-1.56.39-2.65,1.31-2.65,2.38a2.47,2.47,0,0,0,1.7,2,1.72,1.72,0,0,1-.48,2h6.07s-.67-1.53-.41-2c.52-.88,1.73-1.22,1.73-2.06C70.86,39.91,69.77,39,68.21,38.6Z" style="fill: #f0ac52"/>
                  <path d="M65.11,38.82c-.94.68-.69,2.48-.56,3.4a8.72,8.72,0,0,0,1,2.53,2.67,2.67,0,0,0-.24-.83,4.2,4.2,0,0,1-.11-1.21,8.71,8.71,0,0,1,.1-2C65.37,40.28,66.42,38.48,65.11,38.82Z" style="fill: #c89564;opacity: 0.5;mix-blend-mode: multiply"/>
                  <path d="M66.64,39h.05s.54,1.12.6,1.38a6.12,6.12,0,0,1,.12,1.93,5,5,0,0,1-.75,2.34,8.21,8.21,0,0,0,1.45-3.13,3,3,0,0,0-.18-1.8C67.83,39.48,66.77,38.2,66.64,39Z" style="fill: #c89564;opacity: 0.5;mix-blend-mode: multiply"/>
                  <path d="M68,39l.14,0A.41.41,0,0,1,68,39Z" style="fill: #c89564;opacity: 0.5;mix-blend-mode: multiply"/>
                  <path d="M68.37,39l-.21,0Z" style="fill: #c89564;opacity: 0.5;mix-blend-mode: multiply"/>
                  <path d="M69,39.11a3.1,3.1,0,0,0-.67-.06,2.3,2.3,0,0,1,1.28,1.59c.11.7-.24,1-.6,1.62s-1.35,2-.79,2.55A2.74,2.74,0,0,1,68.89,43,6.7,6.7,0,0,0,70,41.34a1.57,1.57,0,0,0-.25-1.66A1.64,1.64,0,0,0,69,39.11Z" style="fill: #c89564;opacity: 0.5;mix-blend-mode: multiply"/>
                  <path d="M63.24,41.58c.33.55,1,.92,1.11,1.55s-.1,1-.39,1.61c1.25-.88.23-2.21-.06-3.23a2.18,2.18,0,0,1,1.26-2.72v0C63.76,38.86,62.61,40.54,63.24,41.58Z" style="fill: #c89564;opacity: 0.5;mix-blend-mode: multiply"/>
                  <rect x="65.16" y="36.44" width="2.55" height="2.01" style="fill: #f0ac52"/>
                  <rect x="64.42" y="36.23" width="4.05" height="0.63" style="fill: #914c1d"/>
                  <rect x="63.43" y="33.97" width="6.07" height="2.26" style="fill: #f0ac52"/>
                  <rect x="63.89" y="32.96" width="5.21" height="1" style="fill: #f0ac52"/>
                  <path d="M66.55,33.38a.76.76,0,0,0-.82.68v1.7a.84.84,0,0,0,1.65,0v-1.7A.76.76,0,0,0,66.55,33.38Z" style="fill: #fce2a4"/>
                  <path d="M63.89,33.38a.76.76,0,0,0-.82.68v1.7a.84.84,0,0,0,1.65,0v-1.7A.76.76,0,0,0,63.89,33.38Z" style="fill: #fce2a4"/>
                  <path d="M69.1,33.38a.76.76,0,0,0-.82.68v1.7a.84.84,0,0,0,1.65,0v-1.7A.76.76,0,0,0,69.1,33.38Z" style="fill: #fce2a4"/>
                  <rect x="64.25" y="32.5" width="4.23" height="0.67" style="fill: #f0ac52"/>
                  <rect x="64.55" y="32.17" width="3.62" height="0.34" style="fill: #af7127"/>
                  <path d="M66.37,29.34s-2.12,1.24-2.12,2.12a1.26,1.26,0,0,0,.22.7H68.4a1.26,1.26,0,0,0,.22-.7C68.62,30.58,66.37,29.34,66.37,29.34Z" style="fill: #008479"/>
                  <path d="M67.55,30.08c-.4,1.09-1.69,1.71-3.1,2l.06.11h3.93a1.27,1.27,0,0,0,.22-.7C68.66,31,68.1,30.5,67.55,30.08Z" style="fill: #008479;opacity: 0.6000000000000001;mix-blend-mode: multiply"/>
                  <rect id="ventana2-13" data-name="ventana2" x="63.53" y="34.16" width="0.72" height="1.32" style="fill: #008479"/>
                  <rect id="ventana2-14" data-name="ventana2" x="66.16" y="34.16" width="0.87" height="1.55" style="fill: #008479"/>
                  <rect id="ventana2-15" data-name="ventana2" x="68.84" y="34.16" width="0.76" height="1.45" style="fill: #008479"/>
                  <rect x="64.45" y="36.69" width="4.03" height="0.17" style="fill: #f0ac52"/>
                  <rect x="65.16" y="37.57" width="2.55" height="0.18" style="fill: #c89564;opacity: 0.5;mix-blend-mode: multiply"/>
                </g>
                <rect x="63.47" y="45.02" width="6.15" height="0.38" style="fill: #914c1d"/>
              </g>
              <path d="M71.29,70.38H70l-.82-2.44h.38a.16.16,0,1,0,0-.31h-.38V65.3h.38a.16.16,0,1,0,0-.31H68.43V45.38h1.27V45h-.08s-.67-1.53-.41-2c.52-.88,1.73-1.22,1.73-2.06s-.79-1.71-2-2.17a63.17,63.17,0,0,1-1.46,7.39c-.3,1.15-.63,2.31-1,3.45,0,1.86,0,3.73-.11,5.59,0,3.17.15,6.33.13,9.5,0,2.59-.11,5.21.07,7.8H72V71.27h-.76Z" style="fill: #914c1d;opacity: 0.30000000000000004;mix-blend-mode: multiply"/>
            </g>
            <g>
              <g>
                <rect x="29.91" y="64.76" width="39.32" height="7.74" style="fill: #ffe08d"/>
                <rect x="29.91" y="66.38" width="39.32" height="0.32" style="fill: #d8b464"/>
                <rect x="29.36" y="63.42" width="41.32" height="1.55" style="fill: #bf8d5d"/>
                <g>
                  <rect x="29.91" y="63.63" width="1.15" height="1.13" style="fill: #506865"/>
                  <rect x="31.87" y="63.63" width="1.16" height="1.13" style="fill: #506865"/>
                  <rect x="33.82" y="63.63" width="1.17" height="1.13" style="fill: #506865"/>
                  <rect x="35.78" y="63.63" width="1.17" height="1.13" style="fill: #506865"/>
                  <rect x="37.74" y="63.63" width="1.18" height="1.13" style="fill: #506865"/>
                  <rect x="39.7" y="63.63" width="1.19" height="1.13" style="fill: #506865"/>
                  <rect x="41.66" y="63.63" width="1.19" height="1.13" style="fill: #506865"/>
                  <rect x="43.62" y="63.63" width="1.2" height="1.13" style="fill: #506865"/>
                  <rect x="45.58" y="63.63" width="1.21" height="1.13" style="fill: #506865"/>
                  <rect x="47.53" y="63.63" width="1.21" height="1.13" style="fill: #506865"/>
                  <rect x="49.49" y="63.63" width="1.22" height="1.13" style="fill: #506865"/>
                  <rect x="51.45" y="63.63" width="1.22" height="1.13" style="fill: #506865"/>
                  <rect x="53.41" y="63.63" width="1.23" height="1.13" style="fill: #506865"/>
                  <rect x="55.37" y="63.63" width="1.24" height="1.13" style="fill: #506865"/>
                  <rect x="57.33" y="63.63" width="1.24" height="1.13" style="fill: #506865"/>
                  <rect x="59.29" y="63.63" width="1.25" height="1.13" style="fill: #506865"/>
                  <rect x="61.24" y="63.63" width="1.26" height="1.13" style="fill: #506865"/>
                  <rect x="63.2" y="63.63" width="1.26" height="1.13" style="fill: #506865"/>
                  <rect x="65.16" y="63.63" width="1.27" height="1.13" style="fill: #506865"/>
                  <rect x="67.12" y="63.63" width="1.28" height="1.13" style="fill: #506865"/>
                  <rect x="69.08" y="63.63" width="1.28" height="1.13" style="fill: #506865"/>
                </g>
                <rect x="31.41" y="58.52" width="36.54" height="4.9" style="fill: #e5a642"/>
                <rect x="34.99" y="56.72" width="30.17" height="1.8" style="fill: #e5a642"/>
                <rect x="34.99" y="56.72" width="30.17" height="0.54" style="fill: #b7710b"/>
                <polygon points="40.29 54.08 38.92 56.72 59.28 56.72 57.95 54.08 40.29 54.08" style="fill: #b7710b"/>
                <rect x="39.7" y="53.68" width="18.87" height="0.71" style="fill: #b7710b"/>
                <rect x="29.91" y="67.69" width="39.32" height="0.16" style="fill: #d8b464"/>
                <rect x="30.01" y="69.2" width="39.15" height="0.12" style="fill: #d8b464"/>
                <rect x="30.01" y="70.79" width="39.07" height="0.2" style="fill: #d8b464"/>
              </g>
              <g>
                <g>
                  <path d="M48.89,40.24s-9.28,5.89-9.28,10.11a6.38,6.38,0,0,0,1,3.34H57.79a6.38,6.38,0,0,0,1-3.34C58.75,46.13,48.89,40.24,48.89,40.24Z" style="fill: #067182"/>
                  <path d="M40.6,48l.33-.49-.1.05A1.79,1.79,0,0,0,40.6,48Z" style="fill: #70a077"/>
                  <path d="M58,48.42a.32.32,0,0,1,0,.27c-1.49.25-1.3-2.85-2.83-2.55.07.73.76,1.31.59,2.13a1.19,1.19,0,0,1-2.26.14c-.23-.51-.28-2.06-.91-2.29s-.77,1.51-.68,1.81c-.53.51-1.21,1.77-2.21,1.16-.79-.49-.35-1.51-.66-2.2-.45-1-1,0-1.16.53-.2.8-.5,1.71-1.52,1.83-1.62.18-.69-1.48-.77-2.27-.14-1.47-1.49.54-1.74,1s-.36,1-1,1-.83-.26-.82-.74c0-.78.76-1.48.76-2.22a3.8,3.8,0,0,0-2,1.43l.1-.05L40.6,48a1.79,1.79,0,0,1,.23-.44c-1,.54-1.33,2.57-1.32,3.51a3.67,3.67,0,0,0,.55,1.93c.4.68.61.77,1.48.73,1.93-.09,3.88.06,5.79.06s4.13-.1,6.18-.1c.92,0,1.86,0,2.78,0,1.07,0,1.75.08,2.12-.94.47-1.28.67-3.61-.47-4.64A3.68,3.68,0,0,1,58,48.42Z" style="fill: #70a077"/>
                  <ellipse id="ventana2-16" data-name="ventana2" cx="41.42" cy="51.18" rx="1.21" ry="1.45" style="fill: #111a3b"/>
                  <ellipse id="ventana2-17" data-name="ventana2" cx="45.3" cy="51.18" rx="1.56" ry="1.46" style="fill: #111a3b"/>
                  <ellipse id="ventana2-18" data-name="ventana2" cx="49.4" cy="51.18" rx="1.56" ry="1.46" style="fill: #111a3b"/>
                  <ellipse id="ventana2-19" data-name="ventana2" cx="53.61" cy="51.18" rx="1.56" ry="1.46" style="fill: #111a3b"/>
                  <ellipse id="ventana2-20" data-name="ventana2" cx="57.09" cy="51.18" rx="1.21" ry="1.45" style="fill: #111a3b"/>
                </g>
                <path d="M54,44a6.79,6.79,0,0,1-1.07,1.89,20.44,20.44,0,0,1-4.24,3.86,13.42,13.42,0,0,1-5,2.11,9.73,9.73,0,0,1-3.93.16,6.65,6.65,0,0,0,.75,1.73H57.68a6.38,6.38,0,0,0,1-3.34C58.64,48.37,56.36,45.95,54,44Z" style="fill: #279cb7;opacity: 0.30000000000000004;mix-blend-mode: multiply"/>
              </g>
            </g>
            <g>
              <g>
                <rect x="22.3" y="42.06" width="3.99" height="23.14" style="fill: #f0ac52"/>
                <rect x="22.74" y="42.06" width="0.34" height="23.14" style="fill: #d38f3d"/>
                <rect x="23.89" y="42.06" width="0.41" height="23.14" style="fill: #d38f3d"/>
                <rect x="25.16" y="42.06" width="0.4" height="23.14" style="fill: #d38f3d"/>
                <rect x="25.97" y="42.06" width="0.32" height="23.14" style="fill: #d38f3d"/>
                <rect x="21.6" y="64.63" width="5.44" height="2.56" style="fill: #fce2a4"/>
                <path d="M27.45,64.29H21.13a.17.17,0,1,0,0,.34h6.31a.17.17,0,1,0,0-.34Z" style="fill: #f0ac52"/>
                <path d="M27.45,67.18H21.13a.17.17,0,1,0,0,.34h6.31a.17.17,0,1,0,0-.34Z" style="fill: #f0ac52"/>
                <polygon points="21.6 67.53 20.66 70.2 27.91 70.2 27.04 67.53 21.6 67.53" style="fill: #fce2a4"/>
                <rect x="19.66" y="70.2" width="9.67" height="0.97" style="fill: #f0ac52"/>
                <rect x="19.05" y="71.16" width="11.08" height="1.36" style="fill: #f0ac52"/>
                <rect x="21.6" y="41.83" width="5.44" height="0.23" style="fill: #c89564"/>
                <g>
                  <path d="M26.15,35.35a.59.59,0,0,0,.08-.29.73.73,0,0,0-.79-.66H23.33a.73.73,0,0,0-.79.66.58.58,0,0,0,.08.29c-1.65.43-2.82,1.43-2.82,2.6a2.69,2.69,0,0,0,1.81,2.25,1.91,1.91,0,0,1-.51,2.19h6.45s-.72-1.67-.43-2.17c.56-1,1.84-1.34,1.84-2.26C29,36.78,27.81,35.77,26.15,35.35Z" style="fill: #f0ac52"/>
                  <path d="M22.86,35.59c-1,.74-.73,2.72-.6,3.73a9.72,9.72,0,0,0,1,2.77,3,3,0,0,0-.26-.91,4.74,4.74,0,0,1-.12-1.32A9.81,9.81,0,0,1,23,37.64C23.12,37.19,24.24,35.22,22.86,35.59Z" style="fill: #c89564;opacity: 0.5;mix-blend-mode: multiply"/>
                  <path d="M24.48,35.77h.05s.58,1.23.64,1.51a6.9,6.9,0,0,1,.12,2.11A5.64,5.64,0,0,1,24.5,42,9.12,9.12,0,0,0,26,38.53a3.37,3.37,0,0,0-.19-2C25.75,36.31,24.62,34.9,24.48,35.77Z" style="fill: #c89564;opacity: 0.5;mix-blend-mode: multiply"/>
                  <path d="M26.35,35.84a1.05,1.05,0,0,0-.32-.06A.93.93,0,0,0,26.35,35.84Z" style="fill: #c89564;opacity: 0.5;mix-blend-mode: multiply"/>
                  <path d="M27,35.9a2.91,2.91,0,0,0-.68-.06,2.53,2.53,0,0,1,1.33,1.73c.12.77-.25,1.14-.64,1.78s-1.43,2.19-.84,2.8a3.07,3.07,0,0,1,.66-2,7.39,7.39,0,0,0,1.23-1.79A1.93,1.93,0,0,0,27,35.9Z" style="fill: #c89564;opacity: 0.5;mix-blend-mode: multiply"/>
                  <path d="M25.95,35.77H26l-.08,0Z" style="fill: #c89564;opacity: 0.5;mix-blend-mode: multiply"/>
                  <path d="M20.86,38.61c.35.6,1,1,1.18,1.7s-.11,1.1-.41,1.76c1.33-1,.24-2.43-.06-3.54a2.42,2.42,0,0,1,1.34-3v0C21.42,35.63,20.2,37.47,20.86,38.61Z" style="fill: #c89564;opacity: 0.5;mix-blend-mode: multiply"/>
                  <rect x="22.91" y="32.97" width="2.71" height="2.2" style="fill: #f0ac52"/>
                  <rect x="22.12" y="32.74" width="4.31" height="0.69" style="fill: #914c1d"/>
                  <rect x="21.07" y="30.27" width="6.45" height="2.48" style="fill: #f0ac52"/>
                  <rect x="21.55" y="29.16" width="5.54" height="1.1" style="fill: #f0ac52"/>
                  <path d="M24.39,29.62a.82.82,0,0,0-.88.74v1.87a.89.89,0,0,0,1.75,0V30.36A.82.82,0,0,0,24.39,29.62Z" style="fill: #fce2a4"/>
                  <path d="M21.55,29.62a.82.82,0,0,0-.88.74v1.87a.89.89,0,0,0,1.75,0V30.36A.82.82,0,0,0,21.55,29.62Z" style="fill: #fce2a4"/>
                  <path d="M27.09,29.62a.82.82,0,0,0-.87.74v1.87a.89.89,0,0,0,1.75,0V30.36A.82.82,0,0,0,27.09,29.62Z" style="fill: #fce2a4"/>
                  <rect x="21.94" y="28.66" width="4.5" height="0.73" style="fill: #f0ac52"/>
                  <rect x="22.26" y="28.29" width="3.85" height="0.37" style="fill: #af7127"/>
                  <path d="M24.19,25.2s-2.25,1.36-2.25,2.33a1.42,1.42,0,0,0,.23.77h4.18a1.41,1.41,0,0,0,.23-.77C26.58,26.55,24.19,25.2,24.19,25.2Z" style="fill: #008479"/>
                  <path d="M25.44,26c-.43,1.2-1.8,1.87-3.29,2.17l.06.12h4.18a1.41,1.41,0,0,0,.23-.77C26.62,27,26,26.47,25.44,26Z" style="fill: #008479;opacity: 0.6000000000000001;mix-blend-mode: multiply"/>
                  <rect id="ventana2-21" data-name="ventana2" x="21.18" y="30.47" width="0.76" height="1.45" style="fill: #008479"/>
                  <rect id="ventana2-22" data-name="ventana2" x="23.97" y="30.47" width="0.92" height="1.7" style="fill: #008479"/>
                  <rect id="ventana2-23" data-name="ventana2" x="26.81" y="30.47" width="0.81" height="1.58" style="fill: #008479"/>
                  <rect x="22.15" y="33.25" width="4.28" height="0.18" style="fill: #f0ac52"/>
                  <rect x="22.91" y="34.21" width="2.71" height="0.2" style="fill: #c89564;opacity: 0.5;mix-blend-mode: multiply"/>
                </g>
                <rect x="21.11" y="42.38" width="6.54" height="0.41" style="fill: #914c1d"/>
              </g>
              <path d="M29.42,70.18H28l-.87-2.67h.4a.17.17,0,1,0,0-.34h-.4V64.61h.4a.17.17,0,1,0,0-.34H26.38V42.78h1.35v-.41h-.09s-.72-1.68-.43-2.17c.56-1,1.84-1.34,1.84-2.26s-.84-1.87-2.12-2.38a70.84,70.84,0,0,1-1.55,8.1c-.32,1.27-.67,2.53-1.11,3.78,0,2,0,4.08-.11,6.12,0,3.47.16,6.94.14,10.41,0,2.84-.12,5.7.07,8.55h5.84V71.14h-.81Z" style="fill: #914c1d;opacity: 0.30000000000000004;mix-blend-mode: multiply"/>
            </g>
          </g>
          <g>
            <rect x="4.81" y="49.84" width="3.26" height="9.16" style="fill: #ad8a57"/>
            <g>
              <g>
                <path d="M15.43,50.54C12.21,50.54,9.6,54,9.6,57.1c0,.07,0,.14,0,.21H21.24c0-.07,0-.14,0-.21C21.25,54,18.64,50.54,15.43,50.54Z" style="fill: #edd1a9"/>
                <path d="M14.86,55.3a18.76,18.76,0,0,1-5.25,1.56c0,.08,0,.16,0,.24s0,.14,0,.21H21.24c0-.07,0-.14,0-.21a7.23,7.23,0,0,0-2.64-5.37A6.83,6.83,0,0,1,14.86,55.3Z" style="fill: #edd1a9;opacity: 0.6000000000000001;mix-blend-mode: multiply"/>
              </g>
              <polygon points="9.37 57.31 6 60.69 23.76 60.69 21.29 57.31 9.37 57.31" style="fill: #c4a97e"/>
              <path d="M18.71,57.31c-1.29,1.29-3.46,1.94-5.4,2.44-1.28.33-2.6.54-3.91.77l-1.09.18H23.76l-2.48-3.39Z" style="fill: #c4a97e;mix-blend-mode: multiply"/>
              <rect x="4.23" y="59.07" width="7.62" height="12.07" style="fill: #dcc59a"/>
              <rect x="0.96" y="61.24" width="3.27" height="9.9" style="fill: #c4a97e"/>
              <rect x="5.82" y="62.03" width="3.79" height="9.11" style="fill: #c4a97e"/>
              <rect x="11.85" y="60.48" width="9.44" height="2.48" style="fill: #edd1a9"/>
              <rect x="11.85" y="62.96" width="9.44" height="8.18" style="fill: #c4a97e"/>
              <polygon points="13.06 71.14 21.29 71.14 21.29 62.95 17.13 62.95 13.06 71.14" style="fill: #c4a97e;opacity: 0.6000000000000001;mix-blend-mode: multiply"/>
              <rect x="11.85" y="60.13" width="9.44" height="0.35" style="fill: #c4a97e"/>
              <rect x="11.85" y="62.7" width="9.44" height="0.44" style="fill: #c4a97e;opacity: 0.6000000000000001;mix-blend-mode: multiply"/>
              <rect x="11.85" y="59.07" width="0.61" height="12.07" style="fill: #c4a97e;opacity: 0.6000000000000001;mix-blend-mode: multiply"/>
              <rect x="21.29" y="59.07" width="5.33" height="12.07" style="fill: #c4a97e"/>
              <rect x="23.95" y="59.07" width="2.66" height="12.07" style="fill: #c4a97e;opacity: 0.6000000000000001;mix-blend-mode: multiply"/>
              <rect y="70.99" width="28.86" height="0.94" style="fill: #c4a97e"/>
              <rect x="9.18" y="57.13" width="12.25" height="0.38" style="fill: #c4a97e"/>
              <g>
                <path d="M11.26,52.86a5.9,5.9,0,0,0-2.17,3.72,3.53,3.53,0,0,0,.06.67h4.22a3.57,3.57,0,0,0,.06-.67C13.43,55,11.86,52.87,11.26,52.86Z" style="fill: #c4a97e"/>
                <path d="M11.27,53.67h0c-.05,0-.15,0-.42.35a6.34,6.34,0,0,0-.51.78,4.8,4.8,0,0,0-.68,2.09c0,.08,0,.15,0,.23h.23c0-.08,0-.15,0-.23a5.54,5.54,0,0,1,1.4-3,2.45,2.45,0,0,1,.79,1,4.64,4.64,0,0,1,.59,2c0,.08,0,.15,0,.23h.23c0-.08,0-.15,0-.23a4.79,4.79,0,0,0-.61-2.08C12.13,54.54,11.65,53.68,11.27,53.67Z" style="fill: #1a7568"/>
              </g>
              <g>
                <path d="M15.75,52.86a5.9,5.9,0,0,0-2.17,3.72,3.57,3.57,0,0,0,.06.67h4.22a3.53,3.53,0,0,0,.07-.67C17.93,55,16.35,52.87,15.75,52.86Z" style="fill: #c4a97e"/>
                <path d="M15.76,53.67h0c-.06,0-.15,0-.42.35a6.46,6.46,0,0,0-.51.78,4.78,4.78,0,0,0-.68,2.09c0,.08,0,.15,0,.23h.23c0-.08,0-.15,0-.23a5.53,5.53,0,0,1,1.4-3,2.46,2.46,0,0,1,.79,1,4.65,4.65,0,0,1,.59,2c0,.08,0,.15,0,.23h.23c0-.08,0-.15,0-.23a4.79,4.79,0,0,0-.61-2.08C16.63,54.54,16.14,53.68,15.76,53.67Z" style="fill: #1a7568"/>
              </g>
              <g>
                <path d="M19.82,52.71a6.72,6.72,0,0,0-1.53,3.77,5.12,5.12,0,0,0,0,.68h3a5,5,0,0,0,0-.68C21.36,54.92,20.24,52.73,19.82,52.71Z" style="fill: #c4a97e"/>
                <path d="M19.83,53.54h0s-.1,0-.3.35a7.2,7.2,0,0,0-.36.79,6.41,6.41,0,0,0-.48,2.11c0,.08,0,.16,0,.23h.16c0-.08,0-.16,0-.23a6.81,6.81,0,0,1,1-3.08,2.49,2.49,0,0,1,.56,1,6.32,6.32,0,0,1,.41,2c0,.08,0,.16,0,.23H21c0-.08,0-.16,0-.23a6.51,6.51,0,0,0-.43-2.11C20.44,54.42,20.1,53.55,19.83,53.54Z" style="fill: #1a7568"/>
              </g>
              <path id="ventana2-24" data-name="ventana2" d="M7.71,64.19a4.62,4.62,0,0,0-1.16,2.13h0v.21a2.33,2.33,0,0,0,0,.39,3.45,3.45,0,0,0,0,.5v3.4H8.95l-.07-4.5C8.66,65.3,8,64.2,7.71,64.19Z" style="fill: #956e45"/>
              <rect x="0.54" y="61.24" width="3.69" height="0.48" style="fill: #edd1a9"/>
              <rect x="3.71" y="59.07" width="8.74" height="0.4" style="fill: #edd1a9"/>
            </g>
            <polygon points="2.59 48.28 3.24 48.28 3.24 49.26 4.13 49.26 4.13 49.92 3.82 49.92 3.82 50.23 8.84 50.23 8.84 49.92 8.51 49.92 8.51 49.26 9.54 49.26 9.54 48.28 10.17 48.28 10.17 47.52 2.59 47.52 2.59 48.28" style="fill: #ad8a57"/>
            <polygon points="5.1 48.34 5.5 48.34 5.5 48.9 5.86 48.9 5.86 49.84 7.03 49.84 7.03 48.9 7.37 48.9 7.37 48.34 7.85 48.34 7.85 47.28 5.1 47.28 5.1 48.34" style="fill: #dcc59a"/>
            <path d="M8.92,44.18H8.08a.92.92,0,0,0,.28-.64c0-.67-.85-1.22-1.89-1.22s-1.89.55-1.89,1.22a.93.93,0,0,0,.28.64H3.68v.58H2.44v1H10.5v-1H8.92Z" style="fill: #dcc59a"/>
            <rect x="4.18" y="45.75" width="0.41" height="1.77" style="fill: #dcc59a"/>
            <rect x="6.38" y="45.75" width="0.46" height="1.53" style="fill: #dcc59a"/>
            <rect x="8.36" y="45.75" width="0.56" height="1.77" style="fill: #dcc59a"/>
            <rect x="5.82" y="50.35" width="1.23" height="8.65" style="fill: #bc9766"/>
          </g>
          <path d="M65.37,70.38H64.16l-.66-2v-.24h.18l.08,0h0a.15.15,0,1,0,0-.29H63.5V65.72h.18l.08,0h0a.15.15,0,1,0,0-.29H63.5v0h1.32V64h-2V47.41h1.08v0h.08V47h-.08s-.61-1.4-.37-1.82c.48-.81,1.57-1.12,1.57-1.9s-.72-1.57-1.81-2v0a5,5,0,0,0-.67-.22.48.48,0,0,0,.07-.24.59.59,0,0,0-.52-.54v-.82h.69V39h0a.82.82,0,0,0,.54.19.69.69,0,0,0,.75-.62V37a.69.69,0,0,0-.75-.62V36h-.56v-.42h-.28v-.31h.24a1.17,1.17,0,0,0,.2-.65c0-.4-.5-.89-1-1.27v0a9.9,9.9,0,0,0-1.06-.7S59,33.79,59,34.6a1.17,1.17,0,0,0,.2.65h.08v.31H59V36h-.33v.38a.69.69,0,0,0-.75.62v1.57a.69.69,0,0,0,.75.62.84.84,0,0,0,.49-.15v.54h.67v.89a.54.54,0,0,0-.31.47.48.48,0,0,0,.07.24c-1.41.36-2.41,1.2-2.41,2.18a2.26,2.26,0,0,0,1.54,1.88,1.59,1.59,0,0,1-.43,1.83v.35h1v10.4H54.47L53.4,55.68h.42V55h-.71l.16-.28a1.38,1.38,0,0,0,.4-.63c.42-1.15.6-3.2-.35-4.18a18.9,18.9,0,0,0-4.49-4.61c0,.25,0,.5-.08.75a24.75,24.75,0,0,1-1.67,6.61,28,28,0,0,1-3.24,5.63,41.3,41.3,0,0,1-8.53,8.59,70.72,70.72,0,0,1-8.65,5.53h6.06v-.12H56.51v0H66v0h.08V71.19h-.69Z" style="fill: #914c1d;opacity: 0.30000000000000004;mix-blend-mode: multiply"/>
          <rect x="120.65" y="65.07" width="2.75" height="0.36" style="fill: #c4a97e;opacity: 0.6000000000000001;mix-blend-mode: multiply"/>
          <rect x="116.72" y="62.09" width="3.93" height="9.89" style="fill: #c4a97e"/>
          <rect x="116.72" y="62.09" width="1.96" height="9.89" style="fill: #c4a97e;opacity: 0.6000000000000001;mix-blend-mode: multiply"/>
          <rect x="112.91" y="49.98" width="4.8" height="22.65" style="fill: #bc9766"/>
          <rect x="112.13" y="50.03" width="6.55" height="0.64" style="fill: #bc9766"/>
          <rect x="112.63" y="49.33" width="5.33" height="0.69" style="fill: #bc9766"/>
          <path d="M115.19,46.41A2.42,2.42,0,0,0,113,49a2.93,2.93,0,0,0,0,.5h4.36a3,3,0,0,0,0-.5A2.41,2.41,0,0,0,115.19,46.41Z" style="fill: #bc9766"/>
          <rect x="115.19" y="44.69" width="0.24" height="1.73" style="fill: #bc9766"/>
          <g style="opacity: 0.5;mix-blend-mode: multiply">
            <path d="M116.21,63a30.94,30.94,0,0,1-2.84-11.06,25.5,25.5,0,0,1,0-4.42,2.86,2.86,0,0,0-.36,1.4,2.81,2.81,0,0,0,0,.35h-.37v.69h-.49v.64H113v22H123.4V71.06A20.15,20.15,0,0,1,116.21,63Z" style="fill: #bc9766"/>
          </g>
          <path d="M58.75,71.16c.05-.21-.09-.52,0-.73a5.15,5.15,0,0,0-2.17-.4c1.36-1.29-.58-2.16-2-2.09,1.1-.9-1.42-2.09-2.8-2.28a.76.76,0,0,1,.12.82l.72,1a1.91,1.91,0,0,0-1-.54,1.37,1.37,0,0,0,.31-.42l-.62-.84a2,2,0,0,1,.5,0c-.75-.93-3.4-1.18-3.17.48l.26,0c-.89.6-.74,1.55-1.51,2.15a5.45,5.45,0,0,1-1.45,0c.21-1.21-1.66-1-2.28-.39a2.28,2.28,0,0,0-.3,2.19,6.67,6.67,0,0,1-.77.52,1.5,1.5,0,0,0-1.93.64c-1.11-.13-3.43-.32-3.09,1.29,3.36.15,6.81,0,10.14.12,4.08.17,8.22.47,12.33.27-.28-.14-.36-.38-.51-.5C61,72,59.84,71.13,58.75,71.16Z" style="fill: #04604a"/>
          <path d="M51.26,65.65l.62.84a.76.76,0,0,0-.12-.82A2,2,0,0,0,51.26,65.65Z" style="fill: #04604a"/>
          <g>
            <g>
              <path d="M56.55,59.89c.16-1.17-.54-1.24-.94-2.18s.2-1.89-.13-2.77c-.25-.66-.74-.85-.78-1.64,0-.59.26-1.3-.05-1.85s-1-.71-1.11.1h-.15c-.43.24-.08,1-.38,1.42.44.24,0,1.43,0,1.89a11.78,11.78,0,0,1-.05,2.07c-.12.41-.54.48-.78.8a1.53,1.53,0,0,0-.25,1.13c0,.47.09.42-.05.88a8.32,8.32,0,0,1-.6,1.28c-.53,1-1.37,2.55-.41,3.6.28.31.7.3.86.74s-.16,1.53-.08,2.17c.16,1.38,1.11,3.16,2.7,2.87A2.88,2.88,0,0,0,56,69.26c.4-.61.19-1.15.32-1.81.34-1.73,1-3.28.6-5.15A5.71,5.71,0,0,1,56.55,59.89Z" style="fill: #023836"/>
              <path d="M56.55,59.88c.14-1-.34-1.19-.73-1.79a8.82,8.82,0,0,0-.07,1.85c.25,2.53-.44,5.76-3.19,6.45a2.22,2.22,0,0,1-.87,0,4.56,4.56,0,0,0-.09,1.07c.16,1.38,1.11,3.16,2.7,2.87A2.88,2.88,0,0,0,56,69.25c.4-.61.19-1.15.32-1.81.34-1.73,1-3.28.6-5.15A5.71,5.71,0,0,1,56.55,59.88Z" style="fill: #006060;opacity: 0.4;mix-blend-mode: multiply"/>
            </g>
            <rect x="53.73" y="69.99" width="0.6" height="3.15" style="fill: #006060"/>
          </g>
          <g>
            <g>
              <path d="M52.8,64.22c.12-.8-.4-.85-.69-1.5s.15-1.3-.1-1.9c-.18-.45-.55-.59-.58-1.12s.19-.89,0-1.27-.75-.49-.82.07h-.11c-.32.16-.06.7-.28,1,.32.16,0,1,0,1.29a7.51,7.51,0,0,1,0,1.42c-.09.28-.4.33-.58.55s-.18.47-.19.77.07.29,0,.6a3.45,3.45,0,0,1-.23.49v3.2a.45.45,0,0,1,.11.17c.15.4-.11,1.05-.06,1.49.12.95.82,2.17,2,2a2.15,2.15,0,0,0,1.26-.77c.3-.42.14-.79.24-1.24.25-1.19.75-2.25.45-3.53A3.66,3.66,0,0,1,52.8,64.22Z" style="fill: #1b6063"/>
              <path d="M52.8,64.21c.1-.68-.25-.82-.54-1.23a5.51,5.51,0,0,0-.05,1.27c.19,1.74-.32,4-2.36,4.43a1.76,1.76,0,0,1-.64,0,2.93,2.93,0,0,0-.07.74c.12.95.82,2.17,2,2a2.15,2.15,0,0,0,1.26-.77c.3-.42.14-.79.24-1.24.25-1.19.75-2.25.45-3.53A3.66,3.66,0,0,1,52.8,64.21Z" style="fill: #006060;opacity: 0.4;mix-blend-mode: multiply"/>
            </g>
            <rect x="50.71" y="71.15" width="0.44" height="1.68" style="fill: #006060"/>
          </g>
          <g>
            <g>
              <path d="M57.34,66c.09-.61-.29-.65-.5-1.14s.11-1-.07-1.45-.4-.45-.42-.86.14-.68,0-1-.55-.37-.59.05h-.08c-.23.13,0,.54-.2.75.24.12,0,.75,0,1a6,6,0,0,1,0,1.08c-.07.22-.29.25-.42.42s-.13.36-.14.59.05.22,0,.46a4.37,4.37,0,0,1-.32.67c-.29.52-.74,1.34-.22,1.89.15.16.38.16.46.38s-.08.8,0,1.14c.08.72.6,1.65,1.45,1.51a1.55,1.55,0,0,0,.92-.59c.22-.32.1-.6.17-.95a6.11,6.11,0,0,0,.33-2.7A2.93,2.93,0,0,1,57.34,66Z" style="fill: #1b6063"/>
              <path d="M57.34,66c.07-.52-.18-.63-.39-.94a4.49,4.49,0,0,0,0,1c.14,1.33-.24,3-1.72,3.38a1.21,1.21,0,0,1-.47,0,2.34,2.34,0,0,0,0,.56c.08.72.6,1.65,1.45,1.51a1.56,1.56,0,0,0,.92-.59c.22-.32.1-.6.17-.95a6.11,6.11,0,0,0,.33-2.7A2.93,2.93,0,0,1,57.34,66Z" style="fill: #006060;opacity: 0.4;mix-blend-mode: multiply"/>
            </g>
            <rect x="55.82" y="71.26" width="0.32" height="1.57" style="fill: #006060"/>
          </g>
          <g>
            <g>
              <path d="M45.38,63.92c.18-.88-.6-.93-1-1.63s.22-1.42-.14-2.08c-.28-.5-.83-.64-.87-1.23s.29-1-.06-1.38-1.14-.53-1.24.07h-.17c-.48.18-.09.77-.42,1.06.49.18,0,1.07,0,1.41a5.86,5.86,0,0,1-.06,1.55c-.14.31-.61.36-.87.6s-.27.51-.28.85.1.31-.06.66a5.66,5.66,0,0,1-.67,1c-.59.74-1.53,1.91-.46,2.69.32.23.78.22,1,.55s-.17,1.15-.09,1.62a2.69,2.69,0,0,0,3,2.15,3.59,3.59,0,0,0,1.91-.84c.45-.46.21-.86.36-1.36.38-1.3,1.13-2.46.68-3.86C45.58,65,45.23,64.67,45.38,63.92Z" style="fill: #023836"/>
              <path d="M45.38,63.91c.15-.74-.38-.89-.81-1.34A4.43,4.43,0,0,0,44.5,64a4,4,0,0,1-3.57,4.83,3.66,3.66,0,0,1-1,0,2.35,2.35,0,0,0-.1.8,2.69,2.69,0,0,0,3,2.15,3.6,3.6,0,0,0,1.91-.84c.45-.46.21-.86.36-1.36.38-1.3,1.13-2.46.68-3.86C45.58,65,45.23,64.66,45.38,63.91Z" style="fill: #006060;opacity: 0.4;mix-blend-mode: multiply"/>
            </g>
            <rect x="42.23" y="71.49" width="0.67" height="2.36" style="fill: #006060"/>
          </g>
          <g>
            <g>
              <path d="M41.19,67.16c.13-.6-.45-.64-.77-1.12s.16-1-.11-1.43-.61-.44-.64-.84.21-.67,0-.95-.84-.36-.91.05h-.13c-.36.12-.07.53-.31.73.36.12,0,.73,0,1a3.81,3.81,0,0,1,0,1.06c-.1.21-.45.25-.64.41s-.2.35-.21.58.08.22,0,.45a2.33,2.33,0,0,1-.25.37v2.4a.37.37,0,0,1,.12.12c.17.3-.13.79-.07,1.11a2,2,0,0,0,2.23,1.48A2.75,2.75,0,0,0,40.75,72c.33-.31.16-.59.26-.93.28-.89.84-1.69.5-2.65C41.34,67.89,41.08,67.68,41.19,67.16Z" style="fill: #1b6063"/>
              <path d="M41.19,67.15c.11-.51-.28-.61-.6-.92a2.81,2.81,0,0,0-.06,1A2.81,2.81,0,0,1,37.9,70.5a2.93,2.93,0,0,1-.71,0,1.5,1.5,0,0,0-.07.55,2,2,0,0,0,2.23,1.48A2.76,2.76,0,0,0,40.75,72c.33-.32.16-.59.26-.93.28-.89.84-1.69.5-2.65C41.34,67.89,41.08,67.67,41.19,67.15Z" style="fill: #006060;opacity: 0.4;mix-blend-mode: multiply"/>
            </g>
            <rect x="38.87" y="72.35" width="0.5" height="1.26" style="fill: #006060"/>
          </g>
          <g>
            <g>
              <path d="M46.27,68.47c.1-.46-.33-.49-.56-.86s.12-.74-.08-1.09-.45-.34-.47-.64.16-.51,0-.73-.61-.28-.66,0h-.09c-.26.09,0,.4-.23.56.26.09,0,.56,0,.74a3,3,0,0,1,0,.81c-.08.16-.33.19-.47.31s-.14.27-.15.44.06.16,0,.34a3,3,0,0,1-.36.5c-.32.39-.82,1-.25,1.41.17.12.42.12.52.29s-.09.6,0,.85a1.44,1.44,0,0,0,1.62,1.13,2,2,0,0,0,1-.44c.24-.24.11-.45.19-.71.2-.68.61-1.29.36-2C46.38,69,46.19,68.86,46.27,68.47Z" style="fill: #1b6063"/>
              <path d="M46.27,68.47c.08-.39-.21-.47-.44-.7a2.3,2.3,0,0,0,0,.73A2.13,2.13,0,0,1,43.87,71a2,2,0,0,1-.52,0,1.2,1.2,0,0,0-.05.42,1.44,1.44,0,0,0,1.62,1.13,2,2,0,0,0,1-.44c.24-.24.11-.45.19-.71.2-.68.61-1.29.36-2C46.38,69,46.19,68.86,46.27,68.47Z" style="fill: #006060;opacity: 0.4;mix-blend-mode: multiply"/>
            </g>
            <rect x="44.58" y="72.44" width="0.36" height="1.17" style="fill: #006060"/>
          </g>
          <path d="M81.54,38.27,82.2,40c.08-.06,0-.15.1-.18a9.35,9.35,0,0,0,0-1.06A2.19,2.19,0,0,1,81.54,38.27Z" style="fill: #fff;mix-blend-mode: soft-light"/>
          <path d="M81.54,38.27l-.35-.92A1,1,0,0,0,81.54,38.27Z" style="fill: #fff;mix-blend-mode: soft-light"/>
          <path d="M82.3,39.87c0,.09,0,.18,0,.26a1.31,1.31,0,0,0-1.23,1.44c-2.4-.05-4.49,3.06-4.78,4.74a17.09,17.09,0,0,0-.11,3.37,3.75,3.75,0,0,1,0,1.57c-.08.2-.6.22-.69.45s.11.68.08,1a4.81,4.81,0,0,0-2.09-.09c.06-.42-.16-1.63.11-2s.93,0,1-.4-.72-.33-.94-.65c-.42-.65.12-1.24-.63-1.88a2.93,2.93,0,0,0-2.21-.54c2.36,1.27,1.75,4,1.89,6,1.43-.51,2.13.59,2.36,1.74.11-.76.86-1.3,1.44-1.93.37-.4.45-.32.58-.71a4.61,4.61,0,0,0,0-1.11c0-1.53-.18-3.18,1-4.44s3.34-1.58,3.9-3.09c.13-.34,0-.79.13-1.1s.78-.64.88-.92a1.9,1.9,0,0,0-.57-1.73A.26.26,0,0,0,82.3,39.87Z" style="fill: #fff;mix-blend-mode: soft-light"/>
          <g>
            <path d="M19,65l.18-.15A.26.26,0,0,0,19,65Z" style="fill: #0a6055;opacity: 0.8;mix-blend-mode: multiply"/>
            <path d="M22.06,65.57c-.29-.08-.48-.11-.51-.35s.13-.23-.12-.38A2.82,2.82,0,0,0,20,64.59c-.28,0-1,.19-1,.44L19,65a.26.26,0,0,1,.18-.15L19,65a1.69,1.69,0,0,1-.12.23,1.55,1.55,0,0,1-.66.4c-.37.16-1.11.43-1.26.75l.5-.16A1.93,1.93,0,0,0,16.3,67.4a4.1,4.1,0,0,1,1.83-1.28,8,8,0,0,0-.69,1.08c.32-.47,1-.67,1.37-1.06a1.15,1.15,0,0,0-.2,1.19,2,2,0,0,1,.66-1.14.62.62,0,0,0,0,.53,2,2,0,0,0,.26.79,4,4,0,0,1,.31-1.21,5.39,5.39,0,0,0,.27,1.55,3.68,3.68,0,0,1,.45-1.55c0,.2.17.5.3.68a1.07,1.07,0,0,1,.18-.7c0,.31.46.6.6.9,0-.23-.15-.87.09-1,.21.25.52.19.42-.1.19,0,.47.06.51-.11S22.25,65.62,22.06,65.57Z" style="fill: #0a6055;opacity: 0.8;mix-blend-mode: multiply"/>
            <path d="M23.83,62.47h0Z" style="fill: #074923"/>
            <path d="M26.63,62.44c-.18-.05-.29-.17-.49-.21a2.1,2.1,0,0,0-.57,0,10.7,10.7,0,0,1-1.77.24s0,0,0,0c-.32,0-.63,0-1,.1a5.06,5.06,0,0,0-.87.32,7.34,7.34,0,0,0-1.11.63c0-.16.18-.27.26-.41-.26,0-.47.21-.71.26.08-.18.33-.34.38-.52a3.12,3.12,0,0,0-.56.24c.16-.22.44-.38.54-.63a2.6,2.6,0,0,0-.31.18c.27-.28.39-.68.66-1-.25.22-.62.38-.86.63,0-.23.2-.41.26-.61a1.4,1.4,0,0,0-.65.77,4.25,4.25,0,0,0-.07-.61,1.91,1.91,0,0,1-.15.83,1.31,1.31,0,0,0-.06-.56,4.36,4.36,0,0,0-.12.85.73.73,0,0,1-.24-.61,2.36,2.36,0,0,0-.12.44,3.66,3.66,0,0,0,.11.47s-.1-.06-.15-.1a1,1,0,0,1,0,.19c-.26-.11-.5-.37-.83-.33l-.18,0c.22.22.39.51.61.75s.2.28.32.4.4.25.57.39.23.26.55.22a2.54,2.54,0,0,0,.56-.19,2.43,2.43,0,0,0,.44-.31c.19-.12.16-.11.42-.13.49,0,.18-.12.22-.42a2,2,0,0,0,.55.17c0-.17-.22-.32-.32-.46.41.11.65.47,1,.59,0-.36-.57-.57-.56-.88a7.56,7.56,0,0,1,1.58.94,2.62,2.62,0,0,0-.54-.68c-.14-.15-.44-.31-.54-.46a1.8,1.8,0,0,1,1.06.3,7.51,7.51,0,0,0,.83.58c-.08-.49-.68-.78-1.1-1.1.83-.11,1.2.81,1.94.88-.16-.17-.3-.36-.47-.52s-.51-.3-.67-.47c.28,0,.56.19.78.3s.55.36.84.49c0-.39-.84-.75-1.25-.91a3,3,0,0,1,1.09.29c.32.13.7.51,1.08.51,0-.27-.71-.65-1.06-.66a12.58,12.58,0,0,1,1.54.13C27.47,62.52,26.95,62.53,26.63,62.44Z" style="fill: #074923"/>
            <path d="M21.63,66.71a.52.52,0,0,0-.07.2A1.28,1.28,0,0,0,21.63,66.71Z" style="fill: #074923"/>
            <path d="M24.22,65.53a7,7,0,0,0-1.66-.65,6.14,6.14,0,0,0-1.81-.05,1.75,1.75,0,0,1-1,0l0,0c.14.17-.05.57-.12.79a1.38,1.38,0,0,0,0,1,1.41,1.41,0,0,1,.48-1c0,.2-.14.51.07.68.11-.24.21-.49.35-.73a2.18,2.18,0,0,0,.12,1c.32-.14.2-.88.24-1.13a2.15,2.15,0,0,1,.18,1.31,2.7,2.7,0,0,0,.32-1.48,2.28,2.28,0,0,1,.22,1.38,5.21,5.21,0,0,0,.28-.48,1.85,1.85,0,0,0,.05-.68A2.42,2.42,0,0,1,22,67a1.77,1.77,0,0,0,.47-1.44A2.46,2.46,0,0,1,22.56,67,2.07,2.07,0,0,0,23,65.55a3,3,0,0,1,.12,1.35,1.72,1.72,0,0,0,.41-1.22c.26.28.1.75.2,1.08a2.48,2.48,0,0,0,.33-.85c.09.16.11.34.19.5.09-.07.12-.22.17-.31.16.34.37.09.72,0A2.74,2.74,0,0,0,24.22,65.53Z" style="fill: #074923"/>
            <path d="M20.83,69.67c0-.15.06-.29,0-.44s-.17-.22-.21-.35,0-.29,0-.45-.1-.25-.11-.38.06-.25.06-.39-.1-.23-.15-.38a6.54,6.54,0,0,1-.12-.77c0-.12-.07-1.09-.36-.71v-.06a3,3,0,0,0-.12,1.51,2.54,2.54,0,0,1,0,.5c0,.17-.14.33-.16.51s.16.64.12,1-.17.3-.23.5.08.28.07.44a7.25,7.25,0,0,1-.17,1.1c-.05.27-.21.76,0,1s.55.2.85.2c.94,0,.77-.5.76-1S20.87,70.26,20.83,69.67Z" style="fill: #ad7721"/>
            <path d="M20.83,69.67c0-.15.06-.29,0-.45s-.17-.22-.21-.35,0-.29,0-.45a.6.6,0,0,0-.06-.22,4.24,4.24,0,0,1,0,.54,5.4,5.4,0,0,1-1,2.13l-.08.41c-.05.27-.21.76,0,1s.55.2.85.2c.94,0,.77-.5.76-1S20.87,70.26,20.83,69.67Z" style="fill: #ad7721;mix-blend-mode: multiply"/>
            <path d="M17.23,63.66l.06,0a4.58,4.58,0,0,0-1.41,0,11.4,11.4,0,0,0-2.17.38c-.59.18-1.07.48-1.64.69-.32.12-.76.2-1,.29a7.63,7.63,0,0,0,2.55-.71c-.4.56-1.34.66-2,1a6,6,0,0,0,2.84-1.05,3.91,3.91,0,0,1-2,1.35A4.2,4.2,0,0,0,14.08,65a5.47,5.47,0,0,0,1.22-.73,6.29,6.29,0,0,0-1.13,1.36,6,6,0,0,1,1.94-1.15c-.51.25-1,.8-.95,1.27.22,0,.43-.34.59-.47a1.92,1.92,0,0,1,.9-.44c0,.2-.16.37.1.48s.83-.17,1.11-.25c.44-.12,1.11-.18.91-.64S17.82,63.76,17.23,63.66Z" style="fill: #0a6055;opacity: 0.8;mix-blend-mode: multiply"/>
            <path d="M20,64.47h0Z" style="fill: #116336"/>
            <path d="M19.55,63.94c-.2-.15-.45-.26-.66-.39s-.4-.34-.64-.49a4.87,4.87,0,0,0-1.4-.5c-.44-.11-.85-.32-1.3-.43a8.8,8.8,0,0,0-3.61.33c.72,0,1.45-.27,2.16-.22-.31.11-.65.23-1,.31a7.82,7.82,0,0,0-1,.19c.86.25,1.9-.27,2.72-.37a5.36,5.36,0,0,1-.93.42c-.42.16-1,.18-1.34.33a8.54,8.54,0,0,0,2.88-.61c-.3.59-1.53.93-2.3,1a6.57,6.57,0,0,0,3-.84c0,.3-.63.58-.93.73s-.91.28-1.34.46A5.07,5.07,0,0,0,16.6,63c0,.24-.49.47-.71.6-.56.32-1.23.49-1.82.77a5.92,5.92,0,0,0,3.1-1,3.09,3.09,0,0,1-.47.39,6.82,6.82,0,0,0-1.11.56,4.76,4.76,0,0,0,2.15-.79c0,.25-.42.43-.53.64.33,0,.71-.3,1-.42,0,.13-.17.21-.14.35s.39-.07.51,0,.21.17.33.25.8.36,1.07.22l-.17,0a.64.64,0,0,1,.21,0A1.92,1.92,0,0,0,19.55,63.94Z" style="fill: #116336"/>
            <path d="M20,64.5H20l0,0Z" style="fill: #116336"/>
            <path d="M19.78,64.48l.17,0,0,0h0A.64.64,0,0,0,19.78,64.48Z" style="fill: #116336"/>
            <path d="M20.14,64.4c-.28,0-.52-.25-.8-.33a8.17,8.17,0,0,0-1.45-.26,5.45,5.45,0,0,0-2.94.58,4,4,0,0,1,1.19-.2c-.24.12-.45.32-.73.44a7.36,7.36,0,0,0-1,.38c.78,0,1.34-.5,2-.52-.34.44-1.42.63-2,.95a2.68,2.68,0,0,0-1.28,1.76,5.33,5.33,0,0,1,1.48-1,2.28,2.28,0,0,1-.12.2c.26-.24.49-.51.72-.76A3.18,3.18,0,0,1,14,67.14c.36,0,.86-.47,1.09-.67a8.11,8.11,0,0,0,.71-.79c-.18.52-.75.89-1,1.38a2.77,2.77,0,0,0,1.72-1.61c0,.62-.64,1-.88,1.52.95-.28,1.2-1.23,1.6-1.81a3.59,3.59,0,0,1-.79,1.77A3.15,3.15,0,0,0,18,65.09a4.24,4.24,0,0,1-.2.79c-.14.32-.44.58-.6.88.79-.25,1.16-1.19,1.36-1.73a6.73,6.73,0,0,1-.76,1.7,2.78,2.78,0,0,0,1.43-1.85c.05.56-.29.93-.47,1.44a2.86,2.86,0,0,0,1-1.38,3.56,3.56,0,0,1-.11,1,1,1,0,0,0,.55-.89c0-.23-.19-.35-.16-.59Z" style="fill: #23774b"/>
            <path d="M26,64.06a10.54,10.54,0,0,0-2.42-.47,7.54,7.54,0,0,0-2.32.22,8.93,8.93,0,0,0-1.14.55l-.09.22a1.25,1.25,0,0,0,.42.71c.14-.1.08-.28.1-.42a4.68,4.68,0,0,0,.62.83c-.09-.41-.42-.86-.2-1.28.21.11.18.42.26.59a1.51,1.51,0,0,0,.72.75c-.44-.44-.28-1-.21-1.51.21.38.44,1.06,1,1.35-.07-.43-.52-.87-.3-1.32a2.26,2.26,0,0,0,.85,1.27c-.12-.4-.45-.93-.24-1.34.21.38.42,1,1,1.22a2.08,2.08,0,0,1-.3-1.3c.18.33.54,1.19,1.07,1.26a1.31,1.31,0,0,1-.41-1.32c.21.24.61,1.23,1.1,1.19-.25-.2-.86-.93-.5-1.2a7.79,7.79,0,0,0,1.55,1.22c-.18-.22-.37-.43-.56-.64s-.36-.31-.32-.49c.21.16.32.37.56.53a5.05,5.05,0,0,0,.81.44c-.14-.22-.36-.74-.74-.79.13,0,.47.1.75.18A4.3,4.3,0,0,0,26,64.06Z" style="fill: #23774b"/>
            <path d="M27,64.53c.15.08.3.17.46.24C27.48,64.68,27.27,64.6,27,64.53Z" style="fill: #23774b"/>
          </g>
          <path d="M57.33,79.56a.85.85,0,0,0-.9-.78H14.69v1.55H56.42A.85.85,0,0,0,57.33,79.56Z" style="fill: #04604a"/>
          <path d="M52.45,80.29c0-.41-8.59-.73-19.18-.73-8.94,0-16.45.23-18.58.55v.37c2.13.32,9.64.55,18.58.55C43.86,81,52.45,80.7,52.45,80.29Z" style="fill: #04604a"/>
          <g>
            <path d="M111.16,66l.18-.15A.26.26,0,0,0,111.16,66Z" style="fill: #0a6055;opacity: 0.8;mix-blend-mode: multiply"/>
            <path d="M114.23,66.62c-.29-.08-.48-.11-.51-.35s.13-.23-.12-.38a2.82,2.82,0,0,0-1.46-.24c-.28,0-1,.19-1,.44l.06-.05a.26.26,0,0,1,.18-.15l-.18.15a1.52,1.52,0,0,1-.12.23,1.55,1.55,0,0,1-.66.4c-.37.16-1.11.43-1.26.75l.5-.16a1.93,1.93,0,0,0-1.16,1.19,4.11,4.11,0,0,1,1.83-1.28,8.06,8.06,0,0,0-.69,1.08c.32-.47,1-.67,1.37-1.06a1.14,1.14,0,0,0-.2,1.19,2,2,0,0,1,.66-1.14.62.62,0,0,0,0,.53,2,2,0,0,0,.26.79,4,4,0,0,1,.31-1.21,5.35,5.35,0,0,0,.27,1.55,3.68,3.68,0,0,1,.45-1.55c0,.2.17.5.3.68a1.08,1.08,0,0,1,.18-.7c0,.31.46.6.6.9,0-.23-.15-.87.09-1,.2.25.52.19.42-.1.19,0,.47.06.51-.11S114.41,66.67,114.23,66.62Z" style="fill: #0a6055;opacity: 0.8;mix-blend-mode: multiply"/>
            <path d="M116,63.51h0Z" style="fill: #074923"/>
            <path d="M118.79,63.49c-.18-.05-.29-.17-.49-.21a2.12,2.12,0,0,0-.57,0,10.62,10.62,0,0,1-1.77.24s0,0,0,0c-.32,0-.63,0-1,.1a5,5,0,0,0-.87.32,7.38,7.38,0,0,0-1.11.63c0-.16.18-.27.26-.41-.26,0-.47.21-.72.26.09-.18.33-.34.38-.52a3.14,3.14,0,0,0-.56.24c.16-.22.45-.38.54-.63a2.53,2.53,0,0,0-.31.18c.27-.28.39-.68.66-1-.25.22-.62.38-.86.63,0-.23.2-.41.26-.61a1.4,1.4,0,0,0-.65.77,4.32,4.32,0,0,0-.07-.61,1.9,1.9,0,0,1-.15.83,1.28,1.28,0,0,0-.06-.56,4.4,4.4,0,0,0-.12.85.73.73,0,0,1-.24-.61,2.41,2.41,0,0,0-.12.44,3.72,3.72,0,0,0,.12.47s-.1-.06-.15-.1a.92.92,0,0,1,0,.19c-.26-.11-.5-.37-.83-.33l-.18,0c.22.22.39.51.61.75s.2.28.32.4.4.25.57.39.23.26.55.22a2.6,2.6,0,0,0,.56-.19,2.47,2.47,0,0,0,.44-.31c.19-.12.16-.11.42-.13.49,0,.18-.12.22-.42a2,2,0,0,0,.55.17c0-.17-.22-.32-.32-.46.41.11.65.47,1,.59,0-.36-.57-.57-.56-.88a7.57,7.57,0,0,1,1.58.94,2.63,2.63,0,0,0-.54-.68c-.15-.15-.44-.31-.54-.46a1.81,1.81,0,0,1,1.06.3,7.52,7.52,0,0,0,.83.58c-.08-.49-.68-.78-1.1-1.1.83-.11,1.2.81,1.94.88-.16-.17-.3-.36-.47-.52s-.51-.3-.67-.47c.28,0,.56.19.78.3s.55.36.84.49c0-.39-.84-.75-1.25-.91a3,3,0,0,1,1.09.29c.32.13.7.51,1.08.51,0-.27-.71-.65-1.06-.66a12.72,12.72,0,0,1,1.54.13C119.63,63.57,119.11,63.58,118.79,63.49Z" style="fill: #074923"/>
            <path d="M113.8,67.76a.52.52,0,0,0-.07.2A1.21,1.21,0,0,0,113.8,67.76Z" style="fill: #074923"/>
            <path d="M116.38,66.58a7.08,7.08,0,0,0-1.66-.65,6.15,6.15,0,0,0-1.81-.05,1.75,1.75,0,0,1-1,0l0,0c.14.17-.05.57-.12.79a1.37,1.37,0,0,0,0,1,1.41,1.41,0,0,1,.48-1c0,.2-.15.51.07.68.11-.24.21-.49.35-.73a2.16,2.16,0,0,0,.12,1c.32-.14.2-.88.24-1.14a2.16,2.16,0,0,1,.18,1.31,2.69,2.69,0,0,0,.32-1.48,2.27,2.27,0,0,1,.22,1.38,5.37,5.37,0,0,0,.28-.48,1.88,1.88,0,0,0,.05-.68A2.42,2.42,0,0,1,114.2,68a1.77,1.77,0,0,0,.47-1.44,2.45,2.45,0,0,1,.06,1.41,2.07,2.07,0,0,0,.48-1.42,3,3,0,0,1,.12,1.35,1.72,1.72,0,0,0,.41-1.22c.26.28.1.76.2,1.08a2.47,2.47,0,0,0,.33-.85c.09.16.11.34.19.5.09-.07.12-.22.17-.31.16.34.37.09.72,0A2.76,2.76,0,0,0,116.38,66.58Z" style="fill: #074923"/>
            <path d="M113,70.72c0-.15.06-.29,0-.44s-.16-.22-.21-.35,0-.29,0-.45-.1-.25-.11-.38.06-.25.06-.39-.1-.24-.15-.38a6.3,6.3,0,0,1-.12-.77c0-.12-.07-1.09-.36-.71v-.06A3,3,0,0,0,112,68.3a2.54,2.54,0,0,1,0,.5c0,.17-.14.33-.16.51s.16.64.12,1-.17.3-.23.5.08.28.07.44a7.39,7.39,0,0,1-.17,1.1c-.06.27-.21.76,0,1s.54.2.85.2c.94,0,.77-.5.76-1S113,71.31,113,70.72Z" style="fill: #ad7721"/>
            <path d="M113,70.72c0-.15.06-.29,0-.45s-.16-.22-.21-.35,0-.29,0-.45a.59.59,0,0,0-.06-.22,4.34,4.34,0,0,1,0,.54,5.42,5.42,0,0,1-1,2.13l-.08.41c-.06.27-.21.76,0,1s.54.2.85.2c.94,0,.77-.5.76-1S113,71.31,113,70.72Z" style="fill: #ad7721;mix-blend-mode: multiply"/>
            <path d="M109.39,64.71l.06,0a4.57,4.57,0,0,0-1.41,0,11.33,11.33,0,0,0-2.17.38c-.59.18-1.07.48-1.64.69-.32.12-.76.2-1,.29a7.63,7.63,0,0,0,2.55-.71c-.4.56-1.34.66-2,1a6,6,0,0,0,2.84-1.05,3.91,3.91,0,0,1-2,1.35,4.21,4.21,0,0,0,1.58-.55,5.48,5.48,0,0,0,1.22-.73,6.27,6.27,0,0,0-1.13,1.36,6.06,6.06,0,0,1,1.94-1.15c-.51.25-1,.8-.95,1.27.23,0,.43-.34.59-.47a1.92,1.92,0,0,1,.9-.44c0,.2-.16.37.1.48s.83-.17,1.11-.25c.44-.12,1.11-.18.91-.64S110,64.81,109.39,64.71Z" style="fill: #0a6055;opacity: 0.8;mix-blend-mode: multiply"/>
            <path d="M112.16,65.52h0Z" style="fill: #116336"/>
            <path d="M111.71,65c-.2-.15-.45-.26-.66-.39s-.4-.34-.64-.49a4.87,4.87,0,0,0-1.4-.5c-.45-.11-.85-.32-1.3-.43a8.8,8.8,0,0,0-3.62.33c.72,0,1.45-.27,2.17-.22-.32.11-.65.23-1,.31a7.92,7.92,0,0,0-1.05.19c.86.25,1.9-.27,2.72-.37a5.37,5.37,0,0,1-.93.42c-.42.16-1,.18-1.34.33a8.55,8.55,0,0,0,2.88-.61c-.3.59-1.53.93-2.3,1a6.57,6.57,0,0,0,3-.84c0,.3-.63.58-.92.73s-.91.28-1.34.46a5.07,5.07,0,0,0,2.78-.92c0,.24-.49.47-.71.6-.56.32-1.23.49-1.82.77a5.91,5.91,0,0,0,3.1-1,3,3,0,0,1-.47.39,6.92,6.92,0,0,0-1.11.56,4.75,4.75,0,0,0,2.15-.79c0,.25-.42.43-.53.64.33,0,.7-.3,1-.42,0,.13-.17.21-.14.35s.39-.07.51,0,.21.17.33.25.8.36,1.07.22l-.17,0a.64.64,0,0,1,.21,0A1.93,1.93,0,0,0,111.71,65Z" style="fill: #116336"/>
            <path d="M112.11,65.55h.07l0,0Z" style="fill: #116336"/>
            <path d="M111.94,65.53l.17,0,0,0h0A.64.64,0,0,0,111.94,65.53Z" style="fill: #116336"/>
            <path d="M112.3,65.45c-.28,0-.52-.25-.8-.33a8.21,8.21,0,0,0-1.45-.26,5.46,5.46,0,0,0-2.94.58,4,4,0,0,1,1.18-.2c-.24.12-.45.32-.72.44a7.2,7.2,0,0,0-1,.38c.78,0,1.34-.5,2-.52-.34.44-1.42.63-2,.95a2.68,2.68,0,0,0-1.28,1.76,5.33,5.33,0,0,1,1.48-1,2.12,2.12,0,0,1-.12.2c.26-.24.49-.51.72-.76a3.18,3.18,0,0,1-1.31,1.47c.36,0,.86-.47,1.09-.67a8.13,8.13,0,0,0,.71-.79c-.18.52-.75.89-1,1.38a2.77,2.77,0,0,0,1.72-1.61c0,.62-.64,1-.88,1.52.95-.28,1.2-1.23,1.6-1.81A3.59,3.59,0,0,1,108.6,68a3.15,3.15,0,0,0,1.58-1.83,4.24,4.24,0,0,1-.2.79c-.14.32-.44.58-.6.88.79-.25,1.16-1.19,1.36-1.73a6.7,6.7,0,0,1-.76,1.7,2.78,2.78,0,0,0,1.43-1.85c.05.56-.29.93-.47,1.44A2.86,2.86,0,0,0,112,66a3.55,3.55,0,0,1-.12,1,1,1,0,0,0,.55-.88c0-.23-.19-.35-.16-.59Z" style="fill: #23774b"/>
            <path d="M118.16,65.11a10.54,10.54,0,0,0-2.42-.47,7.56,7.56,0,0,0-2.32.22,9,9,0,0,0-1.14.56l-.09.22a1.25,1.25,0,0,0,.42.71c.13-.1.08-.28.1-.42a4.7,4.7,0,0,0,.62.83c-.09-.41-.42-.86-.2-1.28.21.11.18.42.26.59a1.5,1.5,0,0,0,.72.75c-.44-.44-.28-1-.21-1.51.21.38.44,1.06,1,1.35-.07-.43-.52-.87-.3-1.32a2.26,2.26,0,0,0,.85,1.27c-.12-.4-.45-.93-.24-1.34.21.38.42,1,1,1.22a2.08,2.08,0,0,1-.3-1.3c.18.33.53,1.19,1.07,1.26a1.31,1.31,0,0,1-.41-1.32c.21.24.61,1.23,1.1,1.19-.25-.2-.86-.93-.5-1.2a7.79,7.79,0,0,0,1.55,1.22c-.18-.22-.37-.43-.56-.64s-.36-.32-.32-.49c.21.16.32.37.56.53a5.05,5.05,0,0,0,.81.44c-.14-.22-.36-.74-.74-.79.13,0,.47.1.76.18A4.3,4.3,0,0,0,118.16,65.11Z" style="fill: #23774b"/>
            <path d="M119.19,65.58c.15.08.3.17.46.24C119.64,65.73,119.43,65.65,119.19,65.58Z" style="fill: #23774b"/>
          </g>
          <g>
            <path d="M48,66.13l.18-.15A.26.26,0,0,0,48,66.13Z" style="fill: #0a6055;opacity: 0.8;mix-blend-mode: multiply"/>
            <path d="M51.05,66.71c-.29-.08-.48-.11-.51-.35s.13-.23-.12-.38A2.81,2.81,0,0,0,49,65.74c-.28,0-1,.19-1,.44l.06-.05a.26.26,0,0,1,.18-.15l-.18.15a.94.94,0,0,1-.78.63c-.37.16-1.11.43-1.26.75l.5-.16a1.93,1.93,0,0,0-1.16,1.19,4.11,4.11,0,0,1,1.83-1.28,8,8,0,0,0-.69,1.08c.32-.47,1-.67,1.37-1.06a1.14,1.14,0,0,0-.2,1.19,2,2,0,0,1,.66-1.14.62.62,0,0,0,0,.53,2,2,0,0,0,.26.79,4,4,0,0,1,.31-1.21A5.35,5.35,0,0,0,49.11,69a3.68,3.68,0,0,1,.45-1.55c0,.2.17.5.3.68a1.07,1.07,0,0,1,.18-.7c0,.31.46.6.6.9,0-.23-.15-.87.09-1,.2.25.52.19.42-.1.19,0,.47.06.51-.11S51.24,66.77,51.05,66.71Z" style="fill: #0a6055;opacity: 0.8;mix-blend-mode: multiply"/>
            <polygon points="52.82 63.61 52.83 63.61 52.82 63.61 52.82 63.61" style="fill: #074923"/>
            <path d="M55.62,63.58c-.18-.05-.29-.17-.49-.21a2.12,2.12,0,0,0-.57,0,10.65,10.65,0,0,1-1.77.24s0,0,0,0c-.32,0-.63,0-1,.1A5,5,0,0,0,51,64a7.27,7.27,0,0,0-1.11.63c0-.16.18-.27.26-.41-.26,0-.47.21-.72.26.09-.18.33-.34.38-.52a3.16,3.16,0,0,0-.56.24c.16-.22.45-.38.54-.63a2.59,2.59,0,0,0-.31.18c.27-.28.39-.68.66-1-.25.22-.62.38-.86.63,0-.23.2-.41.26-.61a1.4,1.4,0,0,0-.65.77,4.25,4.25,0,0,0-.07-.61,1.9,1.9,0,0,1-.15.83,1.3,1.3,0,0,0-.06-.56,4.36,4.36,0,0,0-.12.85.73.73,0,0,1-.24-.61,2.41,2.41,0,0,0-.12.44,3.82,3.82,0,0,0,.12.47s-.1-.06-.15-.1a.92.92,0,0,1,0,.19c-.26-.11-.5-.37-.83-.33l-.18,0c.22.22.39.51.61.75s.2.28.32.4.4.25.57.39.23.26.55.22a2.59,2.59,0,0,0,.56-.19,2.47,2.47,0,0,0,.44-.31c.19-.12.16-.11.42-.13.49,0,.18-.12.22-.42a2,2,0,0,0,.55.17c0-.17-.22-.32-.32-.46.41.11.65.47,1,.59,0-.36-.57-.57-.56-.88a7.54,7.54,0,0,1,1.58.94,2.64,2.64,0,0,0-.54-.68c-.15-.15-.45-.31-.54-.46a1.81,1.81,0,0,1,1.06.3,7.57,7.57,0,0,0,.83.58c-.08-.49-.68-.78-1.1-1.11.83-.11,1.2.81,1.94.88-.16-.17-.3-.36-.47-.52s-.51-.3-.67-.47c.28,0,.56.19.78.3s.55.36.84.49c0-.39-.84-.75-1.25-.91a3,3,0,0,1,1.09.29c.32.13.7.51,1.08.51,0-.27-.71-.65-1.06-.66a12.7,12.7,0,0,1,1.54.13C56.46,63.67,55.94,63.68,55.62,63.58Z" style="fill: #074923"/>
            <path d="M50.63,67.86a.52.52,0,0,0-.07.2A1.15,1.15,0,0,0,50.63,67.86Z" style="fill: #074923"/>
            <path d="M53.21,66.68A7.07,7.07,0,0,0,51.55,66,6.15,6.15,0,0,0,49.74,66a1.75,1.75,0,0,1-1,0l0,0c.14.17-.05.57-.12.79a1.37,1.37,0,0,0,0,1,1.41,1.41,0,0,1,.48-1c0,.2-.14.51.07.68.11-.24.21-.49.35-.73a2.16,2.16,0,0,0,.12,1c.32-.14.2-.88.24-1.14A2.15,2.15,0,0,1,50.08,68a2.69,2.69,0,0,0,.32-1.48,2.28,2.28,0,0,1,.22,1.38,5.39,5.39,0,0,0,.28-.48,1.86,1.86,0,0,0,.05-.68A2.42,2.42,0,0,1,51,68.14a1.78,1.78,0,0,0,.47-1.44,2.46,2.46,0,0,1,.06,1.41A2.07,2.07,0,0,0,52,66.7,2.94,2.94,0,0,1,52.15,68a1.72,1.72,0,0,0,.41-1.22c.26.28.1.76.2,1.08a2.46,2.46,0,0,0,.33-.85c.09.16.11.34.19.5.09-.07.12-.22.17-.31.16.34.37.09.72,0A2.75,2.75,0,0,0,53.21,66.68Z" style="fill: #074923"/>
            <path d="M49.82,70.82c0-.15.06-.29,0-.44s-.16-.22-.21-.35,0-.29,0-.45-.1-.25-.11-.38.06-.25.06-.39-.1-.24-.15-.38a6.3,6.3,0,0,1-.12-.77c0-.12-.07-1.09-.36-.71v-.06a3,3,0,0,0-.12,1.51,2.5,2.5,0,0,1,0,.5c0,.17-.14.33-.16.51s.16.64.12,1-.17.3-.23.5.08.28.07.44a7.31,7.31,0,0,1-.17,1.1c-.06.27-.21.76,0,1s.55.2.85.2c.94,0,.77-.5.76-1S49.86,71.4,49.82,70.82Z" style="fill: #ad7721"/>
            <path d="M49.82,70.82c0-.15.06-.29,0-.45s-.16-.22-.21-.35,0-.29,0-.45a.58.58,0,0,0-.06-.22,4.23,4.23,0,0,1,0,.54,5.42,5.42,0,0,1-1,2.13c0,.14-.05.28-.08.41s-.21.76,0,1,.55.2.85.2c.94,0,.77-.5.76-1S49.86,71.41,49.82,70.82Z" style="fill: #ad7721;mix-blend-mode: multiply"/>
            <path d="M46.22,64.81l.06,0a4.58,4.58,0,0,0-1.41,0,11.34,11.34,0,0,0-2.17.38c-.59.18-1.07.48-1.64.69-.32.12-.76.2-1,.29a7.63,7.63,0,0,0,2.55-.71c-.4.56-1.34.66-2,1a6,6,0,0,0,2.85-1.05,3.91,3.91,0,0,1-2,1.35,4.21,4.21,0,0,0,1.58-.55,5.46,5.46,0,0,0,1.22-.73,6.31,6.31,0,0,0-1.13,1.36,6.06,6.06,0,0,1,1.94-1.15c-.51.25-1,.8-.95,1.27.22,0,.43-.34.59-.47a1.92,1.92,0,0,1,.9-.44c0,.2-.16.37.1.48s.83-.17,1.11-.25c.44-.12,1.11-.18.91-.64S46.81,64.9,46.22,64.81Z" style="fill: #0a6055;opacity: 0.8;mix-blend-mode: multiply"/>
            <path d="M49,65.62h0Z" style="fill: #116336"/>
            <path d="M48.54,65.09c-.2-.15-.45-.26-.66-.39s-.4-.34-.64-.49a4.88,4.88,0,0,0-1.4-.5c-.44-.11-.85-.32-1.3-.43a8.8,8.8,0,0,0-3.62.33c.72,0,1.45-.27,2.17-.22-.32.11-.65.23-1,.31a7.88,7.88,0,0,0-1,.19c.86.25,1.9-.27,2.72-.37a5.38,5.38,0,0,1-.93.42c-.42.16-1,.18-1.34.33a8.55,8.55,0,0,0,2.88-.61c-.3.59-1.53.93-2.3,1a6.57,6.57,0,0,0,3-.84c0,.3-.63.58-.92.73s-.91.28-1.34.46a5.07,5.07,0,0,0,2.78-.92c0,.24-.49.47-.71.6-.56.32-1.23.49-1.82.77a5.91,5.91,0,0,0,3.1-1,3,3,0,0,1-.47.39,6.93,6.93,0,0,0-1.11.56,4.75,4.75,0,0,0,2.15-.79c0,.25-.42.43-.53.64.33,0,.7-.3,1-.42,0,.13-.17.21-.14.35s.39-.07.51,0,.21.17.33.25.8.36,1.07.22l-.17,0a.65.65,0,0,1,.21,0A1.91,1.91,0,0,0,48.54,65.09Z" style="fill: #116336"/>
            <path d="M48.94,65.64H49l0,0Z" style="fill: #116336"/>
            <path d="M48.77,65.63l.17,0,0,0h0A.65.65,0,0,0,48.77,65.63Z" style="fill: #116336"/>
            <path d="M49.13,65.54c-.28,0-.52-.25-.8-.33A8.27,8.27,0,0,0,46.88,65a5.46,5.46,0,0,0-2.94.58,4,4,0,0,1,1.18-.2c-.24.12-.45.32-.72.44a7.26,7.26,0,0,0-1,.38c.78,0,1.34-.5,2-.52-.34.44-1.42.63-2,.95a2.68,2.68,0,0,0-1.28,1.76,5.33,5.33,0,0,1,1.48-1,2.07,2.07,0,0,1-.12.2c.26-.24.49-.51.72-.76A3.18,3.18,0,0,1,43,68.29c.36,0,.86-.47,1.09-.67a8.19,8.19,0,0,0,.71-.79c-.18.52-.75.89-1,1.38a2.77,2.77,0,0,0,1.72-1.61c0,.62-.64,1-.88,1.52.95-.28,1.2-1.23,1.6-1.81a3.59,3.59,0,0,1-.79,1.77A3.15,3.15,0,0,0,47,66.23a4.24,4.24,0,0,1-.2.79c-.14.32-.44.58-.6.88.79-.25,1.16-1.19,1.36-1.73a6.71,6.71,0,0,1-.76,1.7A2.78,2.78,0,0,0,48.24,66c.05.56-.29.93-.47,1.44a2.86,2.86,0,0,0,1-1.38,3.57,3.57,0,0,1-.12,1,1,1,0,0,0,.56-.88c0-.23-.19-.35-.16-.59Z" style="fill: #23774b"/>
            <path d="M55,65.21a10.52,10.52,0,0,0-2.42-.47,7.56,7.56,0,0,0-2.32.22,9,9,0,0,0-1.14.56l-.09.22a1.25,1.25,0,0,0,.42.71c.14-.1.08-.28.1-.42a4.73,4.73,0,0,0,.62.83c-.09-.41-.42-.86-.2-1.28.21.11.18.42.26.59a1.5,1.5,0,0,0,.72.75c-.44-.44-.28-1-.21-1.51.21.38.44,1.06,1,1.35-.07-.43-.52-.87-.3-1.32a2.26,2.26,0,0,0,.85,1.27c-.12-.4-.45-.93-.23-1.34.21.38.42,1,1,1.22a2.08,2.08,0,0,1-.3-1.3c.18.33.54,1.19,1.07,1.26a1.31,1.31,0,0,1-.41-1.32c.21.24.61,1.23,1.1,1.19-.25-.2-.86-.93-.5-1.2a7.81,7.81,0,0,0,1.55,1.22c-.18-.22-.37-.43-.56-.64s-.36-.32-.32-.49c.21.16.32.37.56.53a5,5,0,0,0,.81.44c-.14-.22-.36-.74-.74-.79.13,0,.47.1.76.18A4.29,4.29,0,0,0,55,65.21Z" style="fill: #23774b"/>
            <path d="M56,65.67c.15.08.3.17.46.24C56.47,65.82,56.26,65.74,56,65.67Z" style="fill: #23774b"/>
          </g>
          <path d="M114.59,79.81l-1.3-.48A2,2,0,0,0,114.59,79.81Z" style="fill: #e3c476;opacity: 0.6000000000000001;mix-blend-mode: multiply"/>
          <path d="M131.41,80.36c-4.09,0-8.2-.49-12.29-.64-.9,0-3.07.25-4.53.09l.79.29c-3,0-5.89-.65-8.94-.64-4.22,0-8.54-.23-12.74.09-6.21.48-12.46-.32-18.68.06-4.94.3-9.9,1.06-14.8,1.62-7.75.89-15.23.35-23,.28A96.76,96.76,0,0,0,25,82.29c-2.07.25-4.15.42-6.22.52a8,8,0,0,0-2.61.16c5.23,1.66,12,.91,17.49,1.1,6.83.23,13.63,0,20.45-.2,5.54-.2,11,.4,16.54-.25,4.8-.57,9.32.77,14.09.74,3.07,0,6.09-.51,9.16-.62s6.38.07,9.57,0c2.33-.07,4.66-.45,7-.39,2.5.06,5,.39,7.5.39,6.23,0,12.54,0,18.77-.16,1,0,1.89-.09,2.82-.16v-3.1C136.84,80.34,134.13,80.38,131.41,80.36Z" style="fill: #e3c476;opacity: 0.6000000000000001;mix-blend-mode: multiply"/>
          <g id="coche2">
            <path d="M79.14,79.47a14.22,14.22,0,0,0-1.7-.85,6.33,6.33,0,0,0-2,0,10.59,10.59,0,0,0-1.67.81,2.57,2.57,0,0,0-1,.19h0l0,0,0,0h0v0l-.08.13a1.18,1.18,0,0,0-.12.29,1.41,1.41,0,0,0-.09.59,1.46,1.46,0,0,0,.19.39h0l.09.14h0l.06.07h.88l0,0a.66.66,0,0,0,1.12,0l4.7.05a.72.72,0,0,0,.08.16.66.66,0,0,0,.57.3.68.68,0,0,0,.62-.45h.56l.42-.27,0-.61a2.07,2.07,0,0,0-.3-.54A7.11,7.11,0,0,0,79.14,79.47Z" style="fill: #f8fcff;opacity: 0.4"/>
            <ellipse cx="74.36" cy="80.92" rx="0.82" ry="0.76" style="fill: #011b1e"/>
            <path d="M72.82,79.66c-.06.08-.18.25-.17.35s.23.14.34.12.13-.19.15-.32-.21-.13-.31-.15Z" style="fill: #cdf7f6"/>
            <polygon points="73.56 80.93 72.63 81.21 72.76 81.44 81.23 81.53 81.65 81.26 80.9 81.05 73.56 80.93" style="fill: #0a353f"/>
            <polygon points="78.95 80.21 78.97 81.44 81.12 81.4 81.1 80.17 78.95 80.21" style="fill: #01272d"/>
            <path d="M79.14,79.55a13.86,13.86,0,0,0-1.67-.87,6,6,0,0,0-2,0,10.24,10.24,0,0,0-1.65.82s-.8,0-1,.19a1.81,1.81,0,0,0-.38,1.14,2.4,2.4,0,0,0,.28.54l.81,0a3.73,3.73,0,0,1,.07-.49.64.64,0,0,1,.72-.52.69.69,0,0,1,.51.26,1.53,1.53,0,0,1,.14.76l4.25.06s0-.87.53-1.08a.7.7,0,0,1,.8.19,1.92,1.92,0,0,1,.31.85l.78-.14,0-.62a2.15,2.15,0,0,0-.29-.55A6.79,6.79,0,0,0,79.14,79.55Z" style="fill: #135e7c"/>
            <g>
              <path d="M76.26,78.87l0,.84h2.43a7.08,7.08,0,0,0-1.2-.76A6.87,6.87,0,0,0,76.26,78.87Z" style="fill: #97c9dd"/>
              <path d="M77.46,78.94a6.68,6.68,0,0,0-1.19-.09h0l0,.88h2.5l0,0A7,7,0,0,0,77.46,78.94Zm-1.22.76,0-.81a6.61,6.61,0,0,1,1.18.08,6.53,6.53,0,0,1,1.15.72Z" style="fill: #084c7a"/>
            </g>
            <g>
              <path d="M73.9,79.71h2.23l0-.84a6,6,0,0,0-.78.08A12.12,12.12,0,0,0,73.9,79.71Z" style="fill: #97c9dd"/>
              <path d="M75.37,78.93a12.15,12.15,0,0,0-1.48.76l-.05,0h2.31l0-.88h0A5.86,5.86,0,0,0,75.37,78.93Zm.74.76H74A11.17,11.17,0,0,1,75.38,79a5.5,5.5,0,0,1,.76-.08Z" style="fill: #084c7a"/>
            </g>
            <g>
              <g>
                <ellipse cx="80.06" cy="81.26" rx="0.66" ry="0.71" transform="translate(-1.43 1.43) rotate(-1.02)" style="fill: #0a353f"/>
                <path d="M80.05,80.7a.56.56,0,1,0,.52.55A.54.54,0,0,0,80.05,80.7Zm-.11.14,0,.23,0,0-.15-.16A.4.4,0,0,1,79.95,80.84Zm-.27.54a.43.43,0,0,1,0-.11.48.48,0,0,1,0-.2l.18.16v.05Zm.11.2.16-.15,0,0v.23A.4.4,0,0,1,79.78,81.58Zm.33-.75a.4.4,0,0,1,.24.13l-.17.14-.06,0Zm0,.86v-.23l0,0,.15.16A.38.38,0,0,1,80.13,81.69Zm.34-.44a.45.45,0,0,1,0,.18l-.2-.1a.23.23,0,0,0,0-.08h0l.19-.14A.48.48,0,0,1,80.47,81.25Z" style="fill: #c2c3c5"/>
                <g>
                  <circle cx="80.06" cy="81.13" r="0.03" transform="translate(-1.36 1.37) rotate(-0.97)" style="fill: #0a353f"/>
                  <ellipse cx="80.17" cy="81.24" rx="0.03" ry="0.03" transform="matrix(1, -0.02, 0.02, 1, -1.38, 1.38)" style="fill: #0a353f"/>
                  <circle cx="79.95" cy="81.25" r="0.03" transform="translate(-0.67 0.67) rotate(-0.48)" style="fill: #0a353f"/>
                  <circle cx="80.14" cy="81.35" r="0.03" transform="translate(-1.29 1.29) rotate(-0.92)" style="fill: #0a353f"/>
                  <circle cx="80" cy="81.35" r="0.03" transform="translate(-1.42 1.42) rotate(-1.01)" style="fill: #0a353f"/>
                </g>
                <circle cx="80.06" cy="81.26" r="0.04" transform="translate(-2.09 2.11) rotate(-1.49)" style="fill: #0a353f"/>
              </g>
              <path d="M79.49,80.9a.74.74,0,0,0-.09.38.66.66,0,1,0,1.32.05.82.82,0,0,1-.41.12A.91.91,0,0,1,79.49,80.9Z" style="fill: #8bacb2;mix-blend-mode: multiply"/>
            </g>
            <g>
              <g>
                <ellipse cx="74.28" cy="81.26" rx="0.66" ry="0.71" transform="translate(-1.4 1.31) rotate(-1)" style="fill: #0a353f"/>
                <path d="M74.27,80.7a.56.56,0,1,0,.52.55A.54.54,0,0,0,74.27,80.7Zm-.11.14,0,.23,0,0L74,80.94A.4.4,0,0,1,74.16,80.84Zm-.27.54a.49.49,0,0,1,0-.11.45.45,0,0,1,0-.2l.18.16a.21.21,0,0,0,0,0v0Zm.11.2.16-.15,0,0v.23A.4.4,0,0,1,74,81.58Zm.33-.75a.4.4,0,0,1,.24.13l-.17.14-.06,0Zm0,.86v-.23l0,0,.15.16A.39.39,0,0,1,74.34,81.69Zm.34-.44a.48.48,0,0,1,0,.18l-.2-.1a.24.24,0,0,0,0-.08h0l.19-.14A.46.46,0,0,1,74.68,81.25Z" style="fill: #c2c3c5"/>
                <g>
                  <circle cx="74.28" cy="81.13" r="0.03" transform="translate(-1.35 1.25) rotate(-0.96)" style="fill: #0a353f"/>
                  <circle cx="74.38" cy="81.24" r="0.03" transform="translate(-1.35 1.26) rotate(-0.96)" style="fill: #0a353f"/>
                  <circle cx="74.16" cy="81.25" r="0.03" transform="matrix(1, -0.01, 0.01, 1, -0.68, 0.63)" style="fill: #0a353f"/>
                  <circle cx="74.35" cy="81.35" r="0.03" transform="matrix(1, -0.01, 0.01, 1, -0.64, 0.59)" style="fill: #0a353f"/>
                  <circle cx="74.21" cy="81.35" r="0.03" transform="matrix(1, -0.02, 0.02, 1, -1.44, 1.33)" style="fill: #0a353f"/>
                </g>
                <circle cx="74.28" cy="81.26" r="0.04" transform="matrix(1, -0.02, 0.02, 1, -1.79, 1.68)" style="fill: #0a353f"/>
              </g>
              <path d="M73.71,80.9a.74.74,0,0,0-.09.38.66.66,0,1,0,1.32.05.82.82,0,0,1-.41.12A.91.91,0,0,1,73.71,80.9Z" style="fill: #8bacb2;mix-blend-mode: multiply"/>
            </g>
            <path d="M72.54,80.21a3.59,3.59,0,0,0-.09.61l.21.39.19-.24.38-1.16-.4-.14A1.47,1.47,0,0,0,72.54,80.21Z" style="mix-blend-mode: multiply;fill: url(#linear-gradient)"/>
            <path d="M81,80h0a.38.38,0,0,0-.26,0,1.28,1.28,0,0,1,.43.66h.23a.74.74,0,0,0-.12-.38C81.28,80.19,81.11,79.94,81,80Z" style="fill: #cdf7f6"/>
            <path d="M81.18,80.4a1.48,1.48,0,0,0-.3-.38.32.32,0,0,1,.22,0h0c-.06-.08-.25,0-.33,0a3,3,0,0,1,.48.72l.25,0a.19.19,0,0,0,0-.14C81.3,80.67,81.26,80.52,81.18,80.4Z" style="fill: #0a353f"/>
            <path d="M73.74,80v.58a.65.65,0,0,1,.64-.23.78.78,0,0,1,.45.23,1.77,1.77,0,0,1,.18.81h4.13l.43-1.1-.24-.18Z" style="opacity: 0.30000000000000004;mix-blend-mode: multiply;fill: url(#linear-gradient-2)"/>
            <path d="M80.78,80.13s-.07,0-.09-.08,0-.1,0-.15-.13,0-.17,0a5.1,5.1,0,0,0-.75-.18c-.2,0-.41,0-.6-.06a.84.84,0,0,1-.28-.14l-.37-.22L78.08,79a1.64,1.64,0,0,0-.39-.21l0,0s-.15,0-.16,0,.14.11.17.13a6.56,6.56,0,0,1,.67.37,2.11,2.11,0,0,1,.33.29c0,.06.14.13.15.21a.11.11,0,0,1,0,0l.18.16a1.53,1.53,0,0,1,.76,0,3.5,3.5,0,0,1,.71.3,1.73,1.73,0,0,1,.38.26.66.66,0,0,0,.19.15,1,1,0,0,0-.19-.46Z" style="fill: #fff;opacity: 0.30000000000000004;mix-blend-mode: soft-light"/>
            <path d="M80.67,80c0-.05,0-.08,0-.13s-.08,0-.09,0a2.43,2.43,0,0,0-.48-.12l-.57-.09a1.79,1.79,0,0,1-.49-.08c-.2-.09-.4-.22-.59-.33s-.52-.26-.76-.43c0,0,0,0,0,0s.35.22.4.24a4.49,4.49,0,0,1,.69.42,1.79,1.79,0,0,0,.31.25.68.68,0,0,0,.23,0l.27,0a2.49,2.49,0,0,1,.67.22,2.79,2.79,0,0,1,.4.21c.07,0,.18.16.26.16l-.15-.19S80.68,80.06,80.67,80Z" style="fill: #fff;opacity: 0.5;mix-blend-mode: soft-light"/>
            <polygon points="78.62 79.73 78.9 80.07 78.88 81.44 78.94 80.02 78.69 79.72 78.62 79.73" style="fill: #8bacb2;mix-blend-mode: multiply"/>
            <polygon points="76.27 79.72 76.23 80.03 76.35 81.4 76.3 80.03 76.39 79.72 76.27 79.72" style="fill: #8bacb2;mix-blend-mode: multiply"/>
            <ellipse cx="76.64" cy="80.22" rx="0.22" ry="0.11" transform="translate(-1.53 1.49) rotate(-1.11)" style="opacity: 0.30000000000000004;mix-blend-mode: multiply;fill: url(#linear-gradient-3)"/>
            <rect x="76.39" y="80.17" width="0.47" height="0.09" transform="translate(-1.49 1.45) rotate(-1.08)" style="fill: #fff;opacity: 0.5;mix-blend-mode: soft-light"/>
            <polygon points="76.23 80.03 76.35 81.4 78.88 81.35 77.31 80.06 76.23 80.03" style="opacity: 0.2;mix-blend-mode: multiply;fill: url(#linear-gradient-4)"/>
            <polygon points="72.74 79.77 72.67 79.89 72.6 80.04 73.06 80.11 73.16 79.84 72.8 79.71 72.74 79.77" style="fill: url(#linear-gradient-5)"/>
            <path d="M79.14,79.55a13.86,13.86,0,0,0-1.67-.87,6,6,0,0,0-2,0,10.24,10.24,0,0,0-1.65.82s-.8,0-1,.19a1.81,1.81,0,0,0-.38,1.14,2.4,2.4,0,0,0,.28.54l.81,0a3.73,3.73,0,0,1,.07-.49.64.64,0,0,1,.72-.52.69.69,0,0,1,.51.26,1.53,1.53,0,0,1,.14.76l4.25.06s0-.87.53-1.08a.7.7,0,0,1,.8.19,1.92,1.92,0,0,1,.31.85l.78-.14,0-.62a2.15,2.15,0,0,0-.29-.55A6.79,6.79,0,0,0,79.14,79.55Z" style="opacity: 0.5;mix-blend-mode: multiply;fill: url(#linear-gradient-6)"/>
            <path d="M77.43,79a2.77,2.77,0,0,0-1-.08v0a.7.7,0,0,0,.36.19c.05,0,.15,0,.2.05s0,.06,0,.08.19.05.28.1-.08.1-.06.14.24,0,.3,0l.73,0a4.74,4.74,0,0,0-.41-.28A2.16,2.16,0,0,0,77.43,79Z" style="fill: #fff;opacity: 0.2"/>
            <path d="M75.81,78.93l-.28,0a2.46,2.46,0,0,0-.66.3l-.37.2a.85.85,0,0,1-.38.17h.5a.93.93,0,0,0,.23,0c.07,0,.07-.06.11-.12a1.09,1.09,0,0,1,.48-.38,1.35,1.35,0,0,1,.35-.12l.21,0s.09,0,.13,0h0C76,79,75.89,78.93,75.81,78.93Z" style="fill: #fff;opacity: 0.2"/>
          </g>
          <g id="coche1">
            <path d="M30.42,79.8a10.39,10.39,0,0,0-1.27-.66,4.54,4.54,0,0,0-1.53,0,7.78,7.78,0,0,0-1.25.63,1.88,1.88,0,0,0-.75.14h0l0,0,0,0h0l-.06.1a.91.91,0,0,0-.09.22.69.69,0,0,0,.07.76h0l.07.11h0l0,.05h.66v0a.48.48,0,0,0,.84,0l3.52,0a.54.54,0,0,0,.06.13.49.49,0,0,0,.42.23.51.51,0,0,0,.46-.35H32l.31-.21,0-.47a1.63,1.63,0,0,0-.22-.42A5.15,5.15,0,0,0,30.42,79.8Z" style="fill: #023836;opacity: 0.4"/>
            <ellipse cx="26.84" cy="80.93" rx="0.61" ry="0.59" style="fill: #023836"/>
            <path d="M25.69,80c0,.06-.14.2-.13.27s.17.11.25.09.1-.15.11-.24-.16-.1-.23-.11Z" style="fill: #023836"/>
            <polygon points="26.25 80.94 25.55 81.16 25.65 81.33 31.99 81.41 32.3 81.19 31.74 81.03 26.25 80.94" style="fill: #023836"/>
            <polygon points="30.28 80.38 30.3 81.33 31.9 81.3 31.89 80.35 30.28 80.38" style="fill: #023836"/>
            <path d="M30.42,79.87a10.29,10.29,0,0,0-1.25-.68,4.33,4.33,0,0,0-1.51,0,7.58,7.58,0,0,0-1.23.64s-.6,0-.74.15a1.44,1.44,0,0,0-.28.89,1.87,1.87,0,0,0,.21.42l.6,0a3,3,0,0,1,.05-.38.48.48,0,0,1,.54-.41.51.51,0,0,1,.38.2,1.23,1.23,0,0,1,.11.59l3.18,0s0-.68.4-.84a.51.51,0,0,1,.6.15,1.53,1.53,0,0,1,.23.66l.58-.11,0-.48a1.67,1.67,0,0,0-.22-.43A4.94,4.94,0,0,0,30.42,79.87Z" style="fill: #023836"/>
            <g>
              <path d="M28.27,79.33l0,.65h1.82a5.31,5.31,0,0,0-.9-.59A5,5,0,0,0,28.27,79.33Z" style="fill: #023836"/>
              <path d="M29.17,79.39a4.81,4.81,0,0,0-.89-.07h0l0,.68H30.1l0,0A5.26,5.26,0,0,0,29.17,79.39Zm-.91.59,0-.63a4.76,4.76,0,0,1,.88.07A4.85,4.85,0,0,1,30,80Z" style="fill: #023836"/>
            </g>
            <g>
              <path d="M26.5,80h1.67l0-.65a4.36,4.36,0,0,0-.58.06A8.94,8.94,0,0,0,26.5,80Z" style="fill: #023836"/>
              <path d="M27.6,79.38a9,9,0,0,0-1.11.59l0,0h1.73l0-.68h0A4.11,4.11,0,0,0,27.6,79.38Zm.55.59H26.55a8.23,8.23,0,0,1,1.06-.56,4,4,0,0,1,.57-.06Z" style="fill: #023836"/>
            </g>
            <g>
              <g>
                <ellipse cx="31.11" cy="81.19" rx="0.5" ry="0.55" transform="translate(-1.37 0.54) rotate(-0.97)" style="fill: #023836"/>
                <path d="M31.1,80.76a.41.41,0,0,0-.38.44.41.41,0,0,0,.39.43.44.44,0,0,0,0-.87Zm-.08.11L31,81l0,0-.11-.12A.31.31,0,0,1,31,80.87Zm-.2.42a.37.37,0,0,1,0-.09.39.39,0,0,1,0-.15l.13.12v0Zm.08.15.12-.12,0,0v.18A.29.29,0,0,1,30.9,81.44Zm.25-.58a.29.29,0,0,1,.18.1l-.13.11,0,0Zm0,.67v-.18l0,0,.11.13A.27.27,0,0,1,31.16,81.53Zm.25-.34a.37.37,0,0,1,0,.14l-.15-.08a.19.19,0,0,0,0-.06h0l.14-.11A.37.37,0,0,1,31.41,81.19Z" style="fill: #023836"/>
                <g>
                  <circle cx="31.11" cy="81.09" r="0.02" transform="translate(-0.96 0.38) rotate(-0.68)" style="fill: #023836"/>
                  <circle cx="31.19" cy="81.18" r="0.02" transform="matrix(1, -0.02, 0.02, 1, -1.83, 0.73)" style="fill: #023836"/>
                  <circle cx="31.03" cy="81.18" r="0.02" style="fill: #023836"/>
                  <circle cx="31.17" cy="81.26" r="0.02" transform="translate(-1.74 0.69) rotate(-1.23)" style="fill: #023836"/>
                  <circle cx="31.06" cy="81.27" r="0.02" transform="translate(-0.97 0.38) rotate(-0.68)" style="fill: #023836"/>
                </g>
                <circle cx="31.11" cy="81.19" r="0.03" transform="translate(-1.78 0.71) rotate(-1.26)" style="fill: #023836"/>
              </g>
              <path d="M30.69,80.92a.59.59,0,0,0-.07.29.5.5,0,1,0,1,0,.6.6,0,0,1-.3.09A.68.68,0,0,1,30.69,80.92Z" style="fill: #023836;mix-blend-mode: multiply"/>
            </g>
            <g>
              <g>
                <ellipse cx="26.78" cy="81.19" rx="0.5" ry="0.55" transform="translate(-1.37 0.46) rotate(-0.97)" style="fill: #023836"/>
                <path d="M26.77,80.76a.44.44,0,1,0,.39.43A.41.41,0,0,0,26.77,80.76Zm-.08.11,0,.18,0,0-.11-.12A.3.3,0,0,1,26.7,80.87Zm-.2.42a.36.36,0,0,1,0-.24l.14.12a.13.13,0,0,0,0,0v0Zm.08.15.12-.12,0,0v.18A.29.29,0,0,1,26.57,81.44Zm.25-.58A.29.29,0,0,1,27,81l-.13.11,0,0Zm0,.67v-.18l0,0,.11.13A.28.28,0,0,1,26.83,81.53Zm.25-.34a.37.37,0,0,1,0,.14l-.15-.08a.18.18,0,0,0,0-.06h0l.14-.11A.35.35,0,0,1,27.08,81.19Z" style="fill: #023836"/>
                <g>
                  <circle cx="26.78" cy="81.09" r="0.02" transform="translate(-0.94 0.32) rotate(-0.66)" style="fill: #023836"/>
                  <circle cx="26.86" cy="81.18" r="0.02" transform="translate(-1.83 0.63) rotate(-1.3)" style="fill: #023836"/>
                  <circle cx="26.7" cy="81.18" r="0.02" style="fill: #023836"/>
                  <circle cx="26.84" cy="81.26" r="0.02" transform="translate(-1.72 0.59) rotate(-1.22)" style="fill: #023836"/>
                  <circle cx="26.73" cy="81.27" r="0.02" transform="translate(-0.95 0.32) rotate(-0.67)" style="fill: #023836"/>
                </g>
                <circle cx="26.78" cy="81.19" r="0.03" transform="translate(-1.8 0.62) rotate(-1.27)" style="fill: #023836"/>
              </g>
              <path d="M26.36,80.92a.59.59,0,0,0-.07.29.5.5,0,1,0,1,0,.59.59,0,0,1-.3.09A.68.68,0,0,1,26.36,80.92Z" style="fill: #023836;mix-blend-mode: multiply"/>
            </g>
            <path d="M25.48,80.38a2.86,2.86,0,0,0-.07.47l.16.3.14-.18.28-.9-.3-.11A1.14,1.14,0,0,0,25.48,80.38Z" style="fill: #023836;mix-blend-mode: multiply"/>
            <path d="M31.83,80.22h0a.27.27,0,0,0-.19,0,1,1,0,0,1,.32.51h.17a.59.59,0,0,0-.09-.3C32,80.36,31.9,80.17,31.83,80.22Z" style="fill: #023836"/>
            <path d="M32,80.52a1.17,1.17,0,0,0-.22-.29.23.23,0,0,1,.16,0h0c0-.06-.19,0-.25,0a2.32,2.32,0,0,1,.36.56l.18,0a.15.15,0,0,0,0-.11C32,80.73,32,80.62,32,80.52Z" style="fill: #023836"/>
            <path d="M26.38,80.2v.45a.48.48,0,0,1,.48-.18.58.58,0,0,1,.33.18,1.43,1.43,0,0,1,.14.63h3.09l.32-.85-.18-.14Z" style="fill: #023836;opacity: 0.30000000000000004;mix-blend-mode: multiply"/>
            <path d="M31.65,80.31s-.06,0-.07-.06,0-.08,0-.12-.09,0-.13,0a3.7,3.7,0,0,0-.56-.14c-.15,0-.3,0-.45,0a.62.62,0,0,1-.21-.11L30,79.63l-.33-.21a1.21,1.21,0,0,0-.29-.16h0s-.11,0-.12,0,.1.09.13.1a4.87,4.87,0,0,1,.5.28,1.59,1.59,0,0,1,.25.23s.11.1.12.17a.09.09,0,0,1,0,0l.13.13a1.1,1.1,0,0,1,.57,0,2.58,2.58,0,0,1,.53.23,1.33,1.33,0,0,1,.28.21.48.48,0,0,0,.14.12.76.76,0,0,0-.14-.36Z" style="fill: #023836;opacity: 0.30000000000000004;mix-blend-mode: soft-light"/>
            <path d="M31.57,80.22s0-.07,0-.1l-.07,0a1.76,1.76,0,0,0-.36-.09l-.43-.07a1.25,1.25,0,0,1-.37-.06c-.15-.07-.3-.17-.44-.26s-.39-.2-.57-.34c0,0,0,0,0,0s.26.17.3.19a3.35,3.35,0,0,1,.51.33,1.34,1.34,0,0,0,.24.2.49.49,0,0,0,.17,0h.2a1.8,1.8,0,0,1,.5.17,2.09,2.09,0,0,1,.3.17c.05,0,.13.12.19.12l-.11-.15S31.57,80.26,31.57,80.22Z" style="fill: #023836;opacity: 0.5;mix-blend-mode: soft-light"/>
            <polygon points="30.03 80 30.24 80.27 30.23 81.33 30.27 80.23 30.08 80 30.03 80" style="fill: #023836;mix-blend-mode: multiply"/>
            <polygon points="28.27 80 28.24 80.24 28.33 81.3 28.29 80.24 28.36 80 28.27 80" style="fill: #023836;mix-blend-mode: multiply"/>
            <ellipse cx="28.55" cy="80.39" rx="0.17" ry="0.09" transform="translate(-1.5 0.55) rotate(-1.07)" style="fill: #023836;opacity: 0.30000000000000004;mix-blend-mode: multiply"/>
            <polygon points="28.36 80.35 28.36 80.42 28.72 80.41 28.72 80.34 28.36 80.35" style="fill: #023836;opacity: 0.5;mix-blend-mode: soft-light"/>
            <polygon points="28.24 80.24 28.33 81.3 30.23 81.26 29.05 80.26 28.24 80.24" style="fill: #023836;opacity: 0.2;mix-blend-mode: multiply"/>
            <polygon points="25.63 80.03 25.58 80.13 25.53 80.24 25.87 80.3 25.95 80.09 25.68 79.99 25.63 80.03" style="fill: #023836"/>
            <path d="M30.42,79.87a10.29,10.29,0,0,0-1.25-.68,4.33,4.33,0,0,0-1.51,0,7.58,7.58,0,0,0-1.23.64s-.6,0-.74.15a1.44,1.44,0,0,0-.28.89,1.87,1.87,0,0,0,.21.42l.6,0a3,3,0,0,1,.05-.38.48.48,0,0,1,.54-.41.51.51,0,0,1,.38.2,1.23,1.23,0,0,1,.11.59l3.18,0s0-.68.4-.84a.51.51,0,0,1,.6.15,1.53,1.53,0,0,1,.23.66l.58-.11,0-.48a1.67,1.67,0,0,0-.22-.43A4.94,4.94,0,0,0,30.42,79.87Z" style="fill: #023836;opacity: 0.5;mix-blend-mode: multiply"/>
            <path d="M29.14,79.45a2,2,0,0,0-.73-.06v0a.52.52,0,0,0,.27.15s.11,0,.15,0,0,0,0,.06.14,0,.21.07-.06.08,0,.11.18,0,.22,0l.54,0a3.3,3.3,0,0,0-.31-.22A1.6,1.6,0,0,0,29.14,79.45Z" style="fill: #023836;opacity: 0.2"/>
            <path d="M27.93,79.38l-.21,0a1.8,1.8,0,0,0-.5.23l-.28.15c-.07,0-.2.14-.28.13H27a.7.7,0,0,0,.17,0s.05,0,.08-.1a.82.82,0,0,1,.36-.3,1,1,0,0,1,.26-.1l.15,0s.07,0,.1,0h0S28,79.38,27.93,79.38Z" style="fill: #023836;opacity: 0.2"/>
          </g>
          <path d="M126.26,81.71l0,.09s0-.06,0-.1Z" style="fill: #8c5723;mix-blend-mode: multiply"/>
          <path d="M126,81.78l.24-.07-.05-.08C126.06,81.64,126.13,81.71,126,81.78Z" style="fill: #8c5723;mix-blend-mode: multiply"/>
          <rect x="102.7" y="19.05" width="0.57" height="11.03" style="fill: #a59771"/>
          <rect x="51.94" y="18.76" width="0.63" height="11.03" style="fill: #a59771"/>
          <rect x="47.23" y="18.76" width="0.57" height="11.03" style="fill: #a59771"/>
          <rect x="45.93" y="18.76" width="0.82" height="11.03" style="fill: #a59771"/>
          <ellipse id="ventana2-25" data-name="ventana2" cx="49.34" cy="25.14" rx="1.08" ry="1.03" style="fill: #a59771"/>
          <rect x="50.89" y="18.95" width="0.57" height="11.03" style="fill: #a59771"/>
        </g>
      </g>
    </g>
  </g>
</svg>
