<svg xmlns="http://www.w3.org/2000/svg" viewBox="0 0 166.12 49.25">
  <title>palmeries</title>
  <g id="Layer_2" data-name="Layer 2">
    <g id="Layer_1-2" data-name="Layer 1">
      <g id="palmera2">
        <path id="_Path_" data-name="&lt;Path&gt;" d="M129.36,48.89c7-4.74,10-18,10.68-25.58l1.84.41c-.64,6.44-3.39,20.73-8.65,25.52Z" style="fill: #ff8f63;fill-rule: evenodd"/>
        <path id="_Path_2" data-name="&lt;Path&gt;" d="M131.32,46.85l3.42,1a12.48,12.48,0,0,1-1.51,1.36l-3.88-.35A14,14,0,0,0,131.32,46.85Z" style="fill: #ee764e;fill-rule: evenodd"/>
        <path id="_Path_3" data-name="&lt;Path&gt;" d="M135.7,46.06l-2.88-.54a22.77,22.77,0,0,0,1.16-2l2.85.89C136.55,45,136,45.54,135.7,46.06Z" style="fill: #ee764e;fill-rule: evenodd"/>
        <path id="_Path_4" data-name="&lt;Path&gt;" d="M137.32,42.78,135,42.06c.31-.59.46-1.24.74-1.86l2.38.87C137.91,41.61,137.55,42.25,137.32,42.78Z" style="fill: #ee764e;fill-rule: evenodd"/>
        <path id="_Path_5" data-name="&lt;Path&gt;" d="M138.62,39.29l-2.07-.68c.26-.66.18-1.47.41-2.14l2.63.43C139.37,37.67,138.86,38.55,138.62,39.29Z" style="fill: #ee764e;fill-rule: evenodd"/>
        <path id="_Path_6" data-name="&lt;Path&gt;" d="M139.86,35l-2-.34c.21-.73.16-1.54.34-2.26l2.42.3C140.5,33.43,140,34.25,139.86,35Z" style="fill: #ee764e;fill-rule: evenodd"/>
        <path id="_Path_7" data-name="&lt;Path&gt;" d="M140.82,30.7l-1.88-.15c.12-.58,0-1.22.11-1.79l2.34.24C141.29,29.54,140.93,30.14,140.82,30.7Z" style="fill: #ee764e;fill-rule: evenodd"/>
        <path id="_Path_8" data-name="&lt;Path&gt;" d="M141.4,27.39c-.65,0-1.35,0-1.86-.07.07-.47,0-1,0-1.44l2.13.11C141.65,26.41,141.47,26.94,141.4,27.39Z" style="fill: #ee764e;fill-rule: evenodd"/>
        <g id="_Group_" data-name="&lt;Group&gt;">
          <path id="_Path_9" data-name="&lt;Path&gt;" d="M137.84,21.93a10.19,10.19,0,0,0-4.2-.24c-3.14.47-5.52,2.26-6.25,4.44a30.33,30.33,0,0,1,6.85-1.81,33.79,33.79,0,0,1,4.64-.37A7.5,7.5,0,0,0,135,26a4.71,4.71,0,0,0-1,5.82,18,18,0,0,1,3.22-4.37,21.63,21.63,0,0,1,3.56-2.93,21.19,21.19,0,0,1,4,3.22A17.75,17.75,0,0,1,148,32a4.65,4.65,0,0,0-1-5.75,7.22,7.22,0,0,0-2.85-1.76,33.53,33.53,0,0,1,3.77.72,29,29,0,0,1,6.54,2.45c-.4-2.23-2.51-4.24-5.56-5a10.15,10.15,0,0,0-4.69-.07q.8-.33,1.68-.62a23.9,23.9,0,0,1,5.4-1.13A7.22,7.22,0,0,0,145,20.1a6.38,6.38,0,0,0-2.82,1.79,11.33,11.33,0,0,1,.83-1.67,11.91,11.91,0,0,1,2.23-2.71,4.54,4.54,0,0,0-3.89,2.06,3.1,3.1,0,0,0-.42,2.27,6,6,0,0,0-2.48-2.08,7.43,7.43,0,0,0-6.55,0,23.26,23.26,0,0,1,5.23,1.77Z" style="fill: #608d92;fill-rule: evenodd"/>
          <path id="_Path_10" data-name="&lt;Path&gt;" d="M140.82,24.51a21.18,21.18,0,0,1,4,3.22A17.74,17.74,0,0,1,148,32a7,7,0,0,0-1.79-4.44,24.64,24.64,0,0,0-5.29-4Z" style="fill: #53797f;fill-rule: evenodd"/>
          <path id="_Path_11" data-name="&lt;Path&gt;" d="M154.35,27.63A29.24,29.24,0,0,0,148,25.26a33.52,33.52,0,0,0-3.77-.72l-2.46-1.07a29.27,29.27,0,0,1,7.47.83C153.46,25.29,154.35,27.63,154.35,27.63Z" style="fill: #53797f;fill-rule: evenodd"/>
          <path id="_Path_12" data-name="&lt;Path&gt;" d="M151.17,20.9A24,24,0,0,0,146,22q-.87.29-1.68.62l-2.59.32s3.21-2.31,5.71-2.65A5.35,5.35,0,0,1,151.17,20.9Z" style="fill: #53797f;fill-rule: evenodd"/>
          <path id="_Path_13" data-name="&lt;Path&gt;" d="M145.24,17.51A11.91,11.91,0,0,0,143,20.22a11.31,11.31,0,0,0-.83,1.67l-.89.75s0-.31.11-.63a8.45,8.45,0,0,1,1.46-3.17,4.68,4.68,0,0,1,2.27-1.33Z" style="fill: #53797f;fill-rule: evenodd"/>
          <path id="_Path_14" data-name="&lt;Path&gt;" d="M134.55,19.67c2.54.2,5.32,2.82,5.32,2.82l-2-.56-.71-.35a23.26,23.26,0,0,0-5.23-1.77l.21-.11A8.06,8.06,0,0,1,134.55,19.67Z" style="fill: #53797f;fill-rule: evenodd"/>
          <path id="_Path_15" data-name="&lt;Path&gt;" d="M131.49,23.47a22.35,22.35,0,0,1,8,0l-.57.48a33.79,33.79,0,0,0-4.64.37,30.33,30.33,0,0,0-6.85,1.81S128.07,24.32,131.49,23.47Z" style="fill: #53797f;fill-rule: evenodd"/>
          <path id="_Path_16" data-name="&lt;Path&gt;" d="M135.29,27.83a28.49,28.49,0,0,1,5-4.22l.15,1.12a21.71,21.71,0,0,0-3.23,2.71A18,18,0,0,0,134,31.81,5.77,5.77,0,0,1,135.29,27.83Z" style="fill: #53797f;fill-rule: evenodd"/>
        </g>
      </g>
      <g id="palmera1">
        <path id="_Path_17" data-name="&lt;Path&gt;" d="M141,40.79c7-4.74,10-18,10.68-25.58l1.84.41c-.64,6.44-3.39,20.73-8.65,25.52Z" style="fill: #ff8f63;fill-rule: evenodd"/>
        <path id="_Path_18" data-name="&lt;Path&gt;" d="M142.92,38.74l3.42,1a12.48,12.48,0,0,1-1.51,1.36L141,40.79A14,14,0,0,0,142.92,38.74Z" style="fill: #ee764e;fill-rule: evenodd"/>
        <path id="_Path_19" data-name="&lt;Path&gt;" d="M147.3,38l-2.88-.54a22.77,22.77,0,0,0,1.16-2l2.85.89C148.14,36.86,147.61,37.43,147.3,38Z" style="fill: #ee764e;fill-rule: evenodd"/>
        <path id="_Path_20" data-name="&lt;Path&gt;" d="M148.92,34.67,146.59,34c.31-.59.46-1.24.74-1.86l2.38.87C149.5,33.5,149.14,34.15,148.92,34.67Z" style="fill: #ee764e;fill-rule: evenodd"/>
        <path id="_Path_21" data-name="&lt;Path&gt;" d="M150.21,31.19l-2.07-.68c.26-.66.18-1.47.41-2.14l2.63.43C151,29.56,150.46,30.45,150.21,31.19Z" style="fill: #ee764e;fill-rule: evenodd"/>
        <path id="_Path_22" data-name="&lt;Path&gt;" d="M151.45,26.89l-2-.34c.21-.73.16-1.54.34-2.26l2.42.3C152.1,25.33,151.64,26.14,151.45,26.89Z" style="fill: #ee764e;fill-rule: evenodd"/>
        <path id="_Path_23" data-name="&lt;Path&gt;" d="M152.41,22.6l-1.88-.15c.12-.58,0-1.22.11-1.79l2.34.24C152.89,21.43,152.52,22,152.41,22.6Z" style="fill: #ee764e;fill-rule: evenodd"/>
        <path id="_Path_24" data-name="&lt;Path&gt;" d="M153,19.29c-.65,0-1.35,0-1.86-.07.07-.47,0-1,0-1.44l2.13.11C153.25,18.3,153.07,18.83,153,19.29Z" style="fill: #ee764e;fill-rule: evenodd"/>
        <g id="_Group_2" data-name="&lt;Group&gt;">
          <path id="_Path_25" data-name="&lt;Path&gt;" d="M149.44,13.83a10.19,10.19,0,0,0-4.2-.24c-3.14.47-5.52,2.26-6.25,4.44a30.33,30.33,0,0,1,6.85-1.81,33.79,33.79,0,0,1,4.64-.37,7.5,7.5,0,0,0-3.88,2,4.71,4.71,0,0,0-1,5.82,18,18,0,0,1,3.22-4.37,21.63,21.63,0,0,1,3.56-2.93,21.19,21.19,0,0,1,4,3.22,17.75,17.75,0,0,1,3.18,4.31,4.65,4.65,0,0,0-1-5.75,7.22,7.22,0,0,0-2.85-1.76,33.53,33.53,0,0,1,3.77.72,29,29,0,0,1,6.54,2.45c-.4-2.23-2.51-4.24-5.56-5a10.15,10.15,0,0,0-4.69-.07q.8-.33,1.68-.62a23.9,23.9,0,0,1,5.4-1.13,7.22,7.22,0,0,0-6.36-.78,6.38,6.38,0,0,0-2.82,1.79,11.33,11.33,0,0,1,.83-1.67,11.91,11.91,0,0,1,2.23-2.71,4.54,4.54,0,0,0-3.89,2.06,3.1,3.1,0,0,0-.42,2.27A6,6,0,0,0,150,11.66a7.43,7.43,0,0,0-6.55,0,23.26,23.26,0,0,1,5.23,1.77Z" style="fill: #608d92;fill-rule: evenodd"/>
          <path id="_Path_26" data-name="&lt;Path&gt;" d="M152.41,16.4a21.18,21.18,0,0,1,4,3.22,17.74,17.74,0,0,1,3.18,4.31,7,7,0,0,0-1.79-4.44,24.64,24.64,0,0,0-5.29-4Z" style="fill: #53797f;fill-rule: evenodd"/>
          <path id="_Path_27" data-name="&lt;Path&gt;" d="M165.95,19.52a29.24,29.24,0,0,0-6.37-2.37,33.52,33.52,0,0,0-3.77-.72l-2.46-1.07a29.27,29.27,0,0,1,7.47.83C165.05,17.19,165.95,19.52,165.95,19.52Z" style="fill: #53797f;fill-rule: evenodd"/>
          <path id="_Path_28" data-name="&lt;Path&gt;" d="M162.76,12.8a24,24,0,0,0-5.22,1.11q-.87.29-1.68.62l-2.59.32s3.21-2.31,5.71-2.65A5.35,5.35,0,0,1,162.76,12.8Z" style="fill: #53797f;fill-rule: evenodd"/>
          <path id="_Path_29" data-name="&lt;Path&gt;" d="M156.83,9.41a11.91,11.91,0,0,0-2.23,2.71,11.31,11.31,0,0,0-.83,1.67l-.89.75s0-.31.11-.63a8.45,8.45,0,0,1,1.46-3.17,4.68,4.68,0,0,1,2.27-1.33Z" style="fill: #53797f;fill-rule: evenodd"/>
          <path id="_Path_30" data-name="&lt;Path&gt;" d="M146.15,11.57c2.54.2,5.32,2.82,5.32,2.82l-2-.56-.71-.35a23.26,23.26,0,0,0-5.23-1.77l.21-.11A8.06,8.06,0,0,1,146.15,11.57Z" style="fill: #53797f;fill-rule: evenodd"/>
          <path id="_Path_31" data-name="&lt;Path&gt;" d="M143.08,15.36a22.35,22.35,0,0,1,8,0l-.57.48a33.79,33.79,0,0,0-4.64.37A30.33,30.33,0,0,0,139,18S139.66,16.22,143.08,15.36Z" style="fill: #53797f;fill-rule: evenodd"/>
          <path id="_Path_32" data-name="&lt;Path&gt;" d="M146.89,19.73a28.49,28.49,0,0,1,5-4.22l.15,1.12a21.71,21.71,0,0,0-3.23,2.71,18,18,0,0,0-3.22,4.37A5.77,5.77,0,0,1,146.89,19.73Z" style="fill: #53797f;fill-rule: evenodd"/>
        </g>
      </g>
      <g id="palmerie2">
        <path id="_Path_33" data-name="&lt;Path&gt;" d="M46.14,34.48c-9-5.19-12.91-19.72-13.73-28L30,7c.83,7,4.36,22.68,11.12,27.92Z" style="fill: #ff8f63;fill-rule: evenodd"/>
        <path id="_Path_34" data-name="&lt;Path&gt;" d="M43.62,32.25l-4.4,1.13a15.47,15.47,0,0,0,1.94,1.49l5-.39A16.75,16.75,0,0,1,43.62,32.25Z" style="fill: #ee764e;fill-rule: evenodd"/>
        <path id="_Path_35" data-name="&lt;Path&gt;" d="M38,31.39l3.71-.59a24.23,24.23,0,0,1-1.49-2.24l-3.67,1C36.9,30.18,37.59,30.81,38,31.39Z" style="fill: #ee764e;fill-rule: evenodd"/>
        <path id="_Path_36" data-name="&lt;Path&gt;" d="M35.9,27.79l3-.79c-.4-.64-.59-1.36-.95-2l-3.07.95C35.15,26.52,35.62,27.22,35.9,27.79Z" style="fill: #ee764e;fill-rule: evenodd"/>
        <path id="_Path_37" data-name="&lt;Path&gt;" d="M34.24,24l2.66-.74c-.33-.72-.24-1.6-.53-2.34L33,21.38C33.27,22.21,33.93,23.17,34.24,24Z" style="fill: #ee764e;fill-rule: evenodd"/>
        <path id="_Path_38" data-name="&lt;Path&gt;" d="M32.65,19.28l2.52-.37c-.27-.79-.21-1.68-.44-2.47l-3.12.32C31.81,17.57,32.4,18.46,32.65,19.28Z" style="fill: #ee764e;fill-rule: evenodd"/>
        <path id="_Path_39" data-name="&lt;Path&gt;" d="M31.41,14.58l2.42-.16c-.16-.63,0-1.34-.15-2l-3,.26C30.8,13.31,31.27,14,31.41,14.58Z" style="fill: #ee764e;fill-rule: evenodd"/>
        <path id="_Path_40" data-name="&lt;Path&gt;" d="M30.66,11c.84,0,1.74,0,2.39-.08-.1-.51,0-1.09,0-1.58l-2.74.12C30.34,9.89,30.57,10.47,30.66,11Z" style="fill: #ee764e;fill-rule: evenodd"/>
        <g id="_Group_3" data-name="&lt;Group&gt;">
          <path id="_Path_41" data-name="&lt;Path&gt;" d="M35.23,5a15.34,15.34,0,0,1,5.4-.26c4,.51,7.1,2.48,8,4.85a44.56,44.56,0,0,0-8.81-2,50.92,50.92,0,0,0-6-.41,10.28,10.28,0,0,1,5,2.24c2.23,1.93,2.61,4.43,1.24,6.36A20.2,20.2,0,0,0,36,11a27.38,27.38,0,0,0-4.58-3.21,27,27,0,0,0-5.17,3.52A19.93,19.93,0,0,0,22.15,16c-1.35-1.91-1-4.38,1.23-6.28A9.68,9.68,0,0,1,27,7.84c-1.57.18-3.2.44-4.84.79a41.59,41.59,0,0,0-8.4,2.69c.52-2.43,3.22-4.64,7.15-5.48a15.29,15.29,0,0,1,6-.08q-1-.36-2.16-.68a35.48,35.48,0,0,0-6.94-1.24A10.69,10.69,0,0,1,26,3a8.48,8.48,0,0,1,3.63,2A11.77,11.77,0,0,0,28.6,3.12a13.75,13.75,0,0,0-2.87-3,6.17,6.17,0,0,1,5,2.25,3,3,0,0,1,.54,2.49,7.54,7.54,0,0,1,3.2-2.27,11.08,11.08,0,0,1,8.42.05,33.66,33.66,0,0,0-6.73,1.93Z" style="fill: #608d92;fill-rule: evenodd"/>
          <path id="_Path_42" data-name="&lt;Path&gt;" d="M31.41,7.81a27,27,0,0,0-5.17,3.52A19.92,19.92,0,0,0,22.15,16a7,7,0,0,1,2.3-4.85,32,32,0,0,1,6.8-4.37Z" style="fill: #53797f;fill-rule: evenodd"/>
          <path id="_Path_43" data-name="&lt;Path&gt;" d="M14,11.22a41.94,41.94,0,0,1,8.19-2.59C23.84,8.28,25.46,8,27,7.84L30.2,6.67a44,44,0,0,0-9.61.9C15.16,8.67,14,11.22,14,11.22Z" style="fill: #53797f;fill-rule: evenodd"/>
          <path id="_Path_44" data-name="&lt;Path&gt;" d="M18.1,3.87a35.66,35.66,0,0,1,6.71,1.22q1.12.31,2.16.68l3.32.34s-4.12-2.53-7.34-2.9A7.87,7.87,0,0,0,18.1,3.87Z" style="fill: #53797f;fill-rule: evenodd"/>
          <path id="_Path_45" data-name="&lt;Path&gt;" d="M25.73.16a13.75,13.75,0,0,1,2.87,3,11.75,11.75,0,0,1,1.07,1.82l1.14.82a6.32,6.32,0,0,0-.14-.69,8.63,8.63,0,0,0-1.88-3.46A6.39,6.39,0,0,0,25.87.16Z" style="fill: #53797f;fill-rule: evenodd"/>
          <path id="_Path_46" data-name="&lt;Path&gt;" d="M39.47,2.52c-3.26.22-6.84,3.09-6.84,3.09L35.23,5l.91-.38a33.67,33.67,0,0,1,6.73-1.93l-.27-.12A12.16,12.16,0,0,0,39.47,2.52Z" style="fill: #53797f;fill-rule: evenodd"/>
          <path id="_Path_47" data-name="&lt;Path&gt;" d="M43.41,6.67c-4.4-.94-10.24,0-10.24,0l.73.53a50.93,50.93,0,0,1,6,.41,44.56,44.56,0,0,1,8.81,2S47.8,7.61,43.41,6.67Z" style="fill: #53797f;fill-rule: evenodd"/>
          <path id="_Path_48" data-name="&lt;Path&gt;" d="M38.51,11.44A36.08,36.08,0,0,0,32,6.83l-.2,1.23A27.37,27.37,0,0,1,36,11a20.19,20.19,0,0,1,4.14,4.78A5.64,5.64,0,0,0,38.51,11.44Z" style="fill: #53797f;fill-rule: evenodd"/>
        </g>
      </g>
      <g id="palmerie1">
        <path id="_Path_49" data-name="&lt;Path&gt;" d="M32.35,34.33c-9-5.19-12.91-19.72-13.73-28l-2.37.45c.83,7,4.36,22.68,11.12,27.92Z" style="fill: #ff8f63;fill-rule: evenodd"/>
        <path id="_Path_50" data-name="&lt;Path&gt;" d="M29.83,32.09l-4.4,1.13a15.47,15.47,0,0,0,1.94,1.49l5-.39A16.75,16.75,0,0,1,29.83,32.09Z" style="fill: #ee764e;fill-rule: evenodd"/>
        <path id="_Path_51" data-name="&lt;Path&gt;" d="M24.2,31.23l3.71-.59a24.22,24.22,0,0,1-1.49-2.24l-3.67,1C23.11,30,23.8,30.65,24.2,31.23Z" style="fill: #ee764e;fill-rule: evenodd"/>
        <path id="_Path_52" data-name="&lt;Path&gt;" d="M22.11,27.64l3-.79c-.4-.64-.59-1.36-.95-2l-3.07.95C21.36,26.36,21.83,27.06,22.11,27.64Z" style="fill: #ee764e;fill-rule: evenodd"/>
        <path id="_Path_53" data-name="&lt;Path&gt;" d="M20.45,23.83l2.66-.74c-.33-.72-.24-1.6-.53-2.34l-3.38.47C19.48,22,20.14,23,20.45,23.83Z" style="fill: #ee764e;fill-rule: evenodd"/>
        <path id="_Path_54" data-name="&lt;Path&gt;" d="M18.86,19.12l2.52-.37c-.27-.79-.21-1.68-.44-2.47l-3.12.32C18,17.41,18.61,18.31,18.86,19.12Z" style="fill: #ee764e;fill-rule: evenodd"/>
        <path id="_Path_55" data-name="&lt;Path&gt;" d="M17.62,14.43,20,14.27c-.16-.63,0-1.34-.15-2l-3,.26C17,13.16,17.48,13.82,17.62,14.43Z" style="fill: #ee764e;fill-rule: evenodd"/>
        <path id="_Path_56" data-name="&lt;Path&gt;" d="M16.87,10.81c.84,0,1.74,0,2.39-.08-.1-.51,0-1.09,0-1.58l-2.74.12C16.55,9.73,16.78,10.31,16.87,10.81Z" style="fill: #ee764e;fill-rule: evenodd"/>
        <g id="_Group_4" data-name="&lt;Group&gt;">
          <path id="_Path_57" data-name="&lt;Path&gt;" d="M21.45,4.83a15.34,15.34,0,0,1,5.4-.26c4,.51,7.1,2.48,8,4.85a44.56,44.56,0,0,0-8.81-2,50.92,50.92,0,0,0-6-.41,10.28,10.28,0,0,1,5,2.24c2.23,1.93,2.61,4.43,1.24,6.36a20.2,20.2,0,0,0-4.14-4.78,27.38,27.38,0,0,0-4.58-3.21,27,27,0,0,0-5.17,3.52,19.93,19.93,0,0,0-4.09,4.72C7,14,7.38,11.51,9.59,9.61a9.67,9.67,0,0,1,3.66-1.92c-1.57.18-3.2.44-4.84.79A41.59,41.59,0,0,0,0,11.16C.52,8.73,3.22,6.52,7.15,5.68a15.29,15.29,0,0,1,6-.08q-1-.36-2.16-.68A35.48,35.48,0,0,0,4.08,3.69a10.69,10.69,0,0,1,8.18-.86,8.48,8.48,0,0,1,3.63,2A11.77,11.77,0,0,0,14.81,3a13.75,13.75,0,0,0-2.87-3,6.17,6.17,0,0,1,5,2.25,3,3,0,0,1,.54,2.49,7.54,7.54,0,0,1,3.2-2.27,11.08,11.08,0,0,1,8.42.05,33.66,33.66,0,0,0-6.73,1.93Z" style="fill: #608d92;fill-rule: evenodd"/>
          <path id="_Path_58" data-name="&lt;Path&gt;" d="M17.62,7.65a27,27,0,0,0-5.17,3.52,19.92,19.92,0,0,0-4.09,4.72A7,7,0,0,1,10.66,11a32,32,0,0,1,6.8-4.37Z" style="fill: #53797f;fill-rule: evenodd"/>
          <path id="_Path_59" data-name="&lt;Path&gt;" d="M.21,11.06A41.94,41.94,0,0,1,8.4,8.47c1.64-.35,3.27-.61,4.84-.79l3.17-1.17a44,44,0,0,0-9.61.9C1.37,8.51.21,11.06.21,11.06Z" style="fill: #53797f;fill-rule: evenodd"/>
          <path id="_Path_60" data-name="&lt;Path&gt;" d="M4.31,3.71A35.66,35.66,0,0,1,11,4.93q1.12.31,2.16.68L16.5,6S12.38,3.42,9.16,3A7.87,7.87,0,0,0,4.31,3.71Z" style="fill: #53797f;fill-rule: evenodd"/>
          <path id="_Path_61" data-name="&lt;Path&gt;" d="M11.94,0a13.75,13.75,0,0,1,2.87,3,11.75,11.75,0,0,1,1.07,1.82L17,5.61a6.32,6.32,0,0,0-.14-.69A8.63,8.63,0,0,0,15,1.46,6.39,6.39,0,0,0,12.08,0Z" style="fill: #53797f;fill-rule: evenodd"/>
          <path id="_Path_62" data-name="&lt;Path&gt;" d="M25.68,2.36c-3.26.22-6.84,3.09-6.84,3.09l2.61-.62.91-.38a33.67,33.67,0,0,1,6.73-1.93l-.27-.12A12.16,12.16,0,0,0,25.68,2.36Z" style="fill: #53797f;fill-rule: evenodd"/>
          <path id="_Path_63" data-name="&lt;Path&gt;" d="M29.62,6.51c-4.4-.94-10.24,0-10.24,0l.73.53a50.93,50.93,0,0,1,6,.41,44.56,44.56,0,0,1,8.81,2S34,7.45,29.62,6.51Z" style="fill: #53797f;fill-rule: evenodd"/>
          <path id="_Path_64" data-name="&lt;Path&gt;" d="M24.72,11.29a36.08,36.08,0,0,0-6.48-4.62L18,7.9a27.37,27.37,0,0,1,4.15,3,20.19,20.19,0,0,1,4.14,4.78A5.64,5.64,0,0,0,24.72,11.29Z" style="fill: #53797f;fill-rule: evenodd"/>
        </g>
      </g>
    </g>
  </g>
</svg>
