<svg id='plane' xmlns="http://www.w3.org/2000/svg" viewBox="0 0 177.2 51.4">
  <title>plane</title>
  <g id="Layer_2" data-name="Layer 2">
    <g id="Layer_1-2" data-name="Layer 1">
      <path d="M174.81,1.61l-.07,0c-1.6-1.12-3-1.93-4.89-1.4L131.32,11a3.51,3.51,0,0,1-3.1-.62,44.19,44.19,0,0,1-5-4.18c-1.91-2.05-4.1-4.71-4.1-4.71l-3.53,1.33,4.59,11.32-2.58.73a.87.87,0,0,0,0,1.57l5.51,1.62a26.36,26.36,0,0,0,14,.26l2.09-.53c-1.68,2.58-3.49,5.41-3.52,5.7-.07.54,6.84-1.61,7.47-2,.26-.14,2-2.1,4-4.4a2.2,2.2,0,0,0,2-.58,3.93,3.93,0,0,0,1-1.55c7-1.85,14.19-3.78,18.14-5,2.25-.71,8.43-3.34,9-5.92C177.46,2.63,175.57,2.09,174.81,1.61ZM131.25,13.49c-.23.07-.46-.12-.51-.41a.56.56,0,0,1,.33-.65c.23-.07.46.12.51.41A.56.56,0,0,1,131.25,13.49Zm1.83-.52c-.23.07-.46-.12-.51-.41a.56.56,0,0,1,.33-.65c.23-.07.46.12.51.41A.56.56,0,0,1,133.08,13Zm1.83-.52c-.23.07-.46-.12-.51-.41a.56.56,0,0,1,.33-.65c.23-.07.46.12.51.41A.56.56,0,0,1,134.91,12.45Zm1.83-.52c-.23.07-.46-.12-.51-.41a.56.56,0,0,1,.33-.65c.23-.07.46.12.51.41A.56.56,0,0,1,136.74,11.93ZM143.58,10c-.23.07-.46-.12-.51-.41a.56.56,0,0,1,.33-.65c.23-.07.46.12.51.41A.56.56,0,0,1,143.58,10Zm1.83-.52c-.23.07-.46-.12-.51-.41a.56.56,0,0,1,.33-.65c.23-.07.46.12.51.41A.56.56,0,0,1,145.41,9.46Zm1.83-.52c-.23.07-.46-.12-.51-.41a.56.56,0,0,1,.33-.65c.23-.07.46.12.51.41A.56.56,0,0,1,147.24,8.95Zm1.83-.52c-.23.07-.46-.12-.51-.41a.56.56,0,0,1,.33-.65c.23-.07.46.12.51.41A.56.56,0,0,1,149.07,8.43Zm6.84-1.94c-.23.07-.46-.12-.51-.41a.56.56,0,0,1,.33-.65c.23-.07.46.12.51.41A.56.56,0,0,1,155.91,6.48ZM157.74,6c-.23.07-.46-.12-.51-.41a.56.56,0,0,1,.33-.65c.23-.07.46.12.51.41A.56.56,0,0,1,157.74,6Zm1.83-.52c-.23.07-.46-.12-.51-.41a.56.56,0,0,1,.33-.65c.23-.07.46.12.51.41A.56.56,0,0,1,159.57,5.44Zm1.83-.52c-.23.07-.46-.12-.51-.41a.56.56,0,0,1,.33-.65c.23-.07.46.12.51.41A.56.56,0,0,1,161.4,4.92Zm1.83-.52c-.23.07-.46-.12-.51-.41a.56.56,0,0,1,.33-.65c.23-.07.46.12.51.41A.56.56,0,0,1,163.23,4.4Zm1.83-.52c-.23.07-.46-.12-.51-.41a.56.56,0,0,1,.33-.65c.23-.07.46.12.51.41A.56.56,0,0,1,165.06,3.88Zm1.83-.52c-.23.07-.46-.12-.51-.41a.56.56,0,0,1,.33-.65c.23-.07.46.12.51.41A.56.56,0,0,1,166.89,3.36Zm5.22-.71c-.51.15-1-.26-1.14-.92a.65.65,0,0,1,.38-.76c.51-.15,1,.26,1.14.92A.65.65,0,0,1,172.11,2.65Z" style="fill: #fff;opacity: 0.81"/>
      <polyline points="0.59 39.48 116.21 11.22 115.62 10.58 0 38.85" style="fill: #fff;opacity: 0.64"/>
      <polyline points="18.68 51.4 134.3 23.14 133.71 22.5 18.09 50.76" style="fill: #fff;opacity: 0.64"/>
      <polyline points="12.58 47.86 128.2 19.59 127.8 19.4 12.18 47.67" style="fill: #fff;opacity: 0.64"/>
    </g>
  </g>
</svg>
