<svg class='us' xmlns="http://www.w3.org/2000/svg" viewBox="0 0 36.02 37.26">
  <title>us</title>
  <g id="Layer_2" data-name="Layer 2">
    <g id="Layer_1-2" data-name="Layer 1">
      <g id="Us">
        <path d="M18.51,26.28h0c0,.09,0,.19,0,.31s0,.21,0,.32c-.1,1.09-.33,2.75-.33,2.75L17,35H15.58l.13-4.75v-.33a4.13,4.13,0,0,1-.13-.51l0-.15a6.54,6.54,0,0,1,0-2.05,6.8,6.8,0,0,1,.21-.9Z" style="fill: #fcb38f"/>
        <path d="M18.51,26.28h0c0,.09,0,.19,0,.31s0,.21,0,.32c-.84.12-2.22.19-2.86.27a6.8,6.8,0,0,1,.21-.9Z" style="fill: #fd8471"/>
        <g>
          <path d="M13.64,27.13a5.64,5.64,0,0,1-.16,1.09h0c-.07.29-.15.57-.23.81-.15.45-.29.75-.29.75l-.2,3.79s0-.38-.82-.33-.91.54-.91.54l-.39-4v-.34a4,4,0,0,1-.12-1h0c0-.22,0-.44,0-.66s0-.32,0-.46h0c0-.46.07-.79.07-.79.61-.46,3,0,3,0A3,3,0,0,1,13.64,27.13Z" style="fill: #fcb38f"/>
          <path d="M13.64,27.13a15.34,15.34,0,0,1-3.12.7c0-.16,0-.32,0-.46h0c0-.46.07-.79.07-.79.61-.46,3,0,3,0A3,3,0,0,1,13.64,27.13Z" style="fill: #fd8471"/>
          <path d="M11.19,30a1.64,1.64,0,0,1-.55-.15v-.34a4,4,0,0,1-.12-1C10.53,28.65,10.68,29.71,11.19,30Z" style="fill: #fd8471"/>
          <path d="M13.25,29c-.15.45-.29.75-.29.75v.12a1.87,1.87,0,0,1-.68.12C12.86,29.9,13.25,29,13.25,29Z" style="fill: #fd8471"/>
        </g>
        <path d="M19.39,18.21a33.5,33.5,0,0,1,.54,3.45c.1,1.36-.56,2.34-.22,3.16s-.19,1.63-1.44,1.63c-1.6,0-2.93.16-3.13-.35a2.07,2.07,0,0,1,0-1.2c0-.44,0-2.56,0-2.56l-.45.08a18,18,0,0,1,0,3c-.16.19.06,1.25-.13,1.41s-3.4-.2-4.12,0-.91-.38-.82-.55a10.18,10.18,0,0,0,.22-1.38c.05-.35-.15-1.86,0-2.49a6.34,6.34,0,0,0-.09-2c-.09-.49-.16-1.22,0-1.43A56.45,56.45,0,0,1,19.39,18.21Z" style="fill: #2d1c64"/>
        <path d="M18.26,2.14l.08,1L18,3.21a3.34,3.34,0,0,1-.79,1.18l-.08,0a4.22,4.22,0,0,1-2.64-1.22A1.1,1.1,0,0,1,14.32,3c-.39-.73.34-2.49,1.21-2.93s3.13.79,3.13.79Z" style="fill: #fcb38f"/>
        <path d="M17.18,4.39l-.08,0a4.22,4.22,0,0,1-2.64-1.22l.24-.56.69-.19a.56.56,0,0,0,.42.15.52.52,0,0,0,.34-.15,1.39,1.39,0,0,1-.4.57C15.48,3.23,16,4.27,17.18,4.39Z" style="fill: #fd8471"/>
        <path d="M15.81,2.23s0-.26,0-.48a.36.36,0,0,0-.25,0,.75.75,0,0,1,.25-.13.33.33,0,0,0,0-.12c-.07-.13-.29-.16-.29-.16s.27-.07.38.07A.88.88,0,0,1,15.81,2.23Z" style="fill: #fd8471"/>
        <g>
          <path d="M18.86,15.24c-.06-.14-.13-.29-.19-.44,0,.08.36,1.25.57,2.24h0a5,5,0,0,1,.15,1.17c-.07.7-1.51.3-2.95.62s-6.88.35-7.05,0a12,12,0,0,1,.1-2.75h0c.07-.68.14-1.35.2-1.82a14.47,14.47,0,0,0-.07-3.1A24.27,24.27,0,0,1,9.12,15c-.34,1-1.23,2.6-1.19,3.44l-1.07,0h0l-.6,0s.54-2.8.82-4.24.36-4.41.81-5.82A5.93,5.93,0,0,1,9.12,5.75,6,6,0,0,1,10.74,5l1.32-.31S11,3.58,11.48,3a1.62,1.62,0,0,1,1.16-.64,1.42,1.42,0,0,1,.51.08A17.25,17.25,0,0,0,16.7,4.39a.35.35,0,0,1,.27.46.52.52,0,0,1-.15.18,12.82,12.82,0,0,1,2.42,1c1.1.76.76,2.09.76,2.72s.12,4.43.21,5,.13,1.05.13,1.05L20,17.11a10.09,10.09,0,0,1-1.11-1.87Z" style="fill: #31d4a9"/>
          <path d="M16.82,5a3.4,3.4,0,0,1-1.3.31,12.84,12.84,0,0,0-2.61-.07A3.27,3.27,0,0,1,10.74,5l1.32-.31S11,3.58,11.48,3a1.62,1.62,0,0,1,1.16-.64,1,1,0,0,0-.53,1A1.61,1.61,0,0,0,13.3,4.71c.61.14,1.5.1,2,.19A14.2,14.2,0,0,0,16.82,5Z" style="fill: #31af8b"/>
          <path d="M19.24,17a9.7,9.7,0,0,1-1.83-6.18,10,10,0,0,1,.49-2.3c.08.89-.12,1.6-.1,2.67a19.26,19.26,0,0,0,.87,3.58l.19.44c-.06-.14-.13-.29-.19-.44C18.69,14.88,19,16.05,19.24,17Z" style="fill: #31af8b"/>
          <path d="M9.7,14.26a14.47,14.47,0,0,0-.07-3.1A24.27,24.27,0,0,1,9.12,15c-.34,1-1.23,2.6-1.19,3.44l-1.07,0a1,1,0,0,0,.8-.75,12.08,12.08,0,0,1,1-2.41,16.73,16.73,0,0,0,.48-3.34c0-.44.48-3.72.48-3.72a20.75,20.75,0,0,0,.45,3.66c.31.82-.59,4.1-.61,4.19C9.56,15.4,9.64,14.73,9.7,14.26Z" style="fill: #31af8b"/>
        </g>
        <g>
          <path d="M16.4,5.2a2.25,2.25,0,0,1,1-.26c.58,0,1.07.71,1.07.71a.72.72,0,0,0-.58.36A4.16,4.16,0,0,0,16.4,5.2Z" style="fill: #2d1c64"/>
          <g>
            <path d="M17.89,6.43c-.37.9-.43,6-.49,6.66s.35,4.62-4.1,4.65c-3.4,0-4.14-2.07-4.5-4.15h0c-.11-.65-.18-1.3-.29-1.88a6.44,6.44,0,0,1-.09-.91c0-.21,0-.42,0-.63a11.64,11.64,0,0,1,.2-1.72c0-.15.06-.3.1-.45.35-1.51.93-2.79,1.44-3l0,0a2.42,2.42,0,0,1,.44-.13,10.93,10.93,0,0,1,2.65-.09,24.13,24.13,0,0,1,2.7.4l.34.08a4.62,4.62,0,0,1,1.12.41C17.87,5.83,18,6.1,17.89,6.43Z" style="fill: #403384"/>
            <path d="M16.52,10.79c0,.23,0,.45-.05.67a8,8,0,0,1-4.47.93,6.11,6.11,0,0,1-3.57-1.6c0-.21,0-.42,0-.63a5.92,5.92,0,0,0,4.47,1.69A7.83,7.83,0,0,0,16.52,10.79Z" style="fill: #2d1c64"/>
            <path d="M16.91,8.06c0,.24-.09.5-.13.76A7.72,7.72,0,0,1,12,10,5.71,5.71,0,0,1,8.63,8.44c0-.15.06-.3.1-.45A5.32,5.32,0,0,0,12.89,9.5,6.89,6.89,0,0,0,16.91,8.06Z" style="fill: #2d1c64"/>
            <path d="M17.89,6.43c-.37.9-.43,6-.49,6.66s.35,4.62-4.1,4.65c-3.4,0-4.14-2.07-4.5-4.15,0,.09.91,3.17,3.92,3s3.66-2.64,3.72-4.7a35.92,35.92,0,0,1,.82-5.6,3.72,3.72,0,0,1,.21-.72C17.87,5.83,18,6.1,17.89,6.43Z" style="fill: #2d1c64"/>
          </g>
          <path d="M10.27,16.13c-.59-1.24-.38-4.33-.37-4.46h.28S10,14.85,10.53,16Z" style="fill: #2d1c64"/>
          <path d="M14.49,16.39c-.59-1.24-.38-4.33-.37-4.46h.28s-.22,3.18.35,4.37Z" style="fill: #2d1c64"/>
          <path d="M16.34,5.19A3.23,3.23,0,0,1,15,7.59a4.72,4.72,0,0,1-2.27.48A6.3,6.3,0,0,1,12,8a2.89,2.89,0,0,1-1.76-.71,2.29,2.29,0,0,1,0-2.39,2.42,2.42,0,0,1,.44-.13c-.23.46-.73,1.68-.11,2.36a2.48,2.48,0,0,0,1.53.6,4.94,4.94,0,0,0,2.71-.39A3,3,0,0,0,16,5.11Z" style="fill: #2d1c64"/>
        </g>
        <g>
          <path d="M12.76,35.78c-.18.24,0,.87-.48,1.1a4.54,4.54,0,0,1-2.14,0,.22.22,0,0,1-.1-.11h0a1.55,1.55,0,0,1,.1-1.11c.2-.39.8-1.39.8-1.39a2.74,2.74,0,0,1,.1-.48s-.06-.58.86-.61.87.39.87.39a1.39,1.39,0,0,1,.38.67A3.38,3.38,0,0,1,12.76,35.78Z" style="fill: #f15a48"/>
          <path d="M12.76,35.78c-.18.24,0,.87-.48,1.1a4.54,4.54,0,0,1-2.14,0,.22.22,0,0,1-.1-.11h0c-.1-.31.31-.58.47-.93s.8-1.18.87-1.37a1.37,1.37,0,0,1,1-.52.88.88,0,0,1,.73.29A3.38,3.38,0,0,1,12.76,35.78Z" style="fill: #d43538"/>
        </g>
        <path d="M15.72,30.22v-.33a4.13,4.13,0,0,1-.13-.51,1.87,1.87,0,0,0,.74,1A4.8,4.8,0,0,1,15.72,30.22Z" style="fill: #fd8471"/>
        <g>
          <path d="M17.55,36.89a3.74,3.74,0,0,1-2.52-.1,1.84,1.84,0,0,1,0-.35,10.29,10.29,0,0,1,.27-1.1,1.52,1.52,0,0,1,.25-.7,2.64,2.64,0,0,1,1.47.1s.29.15.39.75a8.62,8.62,0,0,1,.09,1.06C17.55,36.75,17.55,36.89,17.55,36.89Z" style="fill: #f15a48"/>
          <path d="M17.55,36.89a3.74,3.74,0,0,1-2.52-.1,1.84,1.84,0,0,1,0-.35,2.14,2.14,0,0,0,1.23.31,4.17,4.17,0,0,0,1.25-.2C17.55,36.75,17.55,36.89,17.55,36.89Z" style="fill: #d43538"/>
        </g>
        <g>
          <path d="M8.93,20.23c0,.3-.49.64-.77.64l-.1,0h0L7.95,21a1,1,0,0,1-.82.28,1.36,1.36,0,0,1-1.36-1A.51.51,0,0,1,6,19.63a.87.87,0,0,1,.18-.1,1.08,1.08,0,0,1,.12-1.12,12.2,12.2,0,0,1,1.66.07s.1.38.21.64S8.93,19.93,8.93,20.23Z" style="fill: #fcb38f"/>
          <g>
            <path d="M2.89,26.59l-.2,0,1-6.56a.73.73,0,0,1,.77-.54H7a.87.87,0,0,1,.57.2.55.55,0,0,1,.2.47L7,26.59l-.2,0,.8-6.44a.4.4,0,0,0-.14-.35A.64.64,0,0,0,7,19.63H4.44a.54.54,0,0,0-.56.4Z" style="fill: #2d1c64"/>
            <path d="M7.66,20.33h0a.28.28,0,0,1-.29-.28.24.24,0,0,0-.09-.21A.39.39,0,0,0,7,19.75H4.44a.33.33,0,0,0-.34.24.32.32,0,0,1-.36.23c-.18,0-.3-.15-.28-.29a.94.94,0,0,1,1-.7H7a1.12,1.12,0,0,1,.74.26A.7.7,0,0,1,8,20.1.3.3,0,0,1,7.66,20.33Z" style="fill: #2d1c64"/>
          </g>
          <g>
            <path d="M9.53,28l-.31,6.18V36a.75.75,0,0,1-.61.68,23.34,23.34,0,0,1-7.4.11.88.88,0,0,1-.77-.57c-.12-.4-.22-.93-.3-1.32s-.1-.54-.1-.54a41,41,0,0,1,.7-7.27,1,1,0,0,1,1-.72c1.91-.05,6.33-.14,6.79.16l0,0a3.5,3.5,0,0,1,.9,1.1A.57.57,0,0,1,9.53,28Z" style="fill: #f15a48"/>
            <path d="M9.53,28l-.31,6.18V36a.75.75,0,0,1-.61.68,23.34,23.34,0,0,1-7.4.11.88.88,0,0,1-.77-.57c-.12-.4-.22-.93-.3-1.32a25.81,25.81,0,0,0,4.35.37c2.47,0,3.27,0,3.51-.33s.32-6.86.56-8.39a3.5,3.5,0,0,1,.9,1.1A.57.57,0,0,1,9.53,28Z" style="fill: #d43538"/>
          </g>
          <path d="M1.47,31.31a16.06,16.06,0,0,0-.24,2.43.24.24,0,0,0,.23.2,26.64,26.64,0,0,0,5.18,0,.23.23,0,0,0,.22-.19c0-.44.13-1.67.13-2.36a.23.23,0,0,0-.22-.21,21,21,0,0,0-5.09-.06A.23.23,0,0,0,1.47,31.31Z" style="fill: #d43538"/>
          <path d="M8.06,20.89s-.89-.4-.9-.75.57-.34.74-.3a3,3,0,0,1,.52.25A1.08,1.08,0,0,1,8.06,20.89Z" style="fill: #fcb38f"/>
          <path d="M5.72,20.07a.59.59,0,0,1,.3-.58,2.25,2.25,0,0,1,1.44.19.56.56,0,0,1,.16.43A6.15,6.15,0,0,1,5.72,20.07Z" style="fill: #fcb38f"/>
        </g>
        <g>
          <g>
            <path d="M26.26,34.08H25l-.26-.89a1.86,1.86,0,0,1,1.47-.27C26.25,33.59,26.26,34.08,26.26,34.08Z" style="fill: #fcb38f"/>
            <path d="M26.26,34.08H25l-.26-.89a1.86,1.86,0,0,1,1.47-.27C26.25,33.59,26.26,34.08,26.26,34.08Z" style="fill: #fcb38f"/>
            <g>
              <path d="M29.15,21.82a46.94,46.94,0,0,0-.44,4.77l-2.13,1.32a26.3,26.3,0,0,1-.76-5.61v4.28a8.44,8.44,0,0,1,.44,2.65c0,.35,0,2.37,0,3.69,0,.67,0,1.16,0,1.16H25l-.26-.89c-.31-1-.81-2.7-1.06-3.32a13.63,13.63,0,0,1-.41-3c-.1-.61-.44-2.14-1-4.33a11.71,11.71,0,0,1-.41-3.82L29,17.88a2.6,2.6,0,0,1,.5,1.35A6.2,6.2,0,0,1,29.15,21.82Z" style="fill: #2d1c64"/>
              <path d="M26.26,34.08H25l-.26-.89a1.86,1.86,0,0,1,1.47-.27C26.25,33.59,26.26,34.08,26.26,34.08Z" style="fill: #fcb38f"/>
            </g>
            <g>
              <g>
                <path d="M21.85,20.6c0,.32-.12.65-.36.76s-1.59-.12-1.56-.56a6.82,6.82,0,0,1,.3-1.25H21l.24.09c.24.1.58.29.59.52A3,3,0,0,1,21.85,20.6Z" style="fill: #fcb38f"/>
                <path d="M21.85,20.6a.72.72,0,0,1-.39.34c-.35.12-.69,0-.83-.57s0-.73,0-.73h.6c.24.1.58.29.59.52A3,3,0,0,1,21.85,20.6Z" style="fill: #fd8471"/>
                <path d="M21.33,19.18a3.22,3.22,0,0,1,.55.91.62.62,0,0,1-.52.73c-.32,0-.63-.56-.48-1C20.93,19.76,21.27,19.73,21.33,19.18Z" style="fill: #fcb38f"/>
              </g>
              <path d="M31.18,18.89a8.58,8.58,0,0,0-.94.1s-.39-1.34-.44-1.53-.66-2.35-.77-2.75a16.08,16.08,0,0,1-.1-2s0,.44-.05,1.45a25.15,25.15,0,0,0,.51,2.77h0c.13.8.15,1.47-.26,1.57-.92.23-2.6-.23-4.13,0a21.1,21.1,0,0,1-3.13.2,8,8,0,0,0-.09-1.47,14.71,14.71,0,0,0-.45,2c0,.69-.91.75-1.13.46,0,0-.08-.28-.15-.67a6,6,0,0,1-.11-1.11c0-.57.18-3.06.18-3.06a34.41,34.41,0,0,1-.2-4.27A1.86,1.86,0,0,1,20.87,9C21.82,8.4,23,7.77,23,7.77h.18l5.11.17s.32.15.69.36a3.51,3.51,0,0,1,1.18.92,31,31,0,0,1,.77,5.41c0,.6.14,2.64.22,3.66h0Z" style="fill: #f15a48"/>
              <path d="M29.13,18.49c-.92.23-2.6-.23-4.13,0a21.1,21.1,0,0,1-3.13.2,8,8,0,0,0-.09-1.47,14.71,14.71,0,0,0-.45,2c0,.69-.91.75-1.13.46,0,0-.08-.28-.15-.67,0,0,.4.7.84.46s.5-2.57.7-2.87-.37-1.45-.37-1.45l.55.24a23.87,23.87,0,0,0,.09-4,7.69,7.69,0,0,1,.27,2.1,5.85,5.85,0,0,0,0,2.33c.23.6.27,1.71.53,2s2.05-.23,2.76,0,3.18.39,3.6,0a1,1,0,0,0,.36-.83h0C29.53,17.72,29.54,18.39,29.13,18.49Z" style="fill: #d43538"/>
              <path d="M31.18,18.89a8.58,8.58,0,0,0-.94.1s-.39-1.34-.44-1.53-.66-2.35-.77-2.75a16.08,16.08,0,0,1-.1-2l.16-2s.1,3.1.16,3.58.39.53.39.53a.5.5,0,0,1-.22.12s.48,2.14.66,2.64.38.92.68.94a.35.35,0,0,0,.37-.26Z" style="fill: #d43538"/>
              <path d="M29.19,10.07c-.3.59-1.16.32-1.91.22s-1.86.81-2.81.91a2.3,2.3,0,0,1-2.31-1.43c-.23-.81.91-1.91,1-2l5.11.17s.32.15.69.36A3.17,3.17,0,0,1,29.19,10.07Z" style="fill: #d43538"/>
            </g>
            <path d="M23,7,23,7.77s1,.07,1.26-.21l-.07-.87Z" style="fill: #fd8471"/>
            <path d="M25.69,6.05a3.13,3.13,0,0,1-1.33.65,22.32,22.32,0,0,1-2.25.47H22a.84.84,0,0,1-.74-.26.16.16,0,0,1,0-.14,3.85,3.85,0,0,0,.08-1,1,1,0,0,1,0-.37,1.26,1.26,0,0,1-.4-.24A.11.11,0,0,1,21,5l.71-.47a5.64,5.64,0,0,1,.16-.6,7.93,7.93,0,0,1,1.26-1.19,3.62,3.62,0,0,1,3.18.95A3.44,3.44,0,0,1,25.69,6.05Z" style="fill: #fcb38f"/>
            <path d="M24.36,6.7a22.32,22.32,0,0,1-2.25.47H22a.84.84,0,0,1-.74-.26A1.78,1.78,0,0,0,22,7a6.18,6.18,0,0,0,2-1.08Z" style="fill: #fd8471"/>
            <path d="M21.39,4.75a9.17,9.17,0,0,1,.52-1.52,1.82,1.82,0,0,1,1.86-1c.84.09,2.71.18,2.95,1s.89.77.93,2.12c0,.93.7.74,1,1,1.06.89.25,1.69.68,2.18a1.26,1.26,0,0,1-.07,1.69c-.43.4-2.09-.64-3,0-2.33,1.6-3.86-.21-3.56-1s1.23-2.26.87-2.87a1.92,1.92,0,0,1-.29-1.74c.23-.56.17-1.28-.18-1.45s-.85.33-.85.33l-.61,1.1Z" style="fill: #2d1c64"/>
            <g>
              <path d="M26.47,36.11c-.16.22,0,.8-.44,1a4.16,4.16,0,0,1-2,0A.21.21,0,0,1,24,37h0a1.42,1.42,0,0,1,.1-1c.19-.36.73-1.27.73-1.27a2.51,2.51,0,0,1,.09-.44s-.05-.53.78-.56.8.36.8.36a1.27,1.27,0,0,1,.35.61A3.1,3.1,0,0,1,26.47,36.11Z" style="fill: #f15a48"/>
              <path d="M26.47,36.11c-.16.22,0,.8-.44,1a4.16,4.16,0,0,1-2,0A.21.21,0,0,1,24,37h0c-.1-.28.28-.53.43-.85s.73-1.08.79-1.25a1.26,1.26,0,0,1,1-.47.81.81,0,0,1,.67.27A3.1,3.1,0,0,1,26.47,36.11Z" style="fill: #d43538"/>
            </g>
          </g>
          <g>
            <path d="M29.65,20.12c0,.19.39.37.56.35h.07l.08,0a.71.71,0,0,0,.56.12.81.81,0,0,0,.76-.71.35.35,0,0,0-.2-.4l-.13,0a.62.62,0,0,0,0-.13.46.46,0,0,0-.19-.46,4.49,4.49,0,0,0-.94.1,1.08,1.08,0,0,0-.2.37C30,19.53,29.61,19.93,29.65,20.12Z" style="fill: #fcb38f"/>
            <g>
              <path d="M33.13,26.78l.2,0-1-6.56a.73.73,0,0,0-.77-.54H29a.87.87,0,0,0-.57.2.55.55,0,0,0-.2.47l.8,6.44.2,0-.8-6.44a.4.4,0,0,1,.14-.35.64.64,0,0,1,.42-.15h2.55a.54.54,0,0,1,.56.4Z" style="fill: #403384"/>
              <path d="M28.37,20.53h0a.28.28,0,0,0,.29-.28.24.24,0,0,1,.09-.21.39.39,0,0,1,.26-.09h2.55a.33.33,0,0,1,.34.24.32.32,0,0,0,.36.23c.18,0,.3-.15.28-.29a.94.94,0,0,0-1-.7H29a1.12,1.12,0,0,0-.74.26.7.7,0,0,0-.25.61A.3.3,0,0,0,28.37,20.53Z" style="fill: #2d1c64"/>
            </g>
            <g>
              <path d="M26.49,28.18l.31,6.18v1.87a.75.75,0,0,0,.61.68,23.34,23.34,0,0,0,7.4.11.88.88,0,0,0,.77-.57c.12-.4.22-.93.3-1.32s.1-.54.1-.54a41,41,0,0,0-.7-7.27,1,1,0,0,0-1-.72c-1.91-.05-6.33-.14-6.79.16l0,0a3.5,3.5,0,0,0-.9,1.1A.57.57,0,0,0,26.49,28.18Z" style="fill: #31d4a9"/>
              <path d="M26.49,28.18l.31,6.18v1.87a.75.75,0,0,0,.61.68,23.34,23.34,0,0,0,7.4.11.88.88,0,0,0,.77-.57c.12-.4.22-.93.3-1.32a25.81,25.81,0,0,1-4.35.37c-2.47,0-3.27,0-3.51-.33s-.32-6.86-.56-8.39a3.5,3.5,0,0,0-.9,1.1A.57.57,0,0,0,26.49,28.18Z" style="fill: #31af8b"/>
            </g>
            <path d="M34.55,31.5a16.06,16.06,0,0,1,.24,2.43.24.24,0,0,1-.23.2,26.64,26.64,0,0,1-5.18,0,.23.23,0,0,1-.22-.19c0-.44-.13-1.67-.13-2.36a.23.23,0,0,1,.22-.21,21,21,0,0,1,5.09-.06A.23.23,0,0,1,34.55,31.5Z" style="fill: #31af8b"/>
            <path d="M30.27,20.47s.52-.32.49-.55-.4-.18-.5-.14A1.78,1.78,0,0,0,30,20,.75.75,0,0,0,30.27,20.47Z" style="fill: #fcb38f"/>
            <path d="M31.61,20.13s.11-.43-.13-.5a1.72,1.72,0,0,0-1,0,.35.35,0,0,0-.05.28A1.42,1.42,0,0,0,31.61,20.13Z" style="fill: #fcb38f"/>
          </g>
        </g>
      </g>
    </g>
  </g>
</svg>
